<svg xmlns="http://www.w3.org/2000/svg" viewBox="0 0 583.809 451.201">
  <g id="blogging" transform="translate(-141.605 -137.393)">
    <g id="background" transform="translate(415.818 137.393)">
      <g id="Group_2" data-name="Group 2" transform="translate(135.933 63.039)">
        <g id="Group_1" data-name="Group 1">
          <path id="Path_1" data-name="Path 1" d="M1084.8,283.585c.087,1.342.13,2.685.216,3.984,0,.26.173.606.476.606,36.463,5.023,73.228.779,109.821.866,10.35,0,20.656.39,30.963,1.386a.6.6,0,0,0,.606-.476c.347-1.776.736-3.551,1.083-5.326.173-.823-1.083-1.169-1.256-.346-.346,1.776-.736,3.551-1.083,5.326a7.463,7.463,0,0,0,.606-.476c-36.246-3.551-72.622.909-108.955.13a273.52,273.52,0,0,1-31.482-2.338,7.408,7.408,0,0,0,.476.606c-.087-1.342-.13-2.685-.216-3.984a.629.629,0,0,0-1.256.043Z" transform="translate(-1084.798 -282.962)" fill="#e8e8e8"/>
        </g>
      </g>
      <g id="Group_4" data-name="Group 4" transform="translate(136.399 63.012)">
        <g id="Group_3" data-name="Group 3">
          <path id="Path_2" data-name="Path 2" d="M1086.492,284.2h141.13a.65.65,0,0,0,0-1.3h-141.13a.65.65,0,0,0,0,1.3Z" transform="translate(-1085.875 -282.9)" fill="#e8e8e8"/>
        </g>
      </g>
      <g id="Group_6" data-name="Group 6" transform="translate(143.638 4.822)">
        <g id="Group_5" data-name="Group 5">
          <path id="Path_3" data-name="Path 3" d="M1103.85,206.977c1.083-15.546,1.992-31.136,3.335-46.639.173-2.035.39-4.027.736-6.019a8.852,8.852,0,0,1,.606-2.858c.563-.78,1.775-.78,2.641-.909,1.992-.346,5.327-1.559,6.712.476a8.446,8.446,0,0,1,.606,2.6c.26,1.3.433,2.6.563,3.9.693,7.622-.3,15.373-.866,22.995q-.974,13.251-1.949,26.5c-.043.823,1.256.823,1.3,0,.953-12.645,1.992-25.247,2.771-37.892.347-5.8.52-11.736-.909-17.452-.39-1.6-1-2.945-2.815-3.118-2.772-.217-5.976.736-8.661,1.3a.623.623,0,0,0-.433.433c-2.3,8.964-2.208,18.621-2.858,27.8-.693,9.614-1.342,19.271-2.035,28.884-.087.823,1.212.823,1.256,0Z" transform="translate(-1102.591 -148.527)" fill="#e8e8e8"/>
        </g>
      </g>
      <g id="Group_8" data-name="Group 8" transform="translate(160.96 23.381)">
        <g id="Group_7" data-name="Group 7">
          <path id="Path_4" data-name="Path 4" d="M1142.639,192.171q7.925,19.942,16.716,39.494c.346.779,1.472.087,1.126-.65q-8.7-19.422-16.586-39.191c-.3-.779-1.559-.433-1.256.346Z" transform="translate(-1142.592 -191.385)" fill="#e8e8e8"/>
        </g>
      </g>
      <g id="Group_10" data-name="Group 10" transform="translate(160.842 11.763)">
        <g id="Group_9" data-name="Group 9">
          <path id="Path_5" data-name="Path 5" d="M1143.61,169.988a6.24,6.24,0,0,1,7.535-3.9.652.652,0,0,0,.346-1.256,7.568,7.568,0,0,0-9.137,4.807c-.26.823,1,1.126,1.256.346Z" transform="translate(-1142.319 -164.556)" fill="#e8e8e8"/>
        </g>
      </g>
      <g id="Group_12" data-name="Group 12" transform="translate(169.587 12.556)">
        <g id="Group_11" data-name="Group 11">
          <path id="Path_6" data-name="Path 6" d="M1162.594,167.389q12.862,24.943,25.68,49.93c.39.736,1.516.087,1.126-.65q-12.861-24.944-25.68-49.93c-.39-.779-1.516-.13-1.126.65Z" transform="translate(-1162.513 -166.387)" fill="#e8e8e8"/>
        </g>
      </g>
      <g id="Group_14" data-name="Group 14" transform="translate(192.229 1.768)">
        <g id="Group_13" data-name="Group 13">
          <path id="Path_7" data-name="Path 7" d="M1214.8,142.092q2.078,30.205,4.114,60.41c.043.823,1.342.823,1.3,0q-2.079-30.2-4.114-60.41c-.043-.823-1.343-.823-1.3,0Z" transform="translate(-1214.798 -141.475)" fill="#e8e8e8"/>
        </g>
      </g>
      <g id="Group_16" data-name="Group 16" transform="translate(192.265 0)">
        <g id="Group_15" data-name="Group 15">
          <path id="Path_8" data-name="Path 8" d="M1215.973,140.47c2.208-1.992,5.2-1.992,7.968-1.516a18.63,18.63,0,0,1,3.421.779c1.992.736,1.689,2.555,1.776,4.33.26,6.193.476,12.385.736,18.578.477,12.515,1,25.073,1.472,37.589.043.823,1.343.823,1.3,0-.606-14.983-1.169-29.967-1.775-44.907-.13-3.724-.3-7.492-.433-11.216-.086-1.905.173-4.244-1.819-5.283A17.579,17.579,0,0,0,1221,137.4a8.547,8.547,0,0,0-5.889,2.165c-.65.52.26,1.472.866.909Z" transform="translate(-1214.883 -137.393)" fill="#e8e8e8"/>
        </g>
      </g>
      <g id="Group_18" data-name="Group 18" transform="translate(170.052 11.518)">
        <g id="Group_17" data-name="Group 17">
          <path id="Path_9" data-name="Path 9" d="M1164.242,165.294a57.812,57.812,0,0,1,12.082,2.6,31.774,31.774,0,0,1,10.263,4.59c.693.476,1.342-.65.649-1.126a33.879,33.879,0,0,0-10.61-4.72,61.1,61.1,0,0,0-12.428-2.642c-.823-.087-.823,1.213.043,1.3Z" transform="translate(-1163.587 -163.99)" fill="#e8e8e8"/>
        </g>
      </g>
      <g id="Group_20" data-name="Group 20" transform="translate(207.228 8.498)">
        <g id="Group_19" data-name="Group 19">
          <path id="Path_10" data-name="Path 10" d="M1250.243,159.044a14.16,14.16,0,0,1,6.019-.563c2.945.606,3.551,3.2,3.681,5.846.216,5.327.3,10.61.433,15.936q.389,15.72.433,31.439a.651.651,0,0,0,1.3,0q-.065-18.773-.563-37.459c-.087-3.031-.173-6.019-.26-9.051-.087-1.992-.043-4.2-1.256-5.889-2.252-3.161-6.886-2.382-10.09-1.559a.667.667,0,0,0,.3,1.3Z" transform="translate(-1249.435 -157.016)" fill="#e8e8e8"/>
        </g>
      </g>
      <g id="Group_22" data-name="Group 22" transform="translate(217.52 3.067)">
        <g id="Group_21" data-name="Group 21">
          <path id="Path_11" data-name="Path 11" d="M1273.2,145.092v11.649a.651.651,0,0,0,1.3,0V145.092a.651.651,0,0,0-1.3,0Z" transform="translate(-1273.2 -144.475)" fill="#e8e8e8"/>
        </g>
      </g>
      <g id="Group_24" data-name="Group 24" transform="translate(218.246 2.518)">
        <g id="Group_23" data-name="Group 23">
          <path id="Path_12" data-name="Path 12" d="M1276.057,144.85c.346.13.736.26,1.083.39.043.3.087.606.13.953.087.693.087,1.429.173,2.165.087,1.126.173,2.3.26,3.421.173,2.425.3,4.893.433,7.318.3,5.023.52,10.047.693,15.07.39,9.917.52,19.834.52,29.75a.65.65,0,0,0,1.3,0c0-12.342-.26-24.727-.823-37.069-.3-6.019-.65-12.039-1.083-18.058-.086-1.472.173-4.157-1.169-5.2a1.706,1.706,0,0,0-2.641.606c-.3.78.779,1.429,1.126.65Z" transform="translate(-1274.878 -143.207)" fill="#e8e8e8"/>
        </g>
      </g>
      <g id="Group_26" data-name="Group 26" transform="translate(155.496 69.039)">
        <g id="Group_25" data-name="Group 25">
          <path id="Path_13" data-name="Path 13" d="M1130.073,297.807c1.342,2.252,2.642,5.63,4.807,7.232,2.122,1.6,4.72.173,7.059,1,.78.26,1.126-1,.346-1.256-2.079-.736-4.5.433-6.366-.736-2.122-1.3-3.464-4.807-4.72-6.929a.662.662,0,0,0-1.126.693Z" transform="translate(-1129.975 -296.819)" fill="#e8e8e8"/>
        </g>
      </g>
      <g id="Group_28" data-name="Group 28" transform="translate(167.102 69.973)">
        <g id="Group_27" data-name="Group 27">
          <path id="Path_14" data-name="Path 14" d="M1158.865,299.592a14.117,14.117,0,0,1-1.992,6.193.65.65,0,0,0,1.126.65,14.952,14.952,0,0,0,2.165-6.842c.087-.823-1.212-.823-1.3,0Z" transform="translate(-1156.775 -298.975)" fill="#e8e8e8"/>
        </g>
      </g>
      <g id="Group_30" data-name="Group 30" transform="translate(165.494 70.856)">
        <g id="Group_29" data-name="Group 29">
          <path id="Path_15" data-name="Path 15" d="M1153.079,301.831c.39,1.992.78,3.984,1.213,5.976.173.823,1.429.476,1.256-.346-.39-1.992-.78-3.984-1.213-5.976-.173-.823-1.429-.476-1.256.346Z" transform="translate(-1153.062 -301.014)" fill="#e8e8e8"/>
        </g>
      </g>
      <g id="Group_32" data-name="Group 32" transform="translate(165.84 70.374)">
        <g id="Group_31" data-name="Group 31">
          <path id="Path_16" data-name="Path 16" d="M1155.091,301.157a.615.615,0,0,1,.26.087,1.222,1.222,0,0,1,.087.779,7.163,7.163,0,0,1-.26.909,3.1,3.1,0,0,0-.043,1.776.652.652,0,0,0,1.256-.346,5.807,5.807,0,0,1,.433-3.421c-.433-.043-.866-.13-1.256-.173-.13,1.342-.217,2.728-.346,4.071-.087.823,1.213.823,1.3,0,.13-1.342.216-2.728.346-4.071.086-.779-1.039-.779-1.256-.173a7.462,7.462,0,0,0-.433,4.114c.433-.13.823-.216,1.256-.346-.39-1.3,1.126-2.9-.173-4.071a1.428,1.428,0,0,0-2.338.563c-.346.779.909,1.126,1.169.3Z" transform="translate(-1153.861 -299.902)" fill="#e8e8e8"/>
        </g>
      </g>
      <g id="Group_34" data-name="Group 34" transform="translate(233.171 55.589)">
        <g id="Group_33" data-name="Group 33">
          <path id="Path_17" data-name="Path 17" d="M1311.1,272.316a14.985,14.985,0,0,1-.433-4.807l-.65.65c7.665-.39,15.33-.866,22.995-1.039q5.781-.13,11.562,0c.866,0,1.732.043,2.555.043.866.043,2.642-.26,3.421.13,1.732.823,1,4.157,1,5.673a.65.65,0,0,0,1.3,0c0-2.035,1.039-6.366-1.732-6.929a35.846,35.846,0,0,0-6.106-.217c-2.425-.043-4.85-.087-7.275-.043-9.224.043-18.448.606-27.715,1.083a.666.666,0,0,0-.65.65,15.833,15.833,0,0,0,.52,5.153c.13.823,1.386.476,1.213-.346Z" transform="translate(-1309.342 -265.759)" fill="#e8e8e8"/>
        </g>
      </g>
      <g id="Group_36" data-name="Group 36" transform="translate(239.719 48.325)">
        <g id="Group_35" data-name="Group 35">
          <path id="Path_18" data-name="Path 18" d="M1324.479,249.771a50.538,50.538,0,0,1,1.083,7.189c.043.823,1.343.823,1.3,0a48.666,48.666,0,0,0-1.126-7.535c-.173-.779-1.429-.433-1.256.346Z" transform="translate(-1324.462 -248.985)" fill="#e8e8e8"/>
        </g>
      </g>
      <g id="Group_38" data-name="Group 38" transform="translate(239.984 47.888)">
        <g id="Group_37" data-name="Group 37">
          <path id="Path_19" data-name="Path 19" d="M1325.692,250.021a127.3,127.3,0,0,1,15.719-.693c4.937.217,9.917,1.819,14.854,1.3l-.65-.65a16.652,16.652,0,0,0,.823,6.669c.26.78,1.516.433,1.256-.346a15.619,15.619,0,0,1-.78-6.322.613.613,0,0,0-.649-.65c-4.937.476-9.917-1.126-14.854-1.3a126.921,126.921,0,0,0-15.719.693c-.823.043-.823,1.342,0,1.3Z" transform="translate(-1325.075 -247.975)" fill="#e8e8e8"/>
        </g>
      </g>
      <g id="Group_40" data-name="Group 40" transform="translate(196.517 183.691)">
        <g id="Group_39" data-name="Group 39">
          <path id="Path_20" data-name="Path 20" d="M1224.7,562.192v5.413a.651.651,0,0,0,1.3,0v-5.413a.651.651,0,0,0-1.3,0Z" transform="translate(-1224.7 -561.575)" fill="#e8e8e8"/>
        </g>
      </g>
      <g id="Group_42" data-name="Group 42" transform="translate(196.517 182.576)">
        <g id="Group_41" data-name="Group 41">
          <path id="Path_21" data-name="Path 21" d="M1225.35,560.3h101.073a.65.65,0,0,0,0-1.3H1225.35a.65.65,0,1,0,0,1.3Z" transform="translate(-1224.7 -559)" fill="#e8e8e8"/>
        </g>
      </g>
      <g id="Group_44" data-name="Group 44" transform="translate(197.589 188.552)">
        <g id="Group_43" data-name="Group 43">
          <path id="Path_22" data-name="Path 22" d="M1227.792,574.1h99.471a.65.65,0,0,0,0-1.3h-99.471a.65.65,0,0,0,0,1.3Z" transform="translate(-1227.175 -572.8)" fill="#e8e8e8"/>
        </g>
      </g>
      <g id="Group_46" data-name="Group 46" transform="translate(297.59 183.691)">
        <g id="Group_45" data-name="Group 45">
          <path id="Path_23" data-name="Path 23" d="M1458.1,562.192v3.767a.651.651,0,0,0,1.3,0v-3.767a.651.651,0,0,0-1.3,0Z" transform="translate(-1458.1 -561.575)" fill="#e8e8e8"/>
        </g>
      </g>
      <g id="Group_48" data-name="Group 48" transform="translate(206.495 168.898)">
        <g id="Group_47" data-name="Group 47">
          <path id="Path_24" data-name="Path 24" d="M1247.767,528.23c1.126,4.46,2.165,8.964,3.031,13.468.173.823,1.429.476,1.256-.346-.866-4.5-1.862-9.007-3.031-13.468a.652.652,0,0,0-1.256.346Z" transform="translate(-1247.742 -527.414)" fill="#e8e8e8"/>
        </g>
      </g>
      <g id="Group_50" data-name="Group 50" transform="translate(226.474 168.854)">
        <g id="Group_49" data-name="Group 49">
          <path id="Path_25" data-name="Path 25" d="M1296.443,527.784c-1.04,4.46-1.906,8.921-2.555,13.424-.13.823,1.126,1.169,1.256.346.65-4.5,1.516-9.007,2.555-13.424.173-.823-1.083-1.169-1.256-.346Z" transform="translate(-1293.878 -527.314)" fill="#e8e8e8"/>
        </g>
      </g>
      <g id="Group_52" data-name="Group 52" transform="translate(202.969 165.477)">
        <g id="Group_51" data-name="Group 51">
          <path id="Path_26" data-name="Path 26" d="M1239.6,521.328c.087,2.252,3.464,2.079,5.11,2.165,3.724.173,7.492-.39,11.216-.606a34.378,34.378,0,0,1,5.586,0c1.516.13,3.161.65,4.634.346,1.646-.346,2.685-1.905,1.732-3.421-.433-.693-1.559-.043-1.126.65,1.212,2.035-2.9,1.386-3.291,1.342-.909-.13-1.862-.217-2.771-.26a45.281,45.281,0,0,0-6.409.173c-1.386.087-13.338,1.516-13.381-.39a.65.65,0,1,0-1.3,0Z" transform="translate(-1239.6 -519.516)" fill="#e8e8e8"/>
        </g>
      </g>
      <g id="Group_54" data-name="Group 54" transform="translate(203.09 162.95)">
        <g id="Group_53" data-name="Group 53">
          <path id="Path_27" data-name="Path 27" d="M1241.274,517.845c-.78-2.425,5.933-2.165,7.059-2.209l6.019-.26c1.083-.043,12.342-.346,12.039.476-.26.779,1,1.126,1.256.346,1.3-3.854-12.775-2.165-14.594-2.079-3.378.13-7.145-.173-10.437.476-1.732.346-3.2,1.646-2.6,3.551.26.823,1.516.476,1.256-.3Z" transform="translate(-1239.88 -513.679)" fill="#e8e8e8"/>
        </g>
      </g>
      <g id="Group_56" data-name="Group 56" transform="translate(196.807 134.444)">
        <g id="Group_55" data-name="Group 55">
          <path id="Path_28" data-name="Path 28" d="M1238.808,476.931a14.67,14.67,0,0,1-5.153-3.854c-.563-.693-4.547-6.452-2.208-6.8a.659.659,0,0,0,.39-.953c-1.256-1.819-1.776-4.157-2.425-6.236-.736-2.252-1.429-4.5-2.165-6.712-.13-.476-.346-.909-.433-1.386-.217-.909-.346-.909.736-1,1.169-.087,1.776.823,2.555,1.6a34.372,34.372,0,0,1,3.941,4.764c4.374,6.323,6.8,13.771,8.618,21.176a.652.652,0,0,0,1.256-.346c-2.339-9.44-5.76-19.141-12.688-26.286-.953-1-2.771-3.291-4.374-3.031-1.213.216-1.559,1.516-1.472,2.6.173,2.425,1.472,5.067,2.252,7.405.866,2.685,1.429,5.8,3.075,8.141.13-.3.26-.65.39-.953-2.858.433-1.213,4.417-.433,5.976a16.1,16.1,0,0,0,7.492,7.1c.736.26,1.386-.866.65-1.213Z" transform="translate(-1225.371 -447.853)" fill="#e8e8e8"/>
        </g>
      </g>
      <g id="Group_58" data-name="Group 58" transform="translate(210.352 123.739)">
        <g id="Group_57" data-name="Group 57">
          <path id="Path_29" data-name="Path 29" d="M1258.013,451.05c-.13-5.5-.26-11.216,1.6-16.456a27.156,27.156,0,0,1,3.9-7.015,5.925,5.925,0,0,1,1.429-1.819c.433-.693,1.083-.78,1.906-.217q1.559-.39,1.559.779c.52,1.169.346,3.161.346,4.374a34.077,34.077,0,0,1-1.386,8.358,8.383,8.383,0,0,0-.39,2.9,14.624,14.624,0,0,0,1,3.031c.866,2.945-.65,5.976-1.689,8.661-1.039,2.815-2.122,5.63-3.161,8.488-.3.78.953,1.126,1.256.346,1.386-3.724,2.858-7.405,4.157-11.173.909-2.642,1.342-4.937.3-7.535-1.386-3.508.823-7.448,1.126-11.043.173-2.338.563-6.323-.953-8.4-3.291-4.547-8.531,5.153-9.571,7.318-2.945,6.063-2.9,12.861-2.728,19.444a.65.65,0,0,0,1.3-.043Z" transform="translate(-1256.649 -423.132)" fill="#e8e8e8"/>
        </g>
      </g>
      <g id="Group_60" data-name="Group 60" transform="translate(200.689 140.058)">
        <g id="Group_59" data-name="Group 59">
          <path id="Path_30" data-name="Path 30" d="M1234.449,461.762c4.287,6.019,6.842,13.251,9.83,19.964.346.779,1.472.087,1.126-.65-2.945-6.755-5.543-13.944-9.83-19.964-.477-.693-1.6-.043-1.126.65Z" transform="translate(-1234.334 -460.816)" fill="#e8e8e8"/>
        </g>
      </g>
      <g id="Group_62" data-name="Group 62" transform="translate(212.755 137.312)">
        <g id="Group_61" data-name="Group 61">
          <path id="Path_31" data-name="Path 31" d="M1262.2,455.092a10.793,10.793,0,0,0,2.382,6.106c.52.65,1.429-.26.909-.909a9.509,9.509,0,0,1-1.992-5.2c-.043-.823-1.343-.823-1.3,0Z" transform="translate(-1262.198 -454.475)" fill="#e8e8e8"/>
        </g>
      </g>
      <g id="Group_64" data-name="Group 64" transform="translate(217.422 132.003)">
        <g id="Group_63" data-name="Group 63">
          <path id="Path_32" data-name="Path 32" d="M1274.2,447.839c1.039-1.559,2.122-3.118,3.161-4.677.476-.693-.65-1.342-1.126-.65-1.039,1.559-2.122,3.118-3.161,4.677-.433.693.693,1.342,1.126.65Z" transform="translate(-1272.975 -442.216)" fill="#e8e8e8"/>
        </g>
      </g>
      <g id="Group_66" data-name="Group 66" transform="translate(222.603 136.463)">
        <g id="Group_65" data-name="Group 65">
          <path id="Path_33" data-name="Path 33" d="M1293.886,452.812a24.932,24.932,0,0,1-4.071,4.46c-1.559,1.472-3.118,2.988-4.677,4.46-.606.563.3,1.516.909.909,2.988-2.858,6.755-5.63,8.964-9.181.433-.693-.693-1.342-1.126-.65Z" transform="translate(-1284.938 -452.516)" fill="#e8e8e8"/>
        </g>
      </g>
      <g id="Group_68" data-name="Group 68" transform="translate(225.278 137.885)">
        <g id="Group_67" data-name="Group 67">
          <path id="Path_34" data-name="Path 34" d="M1296.825,456.406c.086,2.3,3.9,6.539.952,7.925a.681.681,0,0,0-.13,1.039c1,1.213.346,3.031.217,4.46a25.007,25.007,0,0,1-.433,4.763c-.78,2.988-3.551,4.764-6.02,6.323-.693.433-.043,1.559.65,1.126,2.988-1.905,6.063-4.071,6.755-7.795.346-1.992.346-4.071.52-6.063a4.289,4.289,0,0,0-.823-3.681q-.065.52-.13,1.039c4.114-1.949-.217-6.366-.3-9.051,0-.909-1.3-.909-1.256-.087Z" transform="translate(-1291.116 -455.799)" fill="#e8e8e8"/>
        </g>
      </g>
      <g id="Group_70" data-name="Group 70" transform="translate(221.197 144.534)">
        <g id="Group_69" data-name="Group 69">
          <path id="Path_35" data-name="Path 35" d="M1289.4,471.476a97.081,97.081,0,0,0-7.665,15.113c-.3.779.953,1.126,1.256.346a95.227,95.227,0,0,1,7.535-14.81.65.65,0,0,0-1.126-.65Z" transform="translate(-1281.692 -471.152)" fill="#e8e8e8"/>
        </g>
      </g>
      <g id="Group_72" data-name="Group 72" transform="translate(208.7 177.673)">
        <g id="Group_71" data-name="Group 71">
          <path id="Path_36" data-name="Path 36" d="M1252.949,548.6a11.567,11.567,0,0,0,6.972,4.547c.823.173,1.169-1.083.346-1.256a10.054,10.054,0,0,1-6.193-3.941c-.476-.649-1.6,0-1.126.65Z" transform="translate(-1252.834 -547.679)" fill="#e8e8e8"/>
        </g>
      </g>
      <g id="Group_74" data-name="Group 74" transform="translate(207.81 172.006)">
        <g id="Group_73" data-name="Group 73">
          <path id="Path_37" data-name="Path 37" d="M1251.048,535.851c4.46,3.421,9.181,8.315,14.9,9.484.823.173,1.169-1.083.346-1.256-5.543-1.126-10.22-6.019-14.594-9.354-.65-.52-1.3.606-.65,1.126Z" transform="translate(-1250.779 -534.591)" fill="#e8e8e8"/>
        </g>
      </g>
      <g id="Group_76" data-name="Group 76" transform="translate(211.277 168.91)">
        <g id="Group_75" data-name="Group 75">
          <path id="Path_38" data-name="Path 38" d="M1259.008,528.506c2.685,2.209,5.283,4.46,8.011,6.582a15.531,15.531,0,0,0,3.811,2.338,18.99,18.99,0,0,1,3.984,1.689c.693.476,1.343-.65.65-1.126a12.862,12.862,0,0,0-2.945-1.343,15.042,15.042,0,0,1-4.677-2.6c-2.685-2.078-5.283-4.287-7.881-6.452-.693-.52-1.6.39-.953.909Z" transform="translate(-1258.786 -527.442)" fill="#e8e8e8"/>
        </g>
      </g>
      <g id="Group_78" data-name="Group 78" transform="translate(218.408 168.239)">
        <g id="Group_77" data-name="Group 77">
          <path id="Path_39" data-name="Path 39" d="M1275.445,527.021a21.774,21.774,0,0,0,9.008,5.63c.78.26,1.126-1,.346-1.256a20.638,20.638,0,0,1-8.444-5.326c-.563-.563-1.516.346-.91.953Z" transform="translate(-1275.25 -525.892)" fill="#e8e8e8"/>
        </g>
      </g>
      <g id="Group_80" data-name="Group 80" transform="translate(248.782 175.427)">
        <g id="Group_79" data-name="Group 79">
          <path id="Path_40" data-name="Path 40" d="M1347.084,549.034a6.451,6.451,0,0,1-.606-2.339c.173-1.905,1.472-2.079,2.728-2.3a30.052,30.052,0,0,1,5.586-.39c3.161-.043,6.366.217,9.527.346a85.976,85.976,0,0,0,9.44-.346c1.3-.13,3.594-.65,4.85-.216a2.184,2.184,0,0,1,1.689,2.339c.043.953.043,1.905.087,2.9.043.823,1.343.823,1.3,0-.043-1.472.39-4.071-.346-5.456-.693-1.213-2.3-1.083-3.508-1.083-4.937,0-9.744.736-14.724.52-4.59-.173-9.224-.563-13.771.13-3.724.563-4.677,2.858-3.421,6.323.173.693,1.429.346,1.169-.433Z" transform="translate(-1345.392 -542.491)" fill="#e8e8e8"/>
        </g>
      </g>
      <g id="Group_82" data-name="Group 82" transform="translate(257.915 170.876)">
        <g id="Group_81" data-name="Group 81">
          <path id="Path_41" data-name="Path 41" d="M1368.222,536.1c.346-.779.65-1.559,1-2.338a10.917,10.917,0,0,0,1.169-.173c.52-.043,1,0,1.516-.043,1.126,0,2.208-.043,3.334-.043,2.382-.043,4.72-.043,7.1-.087,2.208-.043,4.46-.043,6.669-.087.563,0,1.126,0,1.689-.043.693,0,.909-.173,1.126.346.26.65-.217,2.468-.3,3.161-.087.823,1.212.823,1.3,0,.087-1.039.736-3.2.217-4.157-.433-.779-1.083-.65-1.949-.65-4.157,0-8.358.13-12.515.173-1.949.043-3.9.043-5.846.087-1.472,0-3.291-.173-4.634.52-1.559.823-2.295,2.945-.78,4.2.65.563,1.559-.346.909-.866Z" transform="translate(-1366.482 -531.981)" fill="#e8e8e8"/>
        </g>
      </g>
      <g id="Group_84" data-name="Group 84" transform="translate(267.101 166.862)">
        <g id="Group_83" data-name="Group 83">
          <path id="Path_42" data-name="Path 42" d="M1389.168,525.565c-1.126-1.516,3.594-1.342,3.9-1.386,1.039-.087,4.59-.736,3.9,1.6-.26.823,1,1.126,1.256.346a2.473,2.473,0,0,0-.866-2.685c-1.429-1.169-3.2-.606-4.893-.52-1.342.043-2.945-.39-4.027.649a1.964,1.964,0,0,0-.39,2.642c.52.65,1.646,0,1.126-.65Z" transform="translate(-1387.693 -522.712)" fill="#e8e8e8"/>
        </g>
      </g>
      <g id="Group_86" data-name="Group 86" transform="translate(202.186 189.843)">
        <g id="Group_85" data-name="Group 85">
          <path id="Path_43" data-name="Path 43" d="M1237.925,576.742a23.65,23.65,0,0,0,5.889,5.673c.693.476,1.343-.65.65-1.126a21.464,21.464,0,0,1-5.413-5.24c-.52-.65-1.646,0-1.126.693Z" transform="translate(-1237.791 -575.781)" fill="#e8e8e8"/>
        </g>
      </g>
      <g id="Group_88" data-name="Group 88" transform="translate(207.419 189.281)">
        <g id="Group_87" data-name="Group 87">
          <path id="Path_44" data-name="Path 44" d="M1250.492,581.246h4.287c.823,0,2.165.216,2.9-.173.563-.3.736-1,1-1.516a24.972,24.972,0,0,1,2.469-3.941c.519-.65-.39-1.559-.91-.909-.476.563-.909,1.169-1.343,1.776a27.314,27.314,0,0,1-1.472,2.728c-1.213,1.429-5.153.779-6.929.736a.65.65,0,0,0,0,1.3Z" transform="translate(-1249.875 -574.484)" fill="#e8e8e8"/>
        </g>
      </g>
      <g id="Group_90" data-name="Group 90" transform="translate(212.818 189.9)">
        <g id="Group_89" data-name="Group 89">
          <path id="Path_45" data-name="Path 45" d="M1262.367,576.73c.346,1.3.693,2.641,1.083,3.941a.652.652,0,0,0,1.256-.346c-.346-1.3-.693-2.642-1.083-3.941a.652.652,0,0,0-1.256.346Z" transform="translate(-1262.342 -575.914)" fill="#e8e8e8"/>
        </g>
      </g>
      <g id="Group_92" data-name="Group 92" transform="translate(265.55 189.485)">
        <g id="Group_91" data-name="Group 91">
          <path id="Path_46" data-name="Path 46" d="M1384.194,575.971a29.624,29.624,0,0,0,2.339,4.114,6.112,6.112,0,0,0,1.905,2.165c.866.433,2.079.087,2.945,0,1.559-.173,3.118-.3,4.677-.476.823-.087.823-1.386,0-1.3-1.039.087-2.079.217-3.118.3a12.9,12.9,0,0,1-3.118.3c-2.252-.433-3.638-3.984-4.5-5.8-.39-.736-1.516-.087-1.126.693Z" transform="translate(-1384.113 -574.955)" fill="#e8e8e8"/>
        </g>
      </g>
      <g id="Group_94" data-name="Group 94" transform="translate(276.799 188.979)">
        <g id="Group_93" data-name="Group 93">
          <path id="Path_47" data-name="Path 47" d="M1410.83,574.225a19.455,19.455,0,0,0-.736,5.673c.043.823,1.343.823,1.3,0a18.339,18.339,0,0,1,.65-5.327c.26-.779-1-1.126-1.213-.346Z" transform="translate(-1410.089 -573.785)" fill="#e8e8e8"/>
        </g>
      </g>
      <g id="Group_96" data-name="Group 96" transform="translate(276.994 189.46)">
        <g id="Group_95" data-name="Group 95">
          <path id="Path_48" data-name="Path 48" d="M1411.648,581.178c1.732-1.646,3.378-3.378,4.98-5.153.563-.606-.346-1.559-.909-.909-1.6,1.776-3.248,3.508-4.98,5.153-.606.563.3,1.472.909.909Z" transform="translate(-1410.538 -574.897)" fill="#e8e8e8"/>
        </g>
      </g>
      <g id="Group_98" data-name="Group 98" transform="translate(0 63.044)">
        <g id="Group_97" data-name="Group 97">
          <path id="Path_49" data-name="Path 49" d="M770.9,283.592v36.592a.65.65,0,0,0,1.3,0V283.592a.65.65,0,0,0-1.3,0Z" transform="translate(-770.9 -282.975)" fill="#e8e8e8"/>
        </g>
      </g>
      <g id="Group_100" data-name="Group 100" transform="translate(0.39 99.951)">
        <g id="Group_99" data-name="Group 99">
          <path id="Path_50" data-name="Path 50" d="M772.45,369.5h46.423a.65.65,0,0,0,0-1.3H772.45a.65.65,0,0,0,0,1.3Z" transform="translate(-771.8 -368.2)" fill="#e8e8e8"/>
        </g>
      </g>
      <g id="Group_102" data-name="Group 102" transform="translate(0.39 63.012)">
        <g id="Group_101" data-name="Group 101">
          <path id="Path_51" data-name="Path 51" d="M772.45,284.2h45.037a.65.65,0,0,0,0-1.3H772.45a.65.65,0,0,0,0,1.3Z" transform="translate(-771.8 -282.9)" fill="#e8e8e8"/>
        </g>
      </g>
      <g id="Group_104" data-name="Group 104" transform="translate(46.076 63.044)">
        <g id="Group_103" data-name="Group 103">
          <path id="Path_52" data-name="Path 52" d="M877.3,283.592v36.592a.65.65,0,0,0,1.3,0V283.592a.65.65,0,0,0-1.3,0Z" transform="translate(-877.3 -282.975)" fill="#e8e8e8"/>
        </g>
      </g>
      <g id="Group_106" data-name="Group 106" transform="translate(22.859 58.669)">
        <g id="Group_105" data-name="Group 105">
          <path id="Path_53" data-name="Path 53" d="M824.992,276.781a2.955,2.955,0,0,1,.3-1.6c.13-.3.65-1.083.953-.866.346.217.476,1.212.52,1.559a5.894,5.894,0,0,1,.043,1.949c-.087.823,1.213.823,1.3,0a7.947,7.947,0,0,0-.39-3.334c-.26-.693-.606-1.516-1.429-1.6-1.776-.217-2.685,2.512-2.6,3.854.043.909,1.343.909,1.3.043Z" transform="translate(-823.687 -272.872)" fill="#e8e8e8"/>
        </g>
      </g>
      <g id="Group_108" data-name="Group 108" transform="translate(2.468 67.245)">
        <g id="Group_107" data-name="Group 107">
          <path id="Path_54" data-name="Path 54" d="M776.6,293.292V322.48a.65.65,0,0,0,1.3,0V293.292a.65.65,0,0,0-1.3,0Z" transform="translate(-776.6 -292.675)" fill="#e8e8e8"/>
        </g>
      </g>
      <g id="Group_110" data-name="Group 110" transform="translate(2.501 96.4)">
        <g id="Group_109" data-name="Group 109">
          <path id="Path_55" data-name="Path 55" d="M777.292,361.3h40.793a.65.65,0,0,0,0-1.3H777.292a.65.65,0,0,0,0,1.3Z" transform="translate(-776.675 -360)" fill="#e8e8e8"/>
        </g>
      </g>
      <g id="Group_112" data-name="Group 112" transform="translate(43.651 66.898)">
        <g id="Group_111" data-name="Group 111">
          <path id="Path_56" data-name="Path 56" d="M873,321.68V292.492a.65.65,0,0,0-1.3,0V321.68a.65.65,0,1,0,1.3,0Z" transform="translate(-871.7 -291.875)" fill="#e8e8e8"/>
        </g>
      </g>
      <g id="Group_114" data-name="Group 114" transform="translate(2.847 67.559)">
        <g id="Group_113" data-name="Group 113">
          <path id="Path_57" data-name="Path 57" d="M778.092,294.7H817.5a.65.65,0,0,0,0-1.3H778.092a.65.65,0,0,0,0,1.3Z" transform="translate(-777.475 -293.4)" fill="#e8e8e8"/>
        </g>
      </g>
      <g id="Group_116" data-name="Group 116" transform="translate(2.895 87.656)">
        <g id="Group_115" data-name="Group 115">
          <path id="Path_58" data-name="Path 58" d="M778.371,342.967c5.067-1.516,10.22-2.858,15.243-.52,3.594,1.689,6.712,4.244,10.74,4.98.823.13,1.169-1.083.346-1.256-4.59-.866-8.055-4.2-12.428-5.673-4.72-1.559-9.657-.173-14.247,1.213-.779.26-.433,1.516.347,1.256Z" transform="translate(-777.585 -339.81)" fill="#e8e8e8"/>
        </g>
      </g>
      <g id="Group_118" data-name="Group 118" transform="translate(19.784 86.261)">
        <g id="Group_117" data-name="Group 117">
          <path id="Path_59" data-name="Path 59" d="M817.371,340.4a44.289,44.289,0,0,1,19.141-2.3c.823.087.823-1.213,0-1.3a45.14,45.14,0,0,0-19.487,2.338c-.78.3-.433,1.559.346,1.256Z" transform="translate(-816.585 -336.589)" fill="#e8e8e8"/>
        </g>
      </g>
      <g id="Group_120" data-name="Group 120" transform="translate(20.293 75.871)">
        <g id="Group_119" data-name="Group 119">
          <path id="Path_60" data-name="Path 60" d="M819.38,316.755a2,2,0,0,1,.476-2.6,1.864,1.864,0,0,1,2.425.39,1.672,1.672,0,0,1-.606,2.338,1.5,1.5,0,0,1-2.035-1.386.65.65,0,0,0-1.3,0,2.819,2.819,0,0,0,3.464,2.728,2.944,2.944,0,0,0,1.776-3.941,3.141,3.141,0,0,0-4.244-1.342,3.293,3.293,0,0,0-1.126,4.5.682.682,0,0,0,1.169-.693Z" transform="translate(-817.761 -312.595)" fill="#e8e8e8"/>
        </g>
      </g>
      <g id="Group_122" data-name="Group 122" transform="translate(232.716 68.979)">
        <g id="Group_121" data-name="Group 121">
          <path id="Path_61" data-name="Path 61" d="M1308.425,297.642c1.559,2.079,1.862,4.893,3.768,6.712,1.775,1.732,3.9,1.472,6.063.693.78-.26.433-1.516-.346-1.256a5.544,5.544,0,0,1-3.724.346,4.829,4.829,0,0,1-2.252-2.382,33.053,33.053,0,0,0-2.382-4.807c-.52-.65-1.646,0-1.126.693Z" transform="translate(-1308.291 -296.681)" fill="#e8e8e8"/>
        </g>
      </g>
      <g id="Group_124" data-name="Group 124" transform="translate(241.374 69.817)">
        <g id="Group_123" data-name="Group 123">
          <path id="Path_62" data-name="Path 62" d="M1329.417,305.624a31.58,31.58,0,0,0,5.456-6.063c.476-.693-.649-1.342-1.126-.65a29.039,29.039,0,0,1-5.24,5.8c-.649.52.26,1.472.909.909Z" transform="translate(-1328.284 -298.616)" fill="#e8e8e8"/>
        </g>
      </g>
      <g id="Group_126" data-name="Group 126" transform="translate(239.294 68.463)">
        <g id="Group_125" data-name="Group 125">
          <path id="Path_63" data-name="Path 63" d="M1323.533,296.489a10.407,10.407,0,0,1,.823,4.417c-.043.823,1.256.823,1.3,0a11.9,11.9,0,0,0-1-5.067c-.3-.779-1.429-.13-1.126.65Z" transform="translate(-1323.482 -295.487)" fill="#e8e8e8"/>
        </g>
      </g>
      <g id="Group_128" data-name="Group 128" transform="translate(204.658 238.255)">
        <g id="Group_127" data-name="Group 127">
          <path id="Path_64" data-name="Path 64" d="M1243.5,688.192v17.322a.651.651,0,0,0,1.3,0V688.192a.651.651,0,0,0-1.3,0Z" transform="translate(-1243.5 -687.575)" fill="#e8e8e8"/>
        </g>
      </g>
      <g id="Group_130" data-name="Group 130" transform="translate(188.235 257.277)">
        <g id="Group_129" data-name="Group 129">
          <path id="Path_65" data-name="Path 65" d="M1206.192,732.8h45.9a.65.65,0,0,0,0-1.3h-45.9a.65.65,0,0,0,0,1.3Z" transform="translate(-1205.575 -731.5)" fill="#e8e8e8"/>
        </g>
      </g>
      <g id="Group_132" data-name="Group 132" transform="translate(213.752 259.041)">
        <g id="Group_131" data-name="Group 131">
          <path id="Path_66" data-name="Path 66" d="M1264.5,736.192v10.826a.651.651,0,0,0,1.3,0V736.192a.651.651,0,0,0-1.3,0Z" transform="translate(-1264.5 -735.575)" fill="#e8e8e8"/>
        </g>
      </g>
      <g id="Group_134" data-name="Group 134" transform="translate(187.802 271.134)">
        <g id="Group_133" data-name="Group 133">
          <path id="Path_67" data-name="Path 67" d="M1205.192,764.8H1245.9a.65.65,0,0,0,0-1.3h-40.706a.65.65,0,0,0,0,1.3Z" transform="translate(-1204.575 -763.5)" fill="#e8e8e8"/>
        </g>
      </g>
      <g id="Group_136" data-name="Group 136" transform="translate(198.595 272.899)">
        <g id="Group_135" data-name="Group 135">
          <path id="Path_68" data-name="Path 68" d="M1229.5,768.192v8.228a.65.65,0,0,0,1.3,0v-8.228a.65.65,0,0,0-1.3,0Z" transform="translate(-1229.5 -767.575)" fill="#e8e8e8"/>
        </g>
      </g>
      <g id="Group_138" data-name="Group 138" transform="translate(201.665 54.479)">
        <g id="Group_137" data-name="Group 137">
          <path id="Path_69" data-name="Path 69" d="M1237.849,272.552c0-1.819-.346-4.114,0-5.889.476-2.512,3.984-2.035,6.019-2.165.823-.043.823-1.342,0-1.3a48.94,48.94,0,0,0-5.023.346,2.5,2.5,0,0,0-1.819,1,5.017,5.017,0,0,0-.433,2.772v5.24a.628.628,0,1,0,1.256,0Z" transform="translate(-1236.588 -263.198)" fill="#e8e8e8"/>
        </g>
      </g>
      <g id="Group_140" data-name="Group 140" transform="translate(194.487 13.502)">
        <g id="Group_139" data-name="Group 139">
          <path id="Path_70" data-name="Path 70" d="M1220.831,170.533a17.921,17.921,0,0,1,11.649.693c.779.3,1.126-.953.346-1.256a19.145,19.145,0,0,0-12.342-.693.651.651,0,0,0,.346,1.256Z" transform="translate(-1220.014 -168.572)" fill="#e8e8e8"/>
        </g>
      </g>
      <g id="Group_142" data-name="Group 142" transform="translate(192.756 8.075)">
        <g id="Group_141" data-name="Group 141">
          <path id="Path_71" data-name="Path 71" d="M1216.962,159.531a12.032,12.032,0,0,1,11.519-1.256c.78.3,1.126-.953.346-1.256a13.176,13.176,0,0,0-12.515,1.386c-.693.476-.043,1.6.65,1.126Z" transform="translate(-1216.016 -156.04)" fill="#e8e8e8"/>
        </g>
      </g>
      <g id="Group_144" data-name="Group 144" transform="translate(175.171 34.142)">
        <g id="Group_143" data-name="Group 143">
          <path id="Path_72" data-name="Path 72" d="M1179.865,216.349c-1.386.953-4.027,2.209-4.417,4.027a4.9,4.9,0,0,0,.606,2.685c.606,1.516,1.213,3.031,1.862,4.547a183.515,183.515,0,0,0,8.444,17.365c.39.736,1.516.087,1.126-.65q-3.573-6.5-6.626-13.251c-1.083-2.382-2.122-4.807-3.074-7.232-.563-1.429-1.342-2.685-.3-4.157.606-.866,2.165-1.6,3.075-2.209.65-.476,0-1.6-.693-1.126Z" transform="translate(-1175.409 -216.234)" fill="#e8e8e8"/>
        </g>
      </g>
    </g>
    <g id="hand_r" transform="translate(342.113 330.578)">
      <path id="Path_73" data-name="Path 73" d="M671.936,706.6c-3.551,2.642-7.838,6.885-9.4,12.948-1.126,4.5-.043,7.145-.433,12.948a43.308,43.308,0,0,1-4.634,16.456,83.087,83.087,0,0,0-35.337.39,82.043,82.043,0,0,0-21.436,8.271,12.4,12.4,0,0,0,3.378,1.516c8.1,2.208,16.629-4.59,16.889-4.114.26.433-9.527,5.023-9.007,9.007.346,2.685,5.153,4.114,10.133,5.63,4.2,1.256,8.185,2.468,13.511,1.862a27.658,27.658,0,0,0,14.637-6.409,63.175,63.175,0,0,0,9.4,3.768c7.405,2.252,17.625,5.37,24.424,1.126,4.417-2.772,5.76-9.267,8.271-22.172,3.031-15.72,4.46-23.6.39-30.053C687.4,709.155,676.44,707.163,671.936,706.6Z" transform="translate(-600.7 -653.292)" fill="#fff" stroke="#161616" stroke-miterlimit="10" stroke-width="3"/>
      <g id="Group_146" data-name="Group 146" transform="translate(54.935 94.834)">
        <g id="Group_145" data-name="Group 145">
          <path id="Path_74" data-name="Path 74" d="M728.008,803.794a25.141,25.141,0,0,1,12.558,10.22c.433.693,1.559.043,1.126-.65a26.684,26.684,0,0,0-13.338-10.826c-.823-.3-1.126.953-.346,1.256Z" transform="translate(-727.557 -802.492)" fill="#161616"/>
        </g>
      </g>
      <g id="Group_148" data-name="Group 148" transform="translate(16.279 104.658)">
        <g id="Group_147" data-name="Group 147">
          <path id="Path_75" data-name="Path 75" d="M649.511,825.188a14.457,14.457,0,0,0-11.173,9.181c-.3.779.953,1.126,1.256.346a13.186,13.186,0,0,1,10.263-8.271c.823-.13.476-1.386-.346-1.256Z" transform="translate(-638.292 -825.178)" fill="#161616"/>
        </g>
      </g>
      <g id="Group_150" data-name="Group 150" transform="translate(26.25 108.883)">
        <g id="Group_149" data-name="Group 149">
          <path id="Path_76" data-name="Path 76" d="M668.629,835.049a41.539,41.539,0,0,0-5.24,3.811c-1.083.953-2.3,2.079-2.035,3.638.65,4.114,5.586,3.2,8.271,2.165.78-.3.433-1.559-.346-1.256a10.287,10.287,0,0,1-3.724.953c-2.035-.087-3.854-2.035-2.122-3.811a30.936,30.936,0,0,1,5.846-4.417c.693-.433.043-1.559-.65-1.083Z" transform="translate(-661.318 -834.934)" fill="#161616"/>
        </g>
      </g>
      <path id="Path_77" data-name="Path 77" d="M786.554,583.5a66.36,66.36,0,0,0-8.185,3.421,52.251,52.251,0,0,0-15.417,11.389A127.44,127.44,0,0,0,750,613.12a101.1,101.1,0,0,0-14.94,27.022A85.674,85.674,0,0,0,731.6,652.7a22.18,22.18,0,0,1,6.236-2.468c9.744-2.209,19.1,2.728,27.975,7.362,3.334,1.732,5.976,3.421,7.795,4.59.953-4.677,1.905-9.4,2.858-14.074.823-3.941,1.6-7.925,2.425-11.865a53.578,53.578,0,0,0,4.807-4.764c3.508-3.984,10.48-11.909,11.432-22.908C796.3,595.885,788.762,586.185,786.554,583.5Z" transform="translate(-674.914 -583.5)" fill="#2b7481"/>
      <g id="Group_152" data-name="Group 152" transform="translate(66.678 0.51)">
        <g id="Group_151" data-name="Group 151">
          <path id="Path_78" data-name="Path 78" d="M797.081,584.688c-4.634.693-8.618,3.161-12.212,6.019a109,109,0,0,0-11.692,10.653,125.307,125.307,0,0,0-18.4,24.467.65.65,0,0,0,1.126.65,122.666,122.666,0,0,1,17.668-23.688,132.7,132.7,0,0,1,10.523-9.83c3.941-3.248,8.141-6.279,13.338-7.059.823-.087.476-1.342-.346-1.213Z" transform="translate(-754.675 -584.678)" fill="#161616"/>
        </g>
      </g>
      <g id="Group_154" data-name="Group 154" transform="translate(97.236 47.608)">
        <g id="Group_153" data-name="Group 153">
          <path id="Path_79" data-name="Path 79" d="M835.268,693.638c-3.2,3.248-6.5,6.409-9.83,9.484-.606.563.3,1.472.909.909,3.334-3.075,6.625-6.236,9.83-9.484.563-.606-.346-1.516-.909-.909Z" transform="translate(-825.238 -693.438)" fill="#161616"/>
        </g>
      </g>
      <g id="Group_156" data-name="Group 156" transform="translate(56.399 53.268)">
        <g id="Group_155" data-name="Group 155">
          <path id="Path_80" data-name="Path 80" d="M777.3,706.98c-1.516,8.314-2.988,16.672-4.5,24.987.3-.13.649-.26.953-.39a74.118,74.118,0,0,0-22.692-10.653c-6.366-1.732-14.464-3.421-19.92,1.386-.606.563.3,1.472.909.909,5.543-4.937,14.507-2.338,20.786-.433a73.079,73.079,0,0,1,20.223,9.874.659.659,0,0,0,.953-.39c1.516-8.315,2.988-16.672,4.5-24.987.173-.779-1.083-1.126-1.213-.3Z" transform="translate(-730.938 -706.507)" fill="#161616"/>
        </g>
      </g>
      <g id="Group_158" data-name="Group 158" transform="translate(56.555 40.729)">
        <g id="Group_157" data-name="Group 157">
          <path id="Path_81" data-name="Path 81" d="M741.822,677.876c-4.5,8.791-10.133,17.842-10.523,28.018-.043.823,1.256.823,1.3,0,.39-9.917,5.933-18.751,10.35-27.369.346-.736-.78-1.386-1.126-.65Z" transform="translate(-731.298 -677.552)" fill="#161616"/>
        </g>
      </g>
      <path id="Path_82" data-name="Path 82" d="M739.408,640.5a198.381,198.381,0,0,0-14.42,37.5c-3.594,13.338-4.85,23.861-14.161,32.608a37.743,37.743,0,0,1-12.991,8.1c-14.724,5.326-25.636-1.862-34.9,5.759-1.039.866-4.114,3.031-3.767,5.5.346,2.339,3.551,3.551,4.027,3.767,3.811,1.472,7.751-.043,12.688-2.035,5.586-2.252,4.98-3.031,7.492-3.464,5.283-.909,7.708,2.425,14.724,4.634,2.988.909,11.822,3.681,18.188,0,4.677-2.728,6.106-7.838,8.358-16.456a88.729,88.729,0,0,0,2.9-25.117l5.2,4.027Q736.117,667.912,739.408,640.5Z" transform="translate(-633.831 -615.816)" fill="#3d3d3d" opacity="0.4"/>
      <path id="Path_83" data-name="Path 83" d="M794.278,683.8a116.452,116.452,0,0,0-10.393,27.109c-3.118,12.862-2.122,18.924-6.366,27.975A49.608,49.608,0,0,1,760.5,758.5c2.858.65,9.744,1.862,14.724-2.035,3.508-2.728,4.417-6.626,5.76-12.991,1.689-7.838,3.464-16.759,5.2-26.546l4.027,2.6C791.593,707.661,792.935,695.709,794.278,683.8Z" transform="translate(-691.299 -640.365)" fill="#3d3d3d" opacity="0.38"/>
    </g>
    <g id="torso" transform="translate(432.934 320.039)">
      <path id="Path_84" data-name="Path 84" d="M831.057,570.6q-2.338,15.265-4.547,30.746Q817.936,661.3,811.7,719.222a11.8,11.8,0,0,0,1.732,5.456,12.054,12.054,0,0,0,3.854,3.768c7.881,5.63,11.822,8.488,15.806,10.393,19.1,9.224,40.23,8.141,40.23,8.141a69.866,69.866,0,0,0,22.865-4.59c.52-.217,4.157-1.905,11.432-5.327,6.582-3.075,7.752-3.681,9.354-5.153,3.811-3.508,5.283-7.838,6.279-10.913a37.635,37.635,0,0,0,1.819-13.424s-.433-10.783-.736-73.748c-.022-6.55,1.551-24.459,1.551-24.459s3.113-19.08,6.417-30.452c-7.015-3.421-13.6-6.582-21.522-10.393-5.456-2.641-10.523-5.067-17.8-5.933a44.856,44.856,0,0,0-6.712-.3,143.581,143.581,0,0,0-24.51,2.512C854.009,566.054,843.529,567.959,831.057,570.6Z" transform="translate(-811.148 -560.927)" fill="#2b7481"/>
      <g id="Group_160" data-name="Group 160" transform="translate(18.755 2.734)">
        <g id="Group_159" data-name="Group 159">
          <path id="Path_85" data-name="Path 85" d="M854.543,573.93c13.424-2.858,26.979-5.153,40.577-6.842.606-.087.953-.866.346-1.213-.173-.087-.346-.217-.563-.3a.65.65,0,0,0-.65,1.126c.173.087.346.217.563.3.13-.39.217-.823.346-1.213-13.728,1.689-27.412,3.984-40.923,6.885-.866.173-.52,1.429.3,1.256Z" transform="translate(-853.735 -565.475)" fill="#161616"/>
        </g>
      </g>
      <g id="Group_162" data-name="Group 162" transform="translate(0 33.41)">
        <g id="Group_161" data-name="Group 161">
          <path id="Path_86" data-name="Path 86" d="M825.961,636.784q-7.145,50.926-12.991,102.026c-.476,4.287-.953,8.531-1.429,12.818-.39,3.724-1.472,7.925-1,11.649.433,3.291,3.031,5.37,5.413,7.362a86.907,86.907,0,0,0,8.185,6.063,81.168,81.168,0,0,0,86.826,1c.693-.433.043-1.559-.65-1.126a80.8,80.8,0,0,1-81.543,1.386,81.987,81.987,0,0,1-8.4-5.456c-2.728-2.035-7.145-4.807-8.271-8.141a12.458,12.458,0,0,1-.087-5.067c.217-2.122.476-4.287.693-6.409.433-3.984.866-7.968,1.342-11.952,1.862-16.239,3.767-32.435,5.846-48.631q3.508-27.607,7.362-55.17c.087-.823-1.169-1.169-1.3-.346Z" transform="translate(-810.425 -636.314)" fill="#161616"/>
        </g>
      </g>
      <g id="Group_164" data-name="Group 164" transform="translate(78.853)">
        <g id="Group_163" data-name="Group 163">
          <path id="Path_87" data-name="Path 87" d="M992.984,560.434c7.622,1.516,14.767,5.023,21.869,8.011,6.972,2.945,14.724,5.326,20.873,9.83.693.476,1.343-.65.65-1.126-6.019-4.417-13.6-6.756-20.4-9.614-7.362-3.075-14.767-6.756-22.648-8.358-.823-.173-1.169,1.083-.346,1.256Z" transform="translate(-992.514 -559.162)" fill="#161616"/>
        </g>
      </g>
      <g id="Group_166" data-name="Group 166" transform="translate(99.454 74.067)">
        <g id="Group_165" data-name="Group 165">
          <path id="Path_88" data-name="Path 88" d="M1053.906,730.85c-.693,18.231-1.386,36.463-.736,54.651.3,8.834,1.689,18.015.043,26.806-1.386,7.232-5.457,14.464-12.688,17.149-.78.3-.433,1.559.346,1.256,11.519-4.287,14.507-17.408,14.334-28.408-.086-7.448-.736-14.9-.909-22.389-.173-7.622-.087-15.2.043-22.822.173-8.748.52-17.495.823-26.243.086-.866-1.213-.866-1.256,0Z" transform="translate(-1040.085 -730.2)" fill="#161616"/>
        </g>
      </g>
      <path id="Path_89" data-name="Path 89" d="M935.478,700.659a95.116,95.116,0,0,1-11.432,25.073c-24.814,38.151-70.24,45.773-81.846,47.375q23.385,2.468,47.289,5.326,26.372,3.118,52.052,6.539c-1.083-19.357-1.083-35.293-.823-46.682.476-23.558,2.165-42.612-.909-43.218C939.073,694.9,937.774,695.722,935.478,700.659Z" transform="translate(-828.44 -636.205)" fill="#3d3d3d" opacity="0.38"/>
      <path id="Path_90" data-name="Path 90" d="M973.4,740.7a180.307,180.307,0,0,1-7.448,18.578c-4.937,10.61-9.657,20.83-15.763,27.109-17.062,17.538-50.407,9.96-50.493,11.173-.043.693,12.169,2.642,73.835,8.314Q973.534,773.265,973.4,740.7Z" transform="translate(-861.04 -662.086)" fill="#3d3d3d" opacity="0.42"/>
    </g>
    <g id="table" transform="translate(144.6 431.998)">
      <path id="Path_91" data-name="Path 91" d="M625.028,962.9Q386.636,931.072,148.2,899.286q70.349-40.793,140.74-81.586,215.073,21.176,430.189,42.4Q672.036,911.476,625.028,962.9Z" transform="translate(-146.641 -817.7)" fill="#fff" stroke="#161616" stroke-miterlimit="10" stroke-width="3"/>
      <path id="Path_92" data-name="Path 92" d="M144.6,1014.6q238.977,31.7,477.911,63.4" transform="translate(-144.6 -929.333)" fill="none" stroke="#161616" stroke-miterlimit="10" stroke-width="16"/>
      <path id="Path_93" data-name="Path 93" d="M1241.2,1024.523q50.082-52.94,100.12-105.923" transform="translate(-766.32 -874.906)" fill="none" stroke="#161616" stroke-miterlimit="10" stroke-width="16"/>
      <g id="Group_168" data-name="Group 168" transform="translate(373.719 56.708)">
        <g id="Group_167" data-name="Group 167">
          <path id="Path_94" data-name="Path 94" d="M1055.58,948.8q-24.359,19.032-47.765,39.191c-.65.563.3,1.472.909.909q23.45-20.137,47.765-39.191c.649-.476-.26-1.429-.909-.909Z" transform="translate(-1007.597 -948.652)" fill="#161616"/>
        </g>
      </g>
      <g id="Group_170" data-name="Group 170" transform="translate(374.069 95.505)">
        <g id="Group_169" data-name="Group 169">
          <path id="Path_95" data-name="Path 95" d="M1008.88,1039.48c5.11,1.083,10.307,1.083,15.546,1.126a62.874,62.874,0,0,1,17.062,2.339c10.566,3.075,20.916,5.11,31.959,4.85a.65.65,0,0,0,0-1.3,92.983,92.983,0,0,1-16.976-1.126,146.512,146.512,0,0,1-15.46-3.854,58.551,58.551,0,0,0-15.027-2.122c-5.63-.13-11.259.043-16.8-1.126a.625.625,0,0,0-.3,1.213Z" transform="translate(-1008.407 -1038.242)" fill="#161616"/>
        </g>
      </g>
      <g id="Group_172" data-name="Group 172" transform="translate(422.037 56.509)">
        <g id="Group_171" data-name="Group 171">
          <path id="Path_96" data-name="Path 96" d="M1119.792,949.494a326.066,326.066,0,0,1,50.883,8.185.651.651,0,0,0,.346-1.256,324.6,324.6,0,0,0-51.229-8.228c-.823-.087-.823,1.213,0,1.3Z" transform="translate(-1119.175 -948.19)" fill="#161616"/>
        </g>
      </g>
      <g id="Group_174" data-name="Group 174" transform="translate(438.997 65.73)">
        <g id="Group_173" data-name="Group 173">
          <path id="Path_97" data-name="Path 97" d="M1159.448,1008.032c12.082-11.952,23.688-24.424,34.687-37.415.52-.649-.39-1.559-.909-.909-11,12.948-22.6,25.42-34.687,37.415a.643.643,0,1,0,.909.909Z" transform="translate(-1158.339 -969.484)" fill="#161616"/>
        </g>
      </g>
      <g id="Group_176" data-name="Group 176" transform="translate(389.039 89.622)">
        <g id="Group_175" data-name="Group 175">
          <path id="Path_98" data-name="Path 98" d="M1043.592,1026.623a90.587,90.587,0,0,1,43.954,5.5c.78.3,1.126-.953.346-1.256a91.994,91.994,0,0,0-44.3-5.543c-.823.087-.823,1.386,0,1.3Z" transform="translate(-1042.975 -1024.656)" fill="#161616"/>
        </g>
      </g>
      <g id="Group_178" data-name="Group 178" transform="translate(411.584 85.526)">
        <g id="Group_177" data-name="Group 177">
          <path id="Path_99" data-name="Path 99" d="M1095.671,1016.5a174.975,174.975,0,0,1,27.2,4.244.652.652,0,0,0,.346-1.256,173.537,173.537,0,0,0-27.542-4.287c-.866-.043-.823,1.256,0,1.3Z" transform="translate(-1095.037 -1015.198)" fill="#161616"/>
        </g>
      </g>
      <g id="Group_180" data-name="Group 180" transform="translate(404.715 75.956)">
        <g id="Group_179" data-name="Group 179">
          <path id="Path_100" data-name="Path 100" d="M1079.792,994.4a167.084,167.084,0,0,1,40.836,5.976.652.652,0,0,0,.346-1.256,169.607,169.607,0,0,0-41.183-6.019.65.65,0,0,0,0,1.3Z" transform="translate(-1079.175 -993.1)" fill="#161616"/>
        </g>
      </g>
      <g id="Group_182" data-name="Group 182" transform="translate(422.011 72.006)">
        <g id="Group_181" data-name="Group 181">
          <path id="Path_101" data-name="Path 101" d="M1119.584,985.244c7.448,1.039,14.81,2.339,22.172,3.9.823.173,1.169-1.083.347-1.256-7.362-1.559-14.724-2.858-22.172-3.9-.823-.13-1.169,1.126-.346,1.256Z" transform="translate(-1119.114 -983.978)" fill="#161616"/>
        </g>
      </g>
      <g id="Group_184" data-name="Group 184" transform="translate(404.94 102.033)">
        <g id="Group_183" data-name="Group 183">
          <path id="Path_102" data-name="Path 102" d="M1087.752,1053.612c-2.642,4.071-5.283,8.141-7.968,12.169a.671.671,0,0,0,.563,1,182.276,182.276,0,0,1,63.875,4.071.651.651,0,0,0,.346-1.256,184.27,184.27,0,0,0-64.221-4.157c.173.346.39.649.563,1,2.642-4.071,5.283-8.141,7.968-12.169.476-.693-.65-1.343-1.126-.65Z" transform="translate(-1079.695 -1053.316)" fill="#161616"/>
        </g>
      </g>
      <g id="Group_186" data-name="Group 186" transform="translate(464.741 75.913)">
        <g id="Group_185" data-name="Group 185">
          <path id="Path_103" data-name="Path 103" d="M1218.4,994.819l25.03-.52a10.031,10.031,0,0,1-.606-.823q-8.639,20.591-17.322,41.14c-.3.779.953,1.126,1.256.346q8.639-20.591,17.322-41.14c.173-.39-.26-.823-.606-.823l-25.03.52c-.866.043-.866,1.343-.043,1.3Z" transform="translate(-1217.787 -993)" fill="#161616"/>
        </g>
      </g>
      <g id="Group_188" data-name="Group 188" transform="translate(432.88 108.274)">
        <g id="Group_187" data-name="Group 187">
          <path id="Path_104" data-name="Path 104" d="M1145.031,1069.448a24.588,24.588,0,0,1,6.669-.346c.823.043.823-1.256,0-1.3a27.2,27.2,0,0,0-7.015.39c-.823.13-.476,1.386.346,1.256Z" transform="translate(-1144.214 -1067.729)" fill="#161616"/>
        </g>
      </g>
      <g id="Group_190" data-name="Group 190" transform="translate(445.378 108.824)">
        <g id="Group_189" data-name="Group 189">
          <path id="Path_105" data-name="Path 105" d="M1173.692,1070.3a178.771,178.771,0,0,1,20.353,1.949c.823.13,1.169-1.126.346-1.256a174.422,174.422,0,0,0-20.7-1.992c-.823-.043-.823,1.256,0,1.3Z" transform="translate(-1173.075 -1068.998)" fill="#161616"/>
        </g>
      </g>
      <g id="Group_192" data-name="Group 192" transform="translate(445.768 100.683)">
        <g id="Group_191" data-name="Group 191">
          <path id="Path_106" data-name="Path 106" d="M1174.592,1051.5h4.85a.65.65,0,0,0,0-1.3h-4.85a.65.65,0,0,0,0,1.3Z" transform="translate(-1173.975 -1050.2)" fill="#161616"/>
        </g>
      </g>
      <g id="Group_194" data-name="Group 194" transform="translate(455.858 100.554)">
        <g id="Group_193" data-name="Group 193">
          <path id="Path_107" data-name="Path 107" d="M1197.892,1051.2a115.417,115.417,0,0,1,15.893,1.516c.823.13,1.169-1.126.346-1.256a127.23,127.23,0,0,0-16.239-1.559.65.65,0,0,0,0,1.3Z" transform="translate(-1197.275 -1049.9)" fill="#161616"/>
        </g>
      </g>
      <g id="Group_196" data-name="Group 196" transform="translate(455.035 93.147)">
        <g id="Group_195" data-name="Group 195">
          <path id="Path_108" data-name="Path 108" d="M1195.992,1034.1a180.458,180.458,0,0,1,18.1,1.126c.823.087.823-1.212,0-1.3a168.583,168.583,0,0,0-18.1-1.126c-.823-.043-.823,1.256,0,1.3Z" transform="translate(-1195.375 -1032.797)" fill="#161616"/>
        </g>
      </g>
      <g id="Group_198" data-name="Group 198" transform="translate(414.372 106.591)">
        <g id="Group_197" data-name="Group 197">
          <path id="Path_109" data-name="Path 109" d="M1102.092,1066.076a32.293,32.293,0,0,0,8.618-.953.651.651,0,0,0-.347-1.256,29.573,29.573,0,0,1-8.271.909.65.65,0,0,0,0,1.3Z" transform="translate(-1101.475 -1063.842)" fill="#161616"/>
        </g>
      </g>
      <g id="Group_200" data-name="Group 200" transform="translate(433.905 40.725)">
        <g id="Group_199" data-name="Group 199">
          <path id="Path_110" data-name="Path 110" d="M1148.235,911.984c-1.126,1.386-2.425,4.2-1.083,5.89.823,1.039,2.382.823,3.551.866,2.122.087,4.244.217,6.366.3,8.618.39,17.192.823,25.81,1.213.823.043.823-1.256,0-1.3l-19.054-.909c-3.118-.13-6.193-.3-9.311-.433-1.516-.087-3.118,0-4.634-.216-1.126-.173-1.949-.217-1.905-1.6a5.069,5.069,0,0,1,1.169-2.9c.52-.649-.39-1.6-.909-.909Z" transform="translate(-1146.582 -911.742)" fill="#161616"/>
        </g>
      </g>
      <g id="Group_202" data-name="Group 202" transform="translate(436.111 41.269)">
        <g id="Group_201" data-name="Group 201">
          <path id="Path_111" data-name="Path 111" d="M1152.292,914.342c7.275.26,14.55.476,21.825.736,3.551.13,7.145.217,10.7.346,3.2.13,6.582.346,8.877,2.815.563.606,1.472-.3.909-.909a10.327,10.327,0,0,0-6.582-2.988c-3.724-.476-7.578-.39-11.346-.52-8.141-.26-16.282-.563-24.38-.823-.823.043-.823,1.342,0,1.342Z" transform="translate(-1151.675 -913)" fill="#161616"/>
        </g>
      </g>
      <g id="Group_204" data-name="Group 204" transform="translate(469.12 45.052)">
        <g id="Group_203" data-name="Group 203">
          <path id="Path_112" data-name="Path 112" d="M1228.55,925.963a14.944,14.944,0,0,0,9.181-2.988c.65-.476,0-1.6-.65-1.126a13.741,13.741,0,0,1-8.531,2.815.65.65,0,0,0,0,1.3Z" transform="translate(-1227.9 -921.734)" fill="#161616"/>
        </g>
      </g>
      <g id="Group_206" data-name="Group 206" transform="translate(468.577 42.497)">
        <g id="Group_205" data-name="Group 205">
          <path id="Path_113" data-name="Path 113" d="M1228.877,915.949a5,5,0,0,0-2.035,5.543.652.652,0,0,0,1.256-.346,3.722,3.722,0,0,1,1.429-4.114c.693-.433.043-1.559-.65-1.083Z" transform="translate(-1226.645 -915.834)" fill="#161616"/>
        </g>
      </g>
    </g>
    <g id="laptop" transform="translate(257.582 378.733)">
      <path id="Path_114" data-name="Path 114" d="M616.846,933.793,459,906.771q47.938-19.357,95.877-38.671,74.961,16.694,149.878,33.388Q660.843,917.662,616.846,933.793Z" transform="translate(-435.832 -793.01)" fill="#fff" stroke="#161616" stroke-miterlimit="10" stroke-width="3"/>
      <g id="Group_208" data-name="Group 208" transform="translate(178.785 140.296)">
        <g id="Group_207" data-name="Group 207">
          <path id="Path_115" data-name="Path 115" d="M818.417,1019.811c.173.52.3,1.083.476,1.6a.642.642,0,0,0,1.256-.173v-1.256a.65.65,0,0,0-1.3,0,3.453,3.453,0,0,1-.3,1.472H819.8a3.182,3.182,0,0,1-.087-1.689,10.873,10.873,0,0,0-1.169.173.229.229,0,0,1,.043.346,10.9,10.9,0,0,1,1.169.173.928.928,0,0,1,.13-.823c-.39-.13-.823-.217-1.213-.346-.087.693-.173,1.342-.26,2.035-.043.346.346.65.65.65a.666.666,0,0,0,.65-.65c.087-.693.173-1.342.26-2.035.087-.65-.909-.823-1.213-.346a2.335,2.335,0,0,0-.26,1.862.652.652,0,0,0,1.169.173,1.364,1.364,0,0,0-.043-1.646c-.3-.39-1.083-.433-1.169.173a4.935,4.935,0,0,0,.087,2.382.661.661,0,0,0,1.256,0,5.408,5.408,0,0,0,.346-1.819h-1.3v1.256c.433-.043.866-.13,1.256-.173-.173-.52-.3-1.083-.476-1.6a.622.622,0,1,0-1.213.26Z" transform="translate(-818.353 -1018.674)" fill="#161616"/>
        </g>
      </g>
      <g id="Group_210" data-name="Group 210" transform="translate(178.857 111.041)">
        <g id="Group_209" data-name="Group 209">
          <path id="Path_116" data-name="Path 116" d="M819.507,984.629c6.972-3.594,14.594-5.5,22.085-7.622a93.439,93.439,0,0,0,10.826-3.638c3.378-1.386,6.626-3.118,9.96-4.677,7.405-3.464,15.417-5.716,23.168-8.271,8.055-2.685,16.066-5.37,24.121-8.011.78-.26.433-1.516-.346-1.256-8.055,2.685-16.066,5.37-24.121,8.011-7.621,2.512-15.46,4.764-22.778,8.1-3.811,1.732-7.535,3.767-11.432,5.283-3.551,1.386-7.188,2.468-10.87,3.508-7.232,2.079-14.55,3.984-21.306,7.448-.693.39-.043,1.516.693,1.126Z" transform="translate(-818.519 -951.119)" fill="#161616"/>
        </g>
      </g>
      <g id="Group_212" data-name="Group 212" transform="translate(178.081 108.925)">
        <g id="Group_211" data-name="Group 211">
          <path id="Path_117" data-name="Path 117" d="M819.1,981.6q44.885-15.525,89.6-31.483c2.339-.823,1.343-4.59-1.039-3.767q-44.691,15.98-89.6,31.483c-2.339.823-1.343,4.59,1.039,3.768Z" transform="translate(-816.728 -946.23)" fill="#161616"/>
        </g>
      </g>
      <g id="Group_214" data-name="Group 214" transform="translate(176.456 101.159)">
        <g id="Group_213" data-name="Group 213">
          <path id="Path_118" data-name="Path 118" d="M813.592,929.6c5.63.563,10.436,3.984,15.979,5.067.823.173,1.169-1.083.346-1.256-5.63-1.126-10.523-4.547-16.326-5.11-.823-.043-.823,1.256,0,1.3Z" transform="translate(-812.975 -928.298)" fill="#161616"/>
        </g>
      </g>
      <g id="Group_216" data-name="Group 216" transform="translate(192.469 99.164)">
        <g id="Group_215" data-name="Group 215" transform="translate(0)">
          <path id="Path_119" data-name="Path 119" d="M850.926,931.446a50.194,50.194,0,0,0,9.527-6.669c.606-.563-.3-1.472-.909-.909a48.663,48.663,0,0,1-9.267,6.452.65.65,0,0,0,.65,1.126Z" transform="translate(-849.952 -923.691)" fill="#161616"/>
        </g>
      </g>
      <g id="Group_218" data-name="Group 218" transform="translate(177.47 93.224)">
        <g id="Group_217" data-name="Group 217">
          <path id="Path_120" data-name="Path 120" d="M816.262,916.741c2.728-1.949,5.543-3.811,8.444-5.543.736-.433.043-1.559-.65-1.126-2.9,1.732-5.716,3.551-8.444,5.543-.693.52-.043,1.646.65,1.126Z" transform="translate(-815.316 -909.975)" fill="#161616"/>
        </g>
      </g>
      <g id="Group_220" data-name="Group 220" transform="translate(186.637 93.373)">
        <g id="Group_219" data-name="Group 219">
          <path id="Path_121" data-name="Path 121" d="M836.925,911.61c4.937,1.862,9.874,3.681,14.854,5.543.779.3,1.126-.953.346-1.256-4.937-1.862-9.874-3.681-14.854-5.543-.779-.26-1.126,1-.346,1.256Z" transform="translate(-836.485 -910.319)" fill="#161616"/>
        </g>
      </g>
      <g id="Group_222" data-name="Group 222" transform="translate(172.705 106.105)">
        <g id="Group_221" data-name="Group 221">
          <path id="Path_122" data-name="Path 122" d="M804.784,941.01q19.552,6.041,38.5,13.9c.78.3,1.126-.953.346-1.256q-18.9-7.86-38.5-13.9a.651.651,0,0,0-.346,1.256Z" transform="translate(-804.314 -939.719)" fill="#161616"/>
        </g>
      </g>
      <g id="Group_224" data-name="Group 224" transform="translate(174.108 116.294)">
        <g id="Group_223" data-name="Group 223">
          <path id="Path_123" data-name="Path 123" d="M807.876,964.44c8.1,3.9,16.283,7.578,24.554,11.173.779.346,1.429-.78.65-1.126q-12.407-5.327-24.554-11.173c-.736-.346-1.386.779-.65,1.126Z" transform="translate(-807.552 -963.249)" fill="#161616"/>
        </g>
      </g>
      <g id="Group_226" data-name="Group 226" transform="translate(175.277 127.408)">
        <g id="Group_225" data-name="Group 225">
          <path id="Path_124" data-name="Path 124" d="M810.576,990.12c4.417,2.252,8.834,4.547,13.251,6.8.736.39,1.386-.736.65-1.126-4.417-2.252-8.834-4.547-13.251-6.8-.736-.39-1.386.736-.65,1.126Z" transform="translate(-810.252 -988.913)" fill="#161616"/>
        </g>
      </g>
      <g id="Group_228" data-name="Group 228" transform="translate(176.98 113.387)">
        <g id="Group_227" data-name="Group 227">
          <path id="Path_125" data-name="Path 125" d="M815.317,972.152A199.478,199.478,0,0,1,834.5,957.775c.693-.476.043-1.6-.65-1.126a205.136,205.136,0,0,0-19.444,14.594c-.65.563.26,1.472.909.909Z" transform="translate(-814.184 -956.534)" fill="#161616"/>
        </g>
      </g>
      <g id="Group_230" data-name="Group 230" transform="translate(175.591 111.568)">
        <g id="Group_229" data-name="Group 229">
          <path id="Path_126" data-name="Path 126" d="M811.9,960.894c3.464-2.425,6.929-4.85,10.393-7.318.693-.476.043-1.6-.65-1.126-3.464,2.425-6.929,4.85-10.393,7.318-.65.476,0,1.6.65,1.126Z" transform="translate(-810.979 -952.334)" fill="#161616"/>
        </g>
      </g>
      <path id="Path_127" data-name="Path 127" d="M584.175,838.472l-163.3-27.8Q413.208,752.664,405.5,694.7q87.887,11.822,175.731,23.688Q582.725,778.408,584.175,838.472Z" transform="translate(-405.5 -694.7)" fill="#fff" stroke="#161616" stroke-miterlimit="10" stroke-width="3"/>
      <g id="Group_232" data-name="Group 232" transform="translate(72.635 51.8)">
        <g id="Group_231" data-name="Group 231">
          <path id="Path_128" data-name="Path 128" d="M582.267,839.383c-4.72-1.472-7.275-5.456-7.665-10.263-.39-4.893.563-9.614,5.11-12.169a11.322,11.322,0,0,1,12.429,1.126c3.594,2.728,6.8,8.314,3.9,12.6-.476.693.65,1.342,1.126.65,3.118-4.59.173-10.653-3.638-13.814a12.805,12.805,0,0,0-13.9-1.949c-5.37,2.642-6.755,8.011-6.323,13.6.433,5.413,3.291,9.873,8.618,11.519.779.217,1.126-1.039.346-1.3Z" transform="translate(-573.229 -814.317)" fill="#161616"/>
        </g>
      </g>
      <g id="Group_234" data-name="Group 234" transform="translate(80.435 64.609)">
        <g id="Group_233" data-name="Group 233">
          <path id="Path_129" data-name="Path 129" d="M593.692,856.629a7.41,7.41,0,0,1,12.082-8.574c.52.65,1.429-.26.909-.909a8.695,8.695,0,0,0-14.117,10.133c.433.693,1.559.043,1.126-.65Z" transform="translate(-591.241 -843.896)" fill="#161616"/>
        </g>
      </g>
      <g id="Group_236" data-name="Group 236" transform="translate(84.762 69.569)">
        <g id="Group_235" data-name="Group 235">
          <path id="Path_130" data-name="Path 130" d="M603.818,864.942c-2.035-2.165-1.732-6.193,1-7.751,2.685-1.559,6.323.216,7.189,3.075.26.78,1.516.476,1.256-.346-1.126-3.638-5.673-5.8-9.094-3.811s-3.854,7.015-1.256,9.787c.563.563,1.472-.346.909-.953Z" transform="translate(-601.235 -855.35)" fill="#161616"/>
        </g>
      </g>
      <g id="Group_238" data-name="Group 238" transform="translate(88.639 75.84)">
        <g id="Group_237" data-name="Group 237">
          <path id="Path_131" data-name="Path 131" d="M612.228,876.184a3.51,3.51,0,0,0,4.287-1.992,3.3,3.3,0,0,0-5.889-2.858,3.568,3.568,0,0,0,.779,4.417c.649.52,1.559-.39.909-.909-1.732-1.342-.52-4.5,1.776-3.551A1.9,1.9,0,0,1,615.3,873.8a2.2,2.2,0,0,1-2.728,1.169c-.779-.3-1.126.953-.346,1.213Z" transform="translate(-610.188 -869.832)" fill="#161616"/>
        </g>
      </g>
      <line id="Line_1" data-name="Line 1" x2="3.811" y2="119.305" transform="translate(175.731 23.644)" fill="none" stroke="#161616" stroke-miterlimit="10" stroke-width="3"/>
      <path id="Path_132" data-name="Path 132" d="M811.9,749.1q1.754,58.851,3.508,117.7" transform="translate(-635.91 -725.542)" fill="none" stroke="#161616" stroke-miterlimit="10" stroke-width="3"/>
      <path id="Path_133" data-name="Path 133" d="M565.266,730.7c2.815,1.472,26.979,14.637,28.668,38.022.953,12.9-5.37,22.692-9.354,28.668-21.479,32.305-63.961,38.021-75.48,39.234,16.759,11.129,75.307,47.808,139.311,45.643,14.247-.476,36.333-1.472,60.28-14.637a119.911,119.911,0,0,0,36.289-31.006c-4.114-2.555-8.185-5.067-12.3-7.622q-45.34,15.525-90.723,31.006-2.338-60.021-4.677-120Q601.231,735.464,565.266,730.7Z" transform="translate(-464.236 -715.11)" fill="#3d3d3d" opacity="0.37"/>
      <path id="Path_134" data-name="Path 134" d="M559.3,935.253a184.906,184.906,0,0,0,25.593,14.161c14.031,6.409,55.56,25.377,100.554,14.854,32.7-7.665,57.985-28.668,56.339-32.132-1.039-2.165-13.728.086-70.24,22.562q-1.364-27.477-2.685-55c-1.559,15.417-3.161,30.833-4.72,46.206Q611.721,940.645,559.3,935.253Z" transform="translate(-492.697 -810.925)" fill="#3d3d3d" opacity="0.5"/>
    </g>
    <g id="color" transform="translate(332.477 433.334)">
      <path id="Path_135" data-name="Path 135" d="M581.806,841.146a12.38,12.38,0,0,1-2.642-12.558c1.6-4.287,5.846-7.968,10.913-7.795a11.09,11.09,0,0,1,9.354,6.236,9.706,9.706,0,0,1,.736,4.331,7.3,7.3,0,0,1-.823,2.641,8.963,8.963,0,0,0-8.748-2.988,9.113,9.113,0,0,0-5.76,4.547,8.643,8.643,0,0,0,0,7.405C583.8,842.315,582.8,841.708,581.806,841.146Z" transform="translate(-578.449 -820.786)" fill="#1bff00"/>
    </g>
    <g id="hand_L" transform="translate(484.282 335.472)">
      <path id="Path_136" data-name="Path 136" d="M999.673,740.662a34.76,34.76,0,0,0-7.145,7.145c-8.531,11.476-7.362,24.944-6.755,29.317a83.092,83.092,0,0,0-35.337.39A82.047,82.047,0,0,0,929,785.786a12.4,12.4,0,0,0,3.378,1.516c8.1,2.209,16.629-4.59,16.889-4.114.26.433-9.527,5.023-9.007,9.007.346,2.685,5.153,4.114,10.133,5.63,4.2,1.256,8.185,2.468,13.511,1.862a27.661,27.661,0,0,0,14.637-6.409,63.184,63.184,0,0,0,9.4,3.767c7.405,2.252,17.625,5.37,24.424,1.126,4.417-2.771,5.76-9.267,8.271-22.172,3.2-16.542,4.807-24.814.39-30.053C1015.177,738.973,1003.441,740.143,999.673,740.662Z" transform="translate(-929 -677.264)" fill="#fff" stroke="#161616" stroke-miterlimit="10" stroke-width="3"/>
      <g id="Group_240" data-name="Group 240" transform="translate(54.861 99.003)">
        <g id="Group_239" data-name="Group 239">
          <path id="Path_137" data-name="Path 137" d="M1056.125,824.71a25.14,25.14,0,0,1,12.558,10.22c.433.693,1.559.043,1.126-.65a26.684,26.684,0,0,0-13.338-10.826c-.779-.26-1.126,1-.346,1.256Z" transform="translate(-1055.685 -823.419)" fill="#161616"/>
        </g>
      </g>
      <g id="Group_242" data-name="Group 242" transform="translate(16.236 108.859)">
        <g id="Group_241" data-name="Group 241">
          <path id="Path_138" data-name="Path 138" d="M977.711,846.188a14.457,14.457,0,0,0-11.173,9.181c-.3.779.953,1.126,1.256.346a13.186,13.186,0,0,1,10.263-8.271c.823-.13.476-1.386-.347-1.256Z" transform="translate(-966.492 -846.178)" fill="#161616"/>
        </g>
      </g>
      <g id="Group_244" data-name="Group 244" transform="translate(16.689 117.762)">
        <g id="Group_243" data-name="Group 243">
          <path id="Path_139" data-name="Path 139" d="M967.738,867.848a9.864,9.864,0,0,0,9.917,2.3c.779-.26.433-1.516-.346-1.256a8.512,8.512,0,0,1-8.661-1.949.643.643,0,0,0-.909.909Z" transform="translate(-967.538 -866.738)" fill="#161616"/>
        </g>
      </g>
      <g id="Group_246" data-name="Group 246" transform="translate(26.164 113.058)">
        <g id="Group_245" data-name="Group 245">
          <path id="Path_140" data-name="Path 140" d="M996.729,855.972a41.507,41.507,0,0,0-5.24,3.811c-1.083.953-2.3,2.079-2.035,3.638.65,4.114,5.586,3.2,8.271,2.165.78-.3.433-1.559-.346-1.256a10.292,10.292,0,0,1-3.724.953c-2.035-.087-3.854-2.035-2.122-3.811a30.936,30.936,0,0,1,5.846-4.417c.736-.39.087-1.516-.65-1.083Z" transform="translate(-989.418 -855.875)" fill="#161616"/>
        </g>
      </g>
      <path id="Path_141" data-name="Path 141" d="M1066.209,598.5a65.63,65.63,0,0,1,6.5,5.76,56.491,56.491,0,0,1,4.244,4.764,53.251,53.251,0,0,1,6.5,10.783,128.051,128.051,0,0,1,7.535,18.015,102.693,102.693,0,0,1,5.76,30.313,92.1,92.1,0,0,1-.52,13.035,20.541,20.541,0,0,0-5.023-4.244c-8.271-5.067-18.318-3.248-27.8-1.516-3.551.65-6.5,1.429-8.531,1.992.52-4.764,1-9.527,1.516-14.291.433-3.984.823-8.011,1.256-12.039a48.423,48.423,0,0,1-2.988-6.019c-2.035-4.893-6.106-14.507-3.767-25.29C1053.651,607.377,1063.394,600.362,1066.209,598.5Z" transform="translate(-997.701 -596.898)" fill="#2b7481"/>
      <g id="Group_248" data-name="Group 248" transform="translate(69.701 2.749)">
        <g id="Group_247" data-name="Group 247">
          <path id="Path_142" data-name="Path 142" d="M1090.278,602.384c4.33,2.252,7.232,6.149,9.744,10.177a123.313,123.313,0,0,1,7.015,12.862,127.567,127.567,0,0,1,9.4,28.278c.173.823,1.429.476,1.256-.346a125.722,125.722,0,0,0-9.874-29.317,121.414,121.414,0,0,0-7.405-13.338c-2.468-3.811-5.37-7.362-9.44-9.484-.78-.346-1.429.779-.693,1.169Z" transform="translate(-1089.955 -601.149)" fill="#161616"/>
        </g>
      </g>
      <g id="Group_250" data-name="Group 250" transform="translate(56.432 47.024)">
        <g id="Group_249" data-name="Group 249">
          <path id="Path_143" data-name="Path 143" d="M1059.394,704.389c1.992,4.071,4.071,8.055,6.236,12.039.39.736,1.516.087,1.126-.65-2.165-3.984-4.244-7.968-6.236-12.039-.39-.78-1.516-.13-1.126.65Z" transform="translate(-1059.313 -703.387)" fill="#161616"/>
        </g>
      </g>
      <g id="Group_252" data-name="Group 252" transform="translate(56.38 54.851)">
        <g id="Group_251" data-name="Group 251">
          <path id="Path_144" data-name="Path 144" d="M1062.4,722.085q-1.624,12.6-3.2,25.2a.637.637,0,0,0,.823.606,67.525,67.525,0,0,1,22.735-3.2c6.106.216,14.2.779,17.625,6.755a.65.65,0,0,0,1.126-.65c-3.248-5.716-10.35-6.885-16.326-7.275a68.447,68.447,0,0,0-25.463,3.118,9.962,9.962,0,0,0,.823.606q1.624-12.6,3.2-25.2c.087-.78-1.213-.78-1.342.043Z" transform="translate(-1059.194 -721.462)" fill="#161616"/>
        </g>
      </g>
      <g id="Group_254" data-name="Group 254" transform="translate(96.084 53.834)">
        <g id="Group_253" data-name="Group 253">
          <path id="Path_145" data-name="Path 145" d="M1150.888,719.93c1.516,9.527,3.984,19.617,1.429,29.188a.652.652,0,0,0,1.256.346c2.6-9.787.13-20.094-1.429-29.88-.13-.823-1.386-.476-1.256.346Z" transform="translate(-1150.878 -719.114)" fill="#161616"/>
        </g>
      </g>
      <path id="Path_146" data-name="Path 146" d="M1023.925,594.8a166.3,166.3,0,0,1,11.216,26.243,169.342,169.342,0,0,1,8.4,51.186l-13.251.779c1.429,10.263,2.9,20.57,4.33,30.833a44.137,44.137,0,0,0-12.472-4.85,42.466,42.466,0,0,0-15.286-.52c-14.637,2.468-23.471,14.464-25.463,17.322a23.232,23.232,0,0,0,7.622,1.775c9.44.563,16.326-4.893,18.361-6.626a62.488,62.488,0,0,0,16.066,5.586c6.972,1.429,15.113,3.075,19.617-1.256.346-.346,1.126-1.169,2.815-5.37,2.641-6.669,4.027-12.9,5.846-24.207.39-2.512.953-5.89,1.516-9.917l3.291,3.291a52.5,52.5,0,0,0,1.516-8.4c.909-9.224-.866-16.5-2.555-22.432-6.8-23.991-10.87-38.455-24.467-48.934A60.182,60.182,0,0,0,1023.925,594.8Z" transform="translate(-958.708 -594.8)" fill="#3d3d3d" opacity="0.32"/>
      <path id="Path_147" data-name="Path 147" d="M1083.232,663.3a152.915,152.915,0,0,1,3.075,34.774,155.767,155.767,0,0,1-1.906,19.877c-2.555,17.885-3.854,26.806-8.791,30.963-9.354,7.881-26.026,1.905-30.01.39,3.767,2.512,17.322,11.043,30.573,6.323a22.432,22.432,0,0,0,4.374-2.122,45.492,45.492,0,0,0,4.98-12.039,57.21,57.21,0,0,0,1.3-8.141c.476-4.33,1.3-10.653,2.685-18.578,1.256,1.083,2.555,2.165,3.811,3.248a59.925,59.925,0,0,0,1.126-9.744c.39-10.047-1.819-17.668-4.374-26.373A147.366,147.366,0,0,0,1083.232,663.3Z" transform="translate(-995.107 -633.636)" fill="#3d3d3d" opacity="0.29"/>
    </g>
    <g id="head" transform="translate(436.972 208.628)">
      <path id="Path_148" data-name="Path 148" d="M857.6,366.925a145.971,145.971,0,0,0,2.945,18.794,85.889,85.889,0,0,0,3.291,12.082c2.209,5.933,6.409,17.279,17.365,24.684a38.562,38.562,0,0,0,13.165,5.673c1,.087,1.992.216,2.988.3.346,1.819.779,4.5,1.212,7.752,1.039,8.358.52,10.913,2.685,13.165,2.641,2.728,6.842,2.468,7.752,2.382,7.232-.476,10.869-7.665,11.043-8.055a42.535,42.535,0,0,1-3.291-7.752,44.064,44.064,0,0,1-1.775-16.759,50.289,50.289,0,0,1,10.74-11.346c1.429-1.083,2.641-2.555,4.763-3.291,3.031-1.039,4.59,0,6.842-.693,3.724-1.169,5.327-5.976,6.019-7.968,2.641-7.881-.606-15.676-2.685-20.31a53.315,53.315,0,0,0-18.534-22.995c-12.169-8.488-36.506-17.928-52.615-5.673C866.737,349.04,860.415,354.713,857.6,366.925Z" transform="translate(-841.209 -324.093)" fill="#fff"/>
      <path id="Path_149" data-name="Path 149" d="M837.96,362.564c-2.771-.476-9.787-2.122-14.334-8.141-6.929-9.137-3.2-21.912.65-28.668,6.063-10.61,17.105-14.291,30.963-18.924,8.228-2.728,16.066-5.326,26.719-4.893,5.889.26,25.853,1.126,37.805,15.979,7.1,8.791,7.881,18.231,9.44,36.852.736,8.531.173,13.165-1.3,17.582-1.083,3.2-4.59,13.468-14.68,17.582a23.774,23.774,0,0,1-12.861,1.3c2.425-3.594,4.85-7.145,7.319-10.74,1.386.087,6.322.173,10.09-3.248,5.153-4.72,6.063-14.117,2.3-16.629-2.772-1.862-8.271-.043-13.035,4.244a44.066,44.066,0,0,0-2.3-8.791c-5.456-14.68-17.322-22.735-23.125-26.069a42.652,42.652,0,0,1-22.475,14.983,41.917,41.917,0,0,1-22.475-.346Z" transform="translate(-819.751 -301.89)" fill="#1bff00"/>
      <g id="Group_256" data-name="Group 256" transform="translate(16.035 43.341)">
        <g id="Group_255" data-name="Group 255">
          <path id="Path_150" data-name="Path 150" d="M856.788,402.592c1.775,13.381,3.638,27.282,10.177,39.321,5.37,9.873,14.031,18.318,25.16,21.133a.652.652,0,0,0,.346-1.256c-11-2.815-19.487-11.3-24.684-21.133-6.193-11.692-7.968-25.117-9.7-38.065-.13-.823-1.429-.823-1.3,0Z" transform="translate(-856.779 -401.975)" fill="#161616"/>
        </g>
      </g>
      <g id="Group_258" data-name="Group 258" transform="translate(50.731 77.759)">
        <g id="Group_257" data-name="Group 257">
          <path id="Path_151" data-name="Path 151" d="M937.55,508.279c7.838,0,16.066-4.2,22.215-8.7a51.561,51.561,0,0,0,14.9-17.149c.39-.736-.736-1.386-1.126-.65a49.059,49.059,0,0,1-14.42,16.672c-6.019,4.417-13.987,8.531-21.566,8.531a.65.65,0,1,0,0,1.3Z" transform="translate(-936.9 -481.452)" fill="#161616"/>
        </g>
      </g>
      <g id="Group_260" data-name="Group 260" transform="translate(73.331 94.224)">
        <g id="Group_259" data-name="Group 259">
          <path id="Path_152" data-name="Path 152" d="M989.31,520.092a45.838,45.838,0,0,0,4.807,25.333c.39.736,1.516.087,1.126-.649a44.713,44.713,0,0,1-4.634-24.684c.087-.823-1.213-.823-1.3,0Z" transform="translate(-989.089 -519.475)" fill="#161616"/>
        </g>
      </g>
      <g id="Group_262" data-name="Group 262" transform="translate(54.69 103.583)">
        <g id="Group_261" data-name="Group 261">
          <path id="Path_153" data-name="Path 153" d="M946.067,541.871a137.3,137.3,0,0,1,3.464,15.027c.563,3.378.779,7.189,4.547,8.444,5.63,1.905,13.944-1.472,16.109-7.059.3-.779-.953-1.126-1.256-.346-1.213,3.161-4.244,4.893-7.362,5.8-2.6.736-6.539,1.516-8.748-.606-1.3-1.256-1.472-3.248-1.732-4.937-.3-1.776-.606-3.551-.953-5.326-.779-3.811-1.689-7.622-2.771-11.346-.26-.78-1.516-.433-1.3.346Z" transform="translate(-946.042 -541.085)" fill="#161616"/>
        </g>
      </g>
      <g id="Group_264" data-name="Group 264" transform="translate(55.96 95.557)">
        <g id="Group_263" data-name="Group 263">
          <path id="Path_154" data-name="Path 154" d="M949.592,536.734c7.708-1,12.775-6.885,16.5-13.208a.65.65,0,0,0-1.126-.65c-3.421,5.889-8.185,11.649-15.373,12.558-.823.13-.823,1.429,0,1.3Z" transform="translate(-948.975 -522.552)" fill="#161616"/>
        </g>
      </g>
      <g id="Group_266" data-name="Group 266" transform="translate(55.673 96.139)">
        <g id="Group_265" data-name="Group 265">
          <path id="Path_155" data-name="Path 155" d="M948.913,533.079a24.162,24.162,0,0,0,15.46-8.055c.563-.606-.346-1.559-.909-.909a22.725,22.725,0,0,1-14.55,7.665c-.78.087-.823,1.386,0,1.3Z" transform="translate(-948.312 -523.897)" fill="#161616"/>
        </g>
      </g>
      <g id="Group_268" data-name="Group 268" transform="translate(55.674 97.436)">
        <g id="Group_267" data-name="Group 267">
          <path id="Path_156" data-name="Path 156" d="M949.13,533.824a25.308,25.308,0,0,0,12.948-5.846c.65-.563-.3-1.472-.909-.909a23.949,23.949,0,0,1-12.385,5.543c-.823.087-.476,1.342.346,1.213Z" transform="translate(-948.314 -526.891)" fill="#161616"/>
        </g>
      </g>
      <g id="Group_270" data-name="Group 270" transform="translate(56.215 98.053)">
        <g id="Group_269" data-name="Group 269">
          <path id="Path_157" data-name="Path 157" d="M949.578,535.714c.217,1.039.173,3.118,1.473,3.464,1.256.346,3.161-1.126,4.157-1.732a27.972,27.972,0,0,0,8.531-8.185c.476-.693-.65-1.342-1.126-.65a25.82,25.82,0,0,1-5.846,6.236,27.91,27.91,0,0,1-3.378,2.165c-.476.26-1.559,1-2.035.693-.3-.173-.433-2.035-.476-2.339a.674.674,0,0,0-1.3.346Z" transform="translate(-949.562 -528.316)" fill="#161616"/>
        </g>
      </g>
      <g id="Group_272" data-name="Group 272" transform="translate(56.051 99.707)">
        <g id="Group_271" data-name="Group 271">
          <path id="Path_158" data-name="Path 158" d="M949.971,539.091a53.777,53.777,0,0,0,10.523-5.716c.693-.476.043-1.6-.65-1.126a50.88,50.88,0,0,1-10.22,5.586c-.779.3-.433,1.559.346,1.256Z" transform="translate(-949.185 -532.134)" fill="#161616"/>
        </g>
      </g>
      <g id="Group_274" data-name="Group 274" transform="translate(56.701 99.882)">
        <g id="Group_273" data-name="Group 273">
          <path id="Path_159" data-name="Path 159" d="M951.471,540.62a27.142,27.142,0,0,0,10.826-6.972c.563-.606-.346-1.516-.909-.909a26.405,26.405,0,0,1-10.263,6.626c-.779.3-.433,1.559.346,1.256Z" transform="translate(-950.686 -532.538)" fill="#161616"/>
        </g>
      </g>
      <g id="Group_276" data-name="Group 276" transform="translate(57.178 100.684)">
        <g id="Group_275" data-name="Group 275">
          <path id="Path_160" data-name="Path 160" d="M952.789,540.977a28.079,28.079,0,0,0,8.314-5.5c.606-.563-.3-1.472-.909-.909a27.608,27.608,0,0,1-8.055,5.283c-.78.346-.13,1.472.65,1.126Z" transform="translate(-951.788 -534.391)" fill="#161616"/>
        </g>
      </g>
      <g id="Group_278" data-name="Group 278" transform="translate(12.749 44.553)">
        <g id="Group_277" data-name="Group 277">
          <path id="Path_161" data-name="Path 161" d="M859.241,437.09c-7.059-2.512-9.4-11.736-8.7-18.4.736-7.319,7.318-15.287,15.373-11.866,3.854,1.646,5.283,5.889,6.323,9.657a24.854,24.854,0,0,1,.52,12.472c-.909,3.594-3.118,7.015-6.582,8.574a8.252,8.252,0,0,1-9.917-2.3c-.52-.65-1.429.26-.909.909,3.941,5.067,11.346,4.071,15.33-.39,5.067-5.673,4.547-14.291,2.382-21.089-1-3.161-2.3-6.452-5.2-8.271a10.955,10.955,0,0,0-8.531-1.256c-6.582,1.776-10,8.748-10.133,15.113-.13,6.972,2.6,15.59,9.787,18.1.693.26,1.039-1,.26-1.256Z" transform="translate(-849.19 -404.773)" fill="#161616"/>
        </g>
      </g>
      <g id="Group_280" data-name="Group 280" transform="translate(36.822 60.516)">
        <g id="Group_279" data-name="Group 279">
          <path id="Path_162" data-name="Path 162" d="M905.742,445.041a14.264,14.264,0,0,1,13.814-.606c.736.39,1.386-.736.65-1.126a15.613,15.613,0,0,0-15.157.606c-.65.433,0,1.559.693,1.126Z" transform="translate(-904.781 -441.635)" fill="#161616"/>
        </g>
      </g>
      <g id="Group_282" data-name="Group 282" transform="translate(51.38 42.352)">
        <g id="Group_281" data-name="Group 281">
          <path id="Path_163" data-name="Path 163" d="M945.5,430.484a18.911,18.911,0,0,1-5.023-18.621c1.992-6.842,8.834-12.732,16.2-10.307,8.141,2.685,8.574,14.334,6.452,21.176-1.256,4.027-3.767,8.055-7.925,9.527s-7.752-.736-11.086-3.075c-.693-.476-1.343.65-.65,1.126,2.728,1.949,5.673,3.9,9.137,3.768a11.629,11.629,0,0,0,8.315-4.417c4.59-5.543,5.5-13.987,3.594-20.743-1.732-6.149-6.842-10.133-13.381-9.051-6.236,1-10.826,6.626-12.212,12.515a20.245,20.245,0,0,0,5.586,19.011c.693.606,1.6-.346,1-.909Z" transform="translate(-938.399 -399.691)" fill="#161616"/>
        </g>
      </g>
      <g id="Group_284" data-name="Group 284" transform="translate(26.307 57.637)">
        <g id="Group_283" data-name="Group 283">
          <path id="Path_164" data-name="Path 164" d="M880.933,436.248a10.942,10.942,0,0,0,1.516,7.708.641.641,0,0,0,1.169-.173c1.039-2.988-.433-5.933-1.905-8.488a.658.658,0,0,0-1.213.346,18.549,18.549,0,0,0,1.386,6.669c.3.779,1.559.433,1.256-.346a17.589,17.589,0,0,1-1.343-6.322c-.39.13-.823.216-1.213.346,1.342,2.3,2.728,4.807,1.775,7.492a10.879,10.879,0,0,0,1.169-.173,9.406,9.406,0,0,1-1.386-6.712c.173-.823-1.083-1.169-1.213-.346Z" transform="translate(-880.5 -434.986)" fill="#161616"/>
        </g>
      </g>
      <g id="Group_286" data-name="Group 286" transform="translate(63.319 54.97)">
        <g id="Group_285" data-name="Group 285">
          <path id="Path_165" data-name="Path 165" d="M967.713,431.544a1.83,1.83,0,0,0-.3-1.169.658.658,0,0,0-1.213.346c.043,2.685.26,5.586,2.339,7.492a.682.682,0,0,0,1.126-.476,11.734,11.734,0,0,0-2.6-8.7c-.433-.52-1.213.043-1.083.65a49.054,49.054,0,0,0,1.949,6.193c.3.779,1.559.433,1.256-.346a39.476,39.476,0,0,1-1.949-6.193c-.346.217-.736.433-1.083.65a10.511,10.511,0,0,1,2.208,7.795c.39-.173.736-.3,1.126-.476-1.862-1.689-1.949-4.244-1.992-6.582-.39.13-.823.217-1.213.346l.13.52c0,.779,1.3.779,1.3-.043Z" transform="translate(-965.967 -428.827)" fill="#161616"/>
        </g>
      </g>
      <g id="Group_288" data-name="Group 288" transform="translate(39.286 65.775)">
        <g id="Group_287" data-name="Group 287">
          <path id="Path_166" data-name="Path 166" d="M913.3,454.221a56.149,56.149,0,0,0-2.079,7.925c-.26,1.429-1.169,4.114-.52,5.543,1.3,2.9,7.059,1.126,9.051.173.736-.346.087-1.472-.649-1.126a9.966,9.966,0,0,1-5.11,1.039c-1.039-.087-1.862-.26-2.079-1.429a13.143,13.143,0,0,1,.433-3.075,60.294,60.294,0,0,1,2.252-8.748c.217-.736-1.039-1.083-1.3-.3Z" transform="translate(-910.47 -453.779)" fill="#161616"/>
        </g>
      </g>
      <g id="Group_290" data-name="Group 290" transform="translate(47.848 84.712)">
        <g id="Group_289" data-name="Group 289">
          <path id="Path_167" data-name="Path 167" d="M931.047,504a9.769,9.769,0,0,0,7.492-5.5c.346-.736-.779-1.429-1.126-.65a8.515,8.515,0,0,1-6.712,4.893c-.823.13-.433,1.386.346,1.256Z" transform="translate(-930.242 -497.508)" fill="#161616"/>
        </g>
      </g>
      <g id="Group_292" data-name="Group 292" transform="translate(22.926 53.053)">
        <g id="Group_291" data-name="Group 291">
          <path id="Path_168" data-name="Path 168" d="M873.778,426.522a2.4,2.4,0,0,1,3.378-.3c.65.563,1.559-.39.909-.909a3.732,3.732,0,0,0-5.2.3c-.563.606.346,1.516.91.909Z" transform="translate(-872.691 -424.401)" fill="#161616"/>
        </g>
      </g>
      <g id="Group_294" data-name="Group 294" transform="translate(60.021 50.584)">
        <g id="Group_293" data-name="Group 293">
          <path id="Path_169" data-name="Path 169" d="M959.5,420.865a3.667,3.667,0,0,1,4.72-.043c.65.52,1.559-.39.909-.909a5.006,5.006,0,0,0-6.582.043c-.606.563.346,1.472.953.909Z" transform="translate(-958.352 -418.7)" fill="#161616"/>
        </g>
      </g>
      <g id="Group_296" data-name="Group 296" transform="translate(77.432 54.524)">
        <g id="Group_295" data-name="Group 295">
          <path id="Path_170" data-name="Path 170" d="M999.355,432a51.411,51.411,0,0,1,14.464-2.9c.823-.043.823-1.342,0-1.3a52.606,52.606,0,0,0-14.81,2.945c-.78.3-.476,1.559.346,1.256Z" transform="translate(-998.557 -427.798)" fill="#161616"/>
        </g>
      </g>
      <path id="Path_171" data-name="Path 171" d="M1010.537,312.9c2.6,3.335,12.6,17.019,10.74,35.813a48.775,48.775,0,0,1-8.1,22.259,31.531,31.531,0,0,1,3.9-2.6c2.642-1.472,4.33-2.382,6.5-2.252a6.043,6.043,0,0,1,3.334,1.083c3.291,2.772,2.165,12.6-3.681,17.192a14,14,0,0,1-8.877,2.728c-2.468,3.508-4.98,7.015-7.448,10.566a23.427,23.427,0,0,0,7.059.043A23.8,23.8,0,0,0,1025,392.841c4.677-3.768,6.582-8.358,7.838-11.476,3.464-8.661,2.771-16.283,1.559-30.01-.52-6.106-.823-9.224-2.035-13.338-1.3-4.46-3.334-11.043-9.137-16.932A33.578,33.578,0,0,0,1010.537,312.9Z" transform="translate(-925.855 -308.132)" fill="#3d3d3d" opacity="0.4"/>
      <path id="Path_172" data-name="Path 172" d="M918.7,364.553a105.635,105.635,0,0,0,13.858-14.94,106.81,106.81,0,0,0,7.318-10.913c-.736,3.9-1.472,7.795-2.165,11.692A36.792,36.792,0,0,1,918.7,364.553Z" transform="translate(-875.85 -322.76)" fill="#3d3d3d" opacity="0.48"/>
      <path id="Path_173" data-name="Path 173" d="M970.462,387a77.159,77.159,0,0,1,3.248,26.2c-.217,4.5-1.429,28.1-13.858,36.246-1.213.779-4.287,2.6-4.157,2.858.173.3,5.933-2.252,9.094-3.984,4.98-2.685,12.645-8.1,19.747-19.53,1.169.13,6.885.52,11-3.421,4.98-4.72,5.846-13.987,1.905-16.716-2.815-1.949-8.185-.3-12.9,3.594a53.415,53.415,0,0,0-1.905-6.279A55.577,55.577,0,0,0,970.462,387Z" transform="translate(-896.822 -350.143)" fill="#3d3d3d" opacity="0.27"/>
      <path id="Path_174" data-name="Path 174" d="M965.7,528.722c1.126,3.464,2.252,6.929,3.378,10.436,1.559,4.763,3.075,9.57,4.59,14.334a9.6,9.6,0,0,0,4.85-2.685,10.552,10.552,0,0,0,2.685-4.85,43.156,43.156,0,0,1-4.374-14.81,41.951,41.951,0,0,1,0-8.748C973.148,524.522,969.424,526.644,965.7,528.722Z" transform="translate(-902.497 -426.909)" fill="#3d3d3d" opacity="0.36"/>
      <path id="Path_175" data-name="Path 175" d="M907.3,458.3c-2.165,4.634-4.331,9.224-6.5,13.858,3.551-.087,7.059-.13,10.61-.217-2.079-.65-4.2-1.3-6.279-1.949C905.823,466.095,906.56,462.2,907.3,458.3Z" transform="translate(-865.702 -390.567)" fill="#3d3d3d" opacity="0.43"/>
    </g>
  </g>
</svg>
