<svg xmlns="http://www.w3.org/2000/svg" width="592.821" height="476.265" viewBox="0 0 592.821 476.265">
  <g id="brainstorming" transform="translate(-119.338 -60.6)">
    <g id="background" transform="translate(119.338 61.1)">
      <g id="Group_301" data-name="Group 301" transform="translate(289.11 244.96)">
        <g id="Group_300" data-name="Group 300">
          <path id="Path_183" data-name="Path 183" d="M821.525,716.352a35.588,35.588,0,0,1-7.109-8.865,32.507,32.507,0,0,1-2.441-5.439,27.229,27.229,0,0,1-.814-2.655,5.235,5.235,0,0,1-.086-2.441c.6-1.37,1.456-1.67,2.612-.9.471.514,1.413-.171,1.028-.771a43.512,43.512,0,0,1-6.766-14.561c-.3-1.2-.557-2.4-.771-3.64a35.932,35.932,0,0,0-.428-3.683c-.642-2.313-2.355-4.668-3.383-6.852-4.882-10.15-8.993-21.241-7.28-32.676a10.74,10.74,0,0,0-1.156.171,128.726,128.726,0,0,1,19.528,36.487.645.645,0,0,0,1.242-.343,19.117,19.117,0,0,1-.6-5.61,9.875,9.875,0,0,1-.814.6,2.559,2.559,0,0,1,2.313,2.313c.128.728,1.242.514,1.242-.171.043-2.27.128-4.582.171-6.852-.385.129-.814.214-1.2.343A143.091,143.091,0,0,1,833.259,695.5a.647.647,0,0,0,1.242,0c.343-.985.685-2.013,1.071-3-.3.128-.642.257-.942.385a14.629,14.629,0,0,1,6.081,12.719c-.043.814,1.242.814,1.285,0a16.009,16.009,0,0,0-6.724-13.833c-.343-.257-.814.043-.942.385-.343.985-.685,2.013-1.071,3H834.5a140.9,140.9,0,0,0-16.573-34.988.65.65,0,0,0-1.2.343c-.043,2.27-.128,4.582-.171,6.852.428-.043.857-.128,1.242-.171a3.77,3.77,0,0,0-3.212-3.212.635.635,0,0,0-.814.6,19.856,19.856,0,0,0,.642,5.953c.428-.128.814-.214,1.242-.343A130.742,130.742,0,0,0,796,633.4c-.3-.385-1.071-.471-1.156.171-1.67,11.135,1.927,21.884,6.552,31.862,1.2,2.612,2.784,5.139,3.811,7.751.942,2.355.857,5.353,1.5,7.837a45.28,45.28,0,0,0,6.895,14.86l1.028-.771a2.722,2.722,0,0,0-4.068.171c-1.713,1.884-.514,5.011.171,7.066a36.761,36.761,0,0,0,9.893,14.86c.6.6,1.5-.3.9-.857Z" transform="translate(-794.429 -633.099)" fill="#e8e8e8"/>
        </g>
      </g>
      <g id="Group_303" data-name="Group 303" transform="translate(174.518 263.639)">
        <g id="Group_302" data-name="Group 302">
          <path id="Path_184" data-name="Path 184" d="M545.586,724.93a26.191,26.191,0,0,1-5.525-5.567c-.6-.814-1.156-1.713-1.67-2.57-.257-.514-.557-.985-.771-1.5-.214-.428-2.056-5.4.471-4.283a.667.667,0,0,0,.9-.9c-.557-1.028-5.31-8.394-2.826-8.993a.652.652,0,0,0,.385-.942,81.726,81.726,0,0,1-8.394-22.826c-.128.257-.3.514-.428.771,3.383-.6,5.053,4.711,6.167,7.066,1.37,2.912,2.741,5.824,4.154,8.694,2.826,5.953,5.61,11.863,8.437,17.815.343.685,1.328.171,1.156-.514a7.693,7.693,0,0,1,.128-3.94,10.008,10.008,0,0,0-1.071.3,22.767,22.767,0,0,1,5.4,6.21.634.634,0,0,0,1.156-.171c1.37-.343,2.27-.043,2.741.942.214.385.428.814.642,1.2.514.942.985,1.884,1.5,2.784.985,1.884,1.97,3.726,2.955,5.61.385.728,1.5.086,1.113-.642-.985-1.884-1.97-3.726-2.955-5.61a25.614,25.614,0,0,0-2.869-5.053c-1.285-1.456-3.555-1.627-4.368.385a10.769,10.769,0,0,0,1.156-.171,24.541,24.541,0,0,0-5.61-6.467.643.643,0,0,0-1.071.3,9.4,9.4,0,0,0-.128,4.625l1.156-.514c-3.383-7.195-6.809-14.432-10.235-21.627-1.542-3.212-2.826-6.852-4.839-9.807-1.242-1.8-2.826-3.169-5.139-2.741a.613.613,0,0,0-.428.771,82.566,82.566,0,0,0,8.522,23.126c.128-.3.257-.642.385-.942-4.582,1.156,1.113,9.122,2.056,10.878l.9-.9a2.272,2.272,0,0,0-2.955.857c-.985,1.542-.086,3.469.6,4.882a28.152,28.152,0,0,0,8.565,10.449c.642.642,1.285-.471.642-.985Z" transform="translate(-526.849 -676.716)" fill="#e8e8e8"/>
        </g>
      </g>
      <g id="Group_305" data-name="Group 305" transform="translate(18.031 118.731)">
        <g id="Group_304" data-name="Group 304">
          <path id="Path_185" data-name="Path 185" d="M162.538,348.86c5.1-5.824,13.1-2.013,18.8.514,5.225,2.313,11.22,4.154,16.445.814,4.968-3.212,7.751-8.779,13.875-10.15,7.366-1.67,14.389,2.056,20.385,5.867.685.428,1.328-.685.642-1.113-5.824-3.683-12.377-7.109-19.486-6.338a15.709,15.709,0,0,0-7.923,3.169c-2.313,1.8-4.2,4.154-6.424,6.081-6.766,5.824-14.09,1.585-21.07-1.285-5.225-2.184-11.991-3.255-16.188,1.542-.514.642.385,1.542.942.9Z" transform="translate(-161.443 -338.344)" fill="#e8e8e8"/>
        </g>
      </g>
      <g id="Group_307" data-name="Group 307" transform="translate(0 202.298)">
        <g id="Group_306" data-name="Group 306">
          <path id="Path_186" data-name="Path 186" d="M120.435,539.827c2.7-2.869,6.724.3,8.779,2.313,1.8,1.756,3.854,3.854,6.509,4.111,2.355.257,4.24-1.028,5.867-2.612,2.313-2.227,4.411-4.2,7.623-5.1a14.123,14.123,0,0,1,9.807.857c2.4,1.2,4.582,3.512,7.452,3.255,2.527-.214,4.026-2.441,5.61-4.111a11.893,11.893,0,0,1,10.107-3.683c6.3.771,11.82,6.21,18.415,4.24a.645.645,0,0,0-.343-1.242c-6.3,1.841-11.82-3.555-17.9-4.283a13.262,13.262,0,0,0-8.18,1.67,13.434,13.434,0,0,0-3.212,2.612c-1.113,1.2-2.184,2.826-3.769,3.383-3.126,1.071-6.552-2.741-9.379-3.683a15.408,15.408,0,0,0-8.008-.428,14.99,14.99,0,0,0-6.895,3.426c-2.7,2.441-5.182,5.953-9.207,3.64-3.726-2.1-9.379-10.449-14.175-5.268-.6.6.3,1.542.9.9Z" transform="translate(-119.338 -533.48)" fill="#e8e8e8"/>
        </g>
      </g>
      <g id="Group_309" data-name="Group 309" transform="translate(47.941 191.839)">
        <g id="Group_308" data-name="Group 308">
          <path id="Path_187" data-name="Path 187" d="M232.4,514.557c2.355-1.884,5.1-3.94,8.18-4.2,2.826-.214,5.1,1.328,7.28,2.912,3,2.141,7.195,4.754,10.792,2.27,1.113-.771,1.927-2.141,3.255-2.527,1.884-.557,3.726.771,5.139,1.8,1.585,1.2,3.126,2.527,5.139,2.869,2.527.428,5.268-.6,7.751-1.156l9.122-2.056c.814-.171.471-1.413-.343-1.242-3.169.728-6.381,1.456-9.55,2.184-3.3.728-6.381,1.841-9.422-.214-2.056-1.37-3.9-3.34-6.509-3.554-2.013-.171-3.126.9-4.5,2.141-5.011,4.5-10.064-2.655-14.646-4.24-4.668-1.67-9.079,1.242-12.591,4.068-.642.557.257,1.456.9.942Z" transform="translate(-231.284 -509.057)" fill="#e8e8e8"/>
        </g>
      </g>
      <g id="Group_311" data-name="Group 311" transform="translate(521.604 160.209)">
        <g id="Group_310" data-name="Group 310">
          <path id="Path_188" data-name="Path 188" d="M1338.552,438.925c1.156-3.726,5.7-2.57,8.18-1.2,2.355,1.285,4.582,3.083,7.366,3.383,2.313.257,4.2-.771,6.167-1.884a12.105,12.105,0,0,1,9.85-1.413c2.227.685,4.111,2.527,6.51,2.7,2.313.214,4.026-1.328,5.867-2.484,4.839-3.041,10.064,1.2,15.246-.086a.644.644,0,0,0-.343-1.242c-5.353,1.328-10.364-3.041-15.546.214a16.984,16.984,0,0,1-3.6,2.141c-2.013.642-3.683-.6-5.4-1.5a13.165,13.165,0,0,0-7.537-1.5c-2.784.3-4.8,1.67-7.237,2.912-4.068,2.056-7.195-.471-10.664-2.355-3.3-1.8-8.651-2.57-10.064,1.97-.257.771.985,1.113,1.2.343Z" transform="translate(-1337.318 -435.199)" fill="#e8e8e8"/>
        </g>
      </g>
      <g id="Group_313" data-name="Group 313" transform="translate(543.368 152.323)">
        <g id="Group_312" data-name="Group 312">
          <path id="Path_189" data-name="Path 189" d="M1389.235,423.043c1.927-1.8,4.026-3.726,6.552-4.582a10.319,10.319,0,0,1,6.981.471c3.6,1.328,7.152,3.64,11.177,3.041,3.683-.557,7.452-4.582,11.263-3.512,1.97.557,3.169,2.141,5.353,2.355a15.858,15.858,0,0,0,6.6-1.242c.771-.257.428-1.5-.343-1.242-2.7.942-5.739,2.013-8.437.471-1.627-.942-2.869-1.927-4.882-1.713-4.411.428-7.623,4.368-12.334,3.64-4.068-.642-7.494-3.469-11.648-3.9-4.539-.471-8.051,2.484-11.177,5.353-.6.514.3,1.413.9.857Z" transform="translate(-1388.138 -416.784)" fill="#e8e8e8"/>
        </g>
      </g>
      <g id="Group_315" data-name="Group 315" transform="translate(127.449 20.353)">
        <g id="Group_314" data-name="Group 314">
          <path id="Path_190" data-name="Path 190" d="M418.208,116.152c.942-3.426,5.4-2.869,7.923-1.8,2.527,1.113,4.925,2.741,7.794,2.784,5.4.128,9.593-5.482,14.989-4.539,2.527.428,4.582,2.313,7.152,2.612,2.869.343,4.539-1.756,6.724-3.212a13.4,13.4,0,0,1,8.865-2.013,12.492,12.492,0,0,1,4.5,1.37c1.285.642,2.355,1.67,3.683,2.27,2.612,1.156,4.325-.428,6.424-1.8,4.111-2.655,8.565.771,11.648,3.469.6.557,1.542-.343.9-.9-2.313-2.056-4.968-4.154-8.094-4.711-3.083-.557-4.711,1.071-7.195,2.484-2.227,1.285-3.811-.128-5.653-1.285a14.138,14.138,0,0,0-3.854-1.713,15.112,15.112,0,0,0-8.051,0,14.138,14.138,0,0,0-3.854,1.713c-1.456.942-2.741,2.527-4.5,2.955-3.126.771-6.038-2.313-9.122-2.612-6.21-.557-10.749,6.3-17.087,4.111-3.126-1.071-5.867-3.383-9.379-3.169-2.313.128-4.454,1.242-5.053,3.6a.65.65,0,1,0,1.242.385Z" transform="translate(-416.941 -108.625)" fill="#e8e8e8"/>
        </g>
      </g>
      <g id="Group_317" data-name="Group 317" transform="translate(187.399 10.15)">
        <g id="Group_316" data-name="Group 316">
          <path id="Path_191" data-name="Path 191" d="M558.029,90.153A9.186,9.186,0,0,1,566.08,88.1c2.484.557,3.94,2.355,6.081,3.512,3.383,1.8,6.252-.428,8.993-2.313,2.013-1.37,4.026-2.4,6.381-1.285,1.927.9,3.469,2.056,5.7,1.97,4.925-.171,10.15-6.3,14.989-2.912.685.471,1.328-.642.642-1.113-4.582-3.212-9.379,1.156-13.747,2.4a6.673,6.673,0,0,1-5.267-.557,12.775,12.775,0,0,0-3.212-1.456A6.714,6.714,0,0,0,581.8,87.37c-1.8,1.028-3.383,2.612-5.353,3.34-3.126,1.156-4.925-1.5-7.323-2.826a10.5,10.5,0,0,0-11.948,1.37c-.685.514.214,1.413.857.9Z" transform="translate(-556.927 -84.8)" fill="#e8e8e8"/>
        </g>
      </g>
      <circle id="Ellipse_1" data-name="Ellipse 1" cx="6.724" cy="6.724" r="6.724" transform="translate(252.482 150.66)" fill="none" stroke="#e8e8e8" stroke-miterlimit="10" stroke-width="1"/>
      <circle id="Ellipse_2" data-name="Ellipse 2" cx="5.482" cy="5.482" r="5.482" transform="translate(40.839 266.374)" fill="none" stroke="#e8e8e8" stroke-miterlimit="10" stroke-width="1"/>
      <circle id="Ellipse_3" data-name="Ellipse 3" cx="4.582" cy="4.582" r="4.582" transform="translate(359.973 0)" fill="none" stroke="#e8e8e8" stroke-miterlimit="10" stroke-width="1"/>
      <circle id="Ellipse_4" data-name="Ellipse 4" cx="2.655" cy="2.655" r="2.655" transform="translate(142.249 66.508)" fill="#5222d0"/>
      <circle id="Ellipse_5" data-name="Ellipse 5" cx="5.824" cy="5.824" r="5.824" transform="translate(253.724 223.248)" fill="#5222d0"/>
      <circle id="Ellipse_6" data-name="Ellipse 6" cx="4.497" cy="4.497" r="4.497" transform="translate(509.862 38.243)" fill="#5222d0"/>
      <circle id="Ellipse_7" data-name="Ellipse 7" cx="3.597" cy="3.597" r="3.597" transform="translate(53.815 264.318)" fill="#5222d0"/>
      <circle id="Ellipse_8" data-name="Ellipse 8" cx="1.927" cy="1.927" r="1.927" transform="translate(356.89 208.688)" fill="#5222d0"/>
      <circle id="Ellipse_9" data-name="Ellipse 9" cx="4.539" cy="4.539" r="4.539" transform="translate(289.697 111.817)" fill="#ec615b"/>
      <circle id="Ellipse_10" data-name="Ellipse 10" cx="3.512" cy="3.512" r="3.512" transform="translate(317.662 28.265)" fill="#ec615b"/>
      <g id="Group_319" data-name="Group 319" transform="translate(311.554 74.828)">
        <g id="Group_318" data-name="Group 318">
          <path id="Path_192" data-name="Path 192" d="M847.935,240.484a3.547,3.547,0,0,1,4.454-.771,16.336,16.336,0,0,0,2.355,1.413,4.973,4.973,0,0,0,3.94-.685c2.4-1.242,3.983-2.441,6.638-.942,1.413.814,2.869,1.627,4.539,1.028,2.227-.814,3.426-2.612,6-2.826a7.511,7.511,0,0,1,4.2.857,13.481,13.481,0,0,0,2.441,1.328c1.5.471,2.484-.171,3.64-1.071a6.97,6.97,0,0,1,8.094-.642.643.643,0,0,0,.642-1.113,8.314,8.314,0,0,0-5.7-1.113,7.615,7.615,0,0,0-2.955,1.156c-1.328.857-2.056,2.141-4.026,1.285-2.013-.9-3.426-1.97-5.739-1.97-2.441,0-4.068,1.028-6.038,2.313-2.869,1.841-4.411-1.071-7.109-1.328-1.8-.171-3.3.857-4.8,1.713-1.456.814-2.7,1.242-4.24.385a9.341,9.341,0,0,0-2.655-1.413,4.99,4.99,0,0,0-4.582,1.542c-.6.514.3,1.456.9.857Z" transform="translate(-846.838 -235.829)" fill="#ec615b"/>
        </g>
      </g>
      <g id="Group_321" data-name="Group 321" transform="translate(334.983 68.668)">
        <g id="Group_320" data-name="Group 320">
          <path id="Path_193" data-name="Path 193" d="M902.426,224.851a6.333,6.333,0,0,1,5.353-1.242c1.285.3,2.184,1.2,3.426,1.67,2.141.771,3.683-.557,5.439-1.627,1.841-1.113,2.869-.9,4.711.086a5.5,5.5,0,0,0,3.3.814c2.4-.171,7.066-3.212,8.565.128.343.771,1.456.086,1.113-.642-.942-2.056-3.383-2.4-5.4-1.97-2.484.557-4.368,1.884-6.938.557-1.242-.642-2.227-1.413-3.683-1.113a8.926,8.926,0,0,0-3.169,1.627,5.124,5.124,0,0,1-2.227,1.071c-1.2.086-2.1-.728-3.126-1.242a7.668,7.668,0,0,0-7.923.771c-.728.514-.086,1.627.557,1.113Z" transform="translate(-901.546 -221.444)" fill="#ec615b"/>
        </g>
      </g>
      <g id="Group_323" data-name="Group 323" transform="translate(42.742 96.233)">
        <g id="Group_322" data-name="Group 322">
          <path id="Path_194" data-name="Path 194" d="M220.11,290.817c2.784-1.756,5.953-.985,8.736.428,2.013,1.028,3.854,3,6.038,3.555,4.5,1.156,5.182-5.353,8.865-6.467,4.283-1.285,7.323,4.325,11.349,1.328,2.27-1.67,4.111-2.7,7.023-2.527a26.876,26.876,0,0,1,7.751,2.013c.771.3,1.113-.942.343-1.242-4.068-1.542-9.036-3.169-13.233-1.156a20.935,20.935,0,0,0-2.741,1.927c-1.756,1.2-2.955.514-4.625-.428a7.816,7.816,0,0,0-5.653-1.285A7.122,7.122,0,0,0,239.51,290a21,21,0,0,1-1.927,2.869c-1.8,1.67-3.6.128-5.139-.942-3.769-2.57-8.736-4.925-13.062-2.227-.6.471.043,1.585.728,1.113Z" transform="translate(-219.145 -285.811)" fill="#ec615b"/>
        </g>
      </g>
    </g>
    <g id="paper" transform="translate(170.284 392.482)">
      <path id="Path_195" data-name="Path 195" d="M238.3,899.652a143.323,143.323,0,0,0,14.775,15.888c16.059,14.946,37.258,27.836,120,53.275,7.366,2.27,17.473,5.31,29.592,8.822,7.623-5.567,19.571-14,34.774-23.34,24.111-14.818,34.432-18.543,47.964-27.365,13.319-8.693,31.434-23.468,48.864-49.42a808.771,808.771,0,0,1-92.588-25.567c-15.931-5.439-31.091-11.177-45.438-17.044Q317.291,867.276,238.3,899.652Z" transform="translate(-238.3 -834.9)" fill="#fff" stroke="#000" stroke-miterlimit="10" stroke-width="3"/>
      <g id="Group_325" data-name="Group 325" transform="translate(133.305 71.197)">
        <g id="Group_324" data-name="Group 324">
          <path id="Path_196" data-name="Path 196" d="M550.785,1011.577a21.918,21.918,0,0,1,10.235-9.25c.771-.343.086-1.456-.642-1.113a23.021,23.021,0,0,0-10.706,9.679.654.654,0,0,0,1.113.685Z" transform="translate(-549.575 -1001.149)"/>
        </g>
      </g>
      <g id="Group_327" data-name="Group 327" transform="translate(133.654 72.992)">
        <g id="Group_326" data-name="Group 326">
          <path id="Path_197" data-name="Path 197" d="M550.567,1014.36c1.456,1.67,3.683,1.071,5.139-.257,1.242-1.113,2.184-2.569,3.3-3.769a42.18,42.18,0,0,1,4.325-3.94c.642-.514-.257-1.413-.9-.9a39.394,39.394,0,0,0-4.8,4.454c-1.285,1.413-4.026,5.824-6.124,3.469-.6-.6-1.5.343-.942.942Z" transform="translate(-550.392 -1005.342)"/>
        </g>
      </g>
      <g id="Group_329" data-name="Group 329" transform="translate(144.401 71.213)">
        <g id="Group_328" data-name="Group 328">
          <path id="Path_198" data-name="Path 198" d="M575.664,1002.263c.514.428,1.071.9,1.584,1.328a.636.636,0,0,0,.9-.9c-.514-.428-1.071-.9-1.585-1.328a.636.636,0,0,0-.9.9Z" transform="translate(-575.487 -1001.187)"/>
        </g>
      </g>
      <g id="Group_331" data-name="Group 331" transform="translate(133.436 70.526)">
        <g id="Group_330" data-name="Group 330">
          <path id="Path_199" data-name="Path 199" d="M551.86,1006.528c-.728-.728-.728-1.37,0-1.884a7.316,7.316,0,0,1,1.113-.9c.514-.385,1.028-.771,1.5-1.156.771-.557,3.255-2.869,3.854-1.113.257.771,1.5.428,1.242-.343-1.242-3.554-5.182-.043-6.766,1.156-1.113.857-2.784,1.8-2.912,3.383a1.991,1.991,0,0,0,1.585,2.184c.856.043,1.2-1.2.385-1.328Z" transform="translate(-549.882 -999.583)"/>
        </g>
      </g>
      <g id="Group_333" data-name="Group 333" transform="translate(137.915 81.558)">
        <g id="Group_332" data-name="Group 332">
          <path id="Path_200" data-name="Path 200" d="M560.537,1026.438c2.826,2.612,4.026,6.3,6.3,9.293a17.433,17.433,0,0,0,25.738,2.313c.6-.557-.3-1.456-.9-.9a16.245,16.245,0,0,1-18.886,2.1,17.512,17.512,0,0,1-6.424-6.681c-1.456-2.527-2.7-5.1-4.882-7.066-.642-.514-1.542.385-.942.942Z" transform="translate(-560.34 -1025.343)"/>
        </g>
      </g>
      <g id="Group_335" data-name="Group 335" transform="translate(145.413 73.788)">
        <g id="Group_334" data-name="Group 334">
          <path id="Path_201" data-name="Path 201" d="M578.471,1008.485l9.379.257c3.3.086,6.509.385,9.336,2.27,4.968,3.34,8.865,10.407,4.5,15.8-.514.642.385,1.542.9.9,4.154-5.1,1.97-11.863-2.441-16.017-5.867-5.439-14.218-4.325-21.627-4.5a.643.643,0,0,0-.043,1.285Z" transform="translate(-577.85 -1007.2)"/>
        </g>
      </g>
      <g id="Group_337" data-name="Group 337" transform="translate(141.474 77.049)">
        <g id="Group_336" data-name="Group 336">
          <path id="Path_202" data-name="Path 202" d="M568.972,1016.007c2.912,1.542,5.781,3.169,8.522,4.968,2.955,1.927,3.9,5.482,5.267,8.565.343.771,1.456.086,1.114-.642-1.2-2.655-2.1-6.3-4.5-8.18a60.618,60.618,0,0,0-9.764-5.824c-.728-.385-1.37.728-.642,1.113Z" transform="translate(-568.652 -1014.813)"/>
        </g>
      </g>
      <g id="Group_339" data-name="Group 339" transform="translate(151.976 81.75)">
        <g id="Group_338" data-name="Group 338">
          <path id="Path_203" data-name="Path 203" d="M593.785,1027.979l8.865-.9c.814-.086.814-1.37,0-1.285l-8.865.9c-.814.086-.814,1.37,0,1.285Z" transform="translate(-593.175 -1025.79)"/>
        </g>
      </g>
      <g id="Group_341" data-name="Group 341" transform="translate(152.281 83.313)">
        <g id="Group_340" data-name="Group 340">
          <path id="Path_204" data-name="Path 204" d="M594.32,1030.709a37.357,37.357,0,0,1,7.023,2.912c.728.385,1.37-.728.642-1.113a34.318,34.318,0,0,0-7.323-3.041.646.646,0,0,0-.343,1.242Z" transform="translate(-593.885 -1029.442)"/>
        </g>
      </g>
      <path id="Path_205" data-name="Path 205" d="M409.6,979.514a52.675,52.675,0,0,0,14.6,6.467c6.381,1.713,20.77,5.524,31.305-2.741,8.265-6.467,9.935-17.13,9.507-17.344-.343-.171-2.056,6.809-8.18,10.535-5.867,3.6-11.82,1.713-20.385,1.028A88.35,88.35,0,0,0,409.6,979.514Z" transform="translate(-336.24 -909.795)" fill="#1f1f1f"/>
      <g id="Group_343" data-name="Group 343" transform="translate(224.626 53.146)">
        <g id="Group_342" data-name="Group 342">
          <path id="Path_206" data-name="Path 206" d="M763.751,968.507c3.683-2.741,7.323-5.482,11.006-8.265.642-.471,0-1.627-.642-1.113-3.683,2.741-7.323,5.482-11.006,8.265-.685.471-.043,1.584.642,1.113Z" transform="translate(-762.816 -958.999)"/>
        </g>
      </g>
      <g id="Group_345" data-name="Group 345" transform="translate(226.802 46.055)">
        <g id="Group_344" data-name="Group 344">
          <path id="Path_207" data-name="Path 207" d="M769.012,968.847q15.417-12.655,30.877-25.353c.642-.514-.257-1.413-.9-.9q-15.417,12.655-30.877,25.353c-.642.514.3,1.413.9.9Z" transform="translate(-767.897 -942.442)"/>
        </g>
      </g>
      <g id="Group_347" data-name="Group 347" transform="translate(248.061 55.027)">
        <g id="Group_346" data-name="Group 346">
          <path id="Path_208" data-name="Path 208" d="M818.635,973.673a79.879,79.879,0,0,1,9.978-9.036c.642-.514,0-1.627-.642-1.113a80.525,80.525,0,0,0-10.235,9.25.636.636,0,0,0,.9.9Z" transform="translate(-817.538 -963.391)"/>
        </g>
      </g>
      <g id="Group_349" data-name="Group 349" transform="translate(164.386 24.41)">
        <g id="Group_348" data-name="Group 348">
          <path id="Path_209" data-name="Path 209" d="M623.115,917.552a383.077,383.077,0,0,0,36.616-24.41c.642-.471,0-1.627-.642-1.113a385.74,385.74,0,0,1-36.616,24.41.643.643,0,0,0,.642,1.114Z" transform="translate(-622.152 -891.899)"/>
        </g>
      </g>
      <g id="Group_351" data-name="Group 351" transform="translate(158.647 34.833)">
        <g id="Group_350" data-name="Group 350">
          <path id="Path_210" data-name="Path 210" d="M609.715,927.7a58,58,0,0,0,13.961-10.364c.6-.6-.343-1.5-.9-.9a57.765,57.765,0,0,1-13.7,10.15c-.728.385-.086,1.5.642,1.113Z" transform="translate(-608.752 -916.238)"/>
        </g>
      </g>
      <g id="Group_353" data-name="Group 353" transform="translate(144.168 19.928)">
        <g id="Group_352" data-name="Group 352">
          <path id="Path_211" data-name="Path 211" d="M576.08,902.318q12.848-10.214,26.295-19.657c.685-.471.043-1.585-.642-1.113q-13.554,9.507-26.552,19.871c-.685.514.257,1.413.9.9Z" transform="translate(-574.942 -881.434)"/>
        </g>
      </g>
    </g>
    <g id="girl" transform="translate(134.755 170.936)">
      <g id="leg_right_1_" transform="translate(0 159.457)">
        <path id="Path_212" data-name="Path 212" d="M261.967,691.4A234.706,234.706,0,0,0,230.7,702.749c-10.749,4.8-26.38,11.863-43.211,25.567-6.852,5.567-11.948,11.606-22.1,23.64-3.811,4.5-7.709,9.379-8.051,16.274-.086,1.842-.343,7.238,3.083,11.263,5.739,6.724,17.516,4.625,23.3,3.64a50.469,50.469,0,0,0,12.334-3.9c25.738-11.648,21.284-7.452,42.783-18.072,16.873-8.308,25.31-12.505,29.635-16.787,4.026-4.026,20.471-20.385,14.732-36.187C278.883,696.453,264.965,692.257,261.967,691.4Z" transform="translate(-156.462 -690.766)" fill="#fff"/>
        <path id="Path_213" data-name="Path 213" d="M290.924,701.1a140.2,140.2,0,0,1-12.162,12.377c-27.451,24.667-48.735,23.982-68.949,43.211-6.381,6.038-14.818,16.188-21.113,32.976a74.35,74.35,0,0,0,13.019-.985,77.81,77.81,0,0,0,23.64-8.18c30.021-15.074,36.915-12.505,55.288-26.209,8.437-6.3,12.719-9.55,15.5-15.888C302.915,722.941,293.665,705.854,290.924,701.1Z" transform="translate(-174.412 -696.312)" fill="#969696" opacity="0.22"/>
        <g id="Group_355" data-name="Group 355">
          <g id="Group_354" data-name="Group 354">
            <path id="Path_214" data-name="Path 214" d="M260.672,689.954c-16.873,5.7-33.832,11.434-49.549,19.914a143.41,143.41,0,0,0-38.372,29.978c-5.4,5.953-10.963,12.462-14.518,19.742-2.912,5.91-4.968,14.475.642,19.486,5.7,5.1,14.261,5.567,21.456,4.368,8.95-1.542,17.687-5.353,26.123-8.651A449.486,449.486,0,0,0,261.914,748.5c.728-.385.086-1.5-.642-1.113a455.864,455.864,0,0,1-46.209,22.526c-7.923,3.34-15.974,6.467-24.111,9.293-8.008,2.784-16.83,5.1-25.181,2.313-20.513-6.809-1.242-30.492,6.895-39.656a142.168,142.168,0,0,1,35.973-29.121c16.488-9.336,34.474-15.46,52.375-21.5.771-.3.428-1.542-.343-1.285Z" transform="translate(-155.337 -689.919)"/>
          </g>
        </g>
      </g>
      <g id="leg_left_1_" transform="translate(12.696 156.537)">
        <path id="Path_215" data-name="Path 215" d="M443.757,815.356a30.474,30.474,0,0,1,5.7-4.368c3.811-2.27,5.781-2.313,13.319-4.882,6.467-2.227,9.165-3.64,11.477-5.182,1.927-1.285,5.567-3.726,5.1-5.1-.557-1.627-6.766-.856-13.618,0-5.7.685-5.91,1.113-10.835,1.627-7.28.728-7.794-.128-10.449.942-4.625,1.841-10.021,7.109-8.565,11.648C437.162,814.071,443.2,815.228,443.757,815.356Z" transform="translate(-328.292 -747.006)"/>
        <path id="Path_216" data-name="Path 216" d="M285.346,688.452a54.211,54.211,0,0,0-6.424,3.983,48.99,48.99,0,0,0-10.835,11.006c.3,1.756.557,3.555.857,5.31-10.278,4.968-18.5,9.507-24.111,12.719-15.546,8.908-24.582,16.017-42.654,30.235-5.867,4.582-12.291,9.85-14.518,18.543a20.119,20.119,0,0,0,.514,13.019,19.582,19.582,0,0,0,10.064,10.021c3.726,1.67,7.28,1.8,12.976,1.242a109.966,109.966,0,0,0,25.61-5.7,219.925,219.925,0,0,0,24.111-10.15,320.09,320.09,0,0,0,40.641-24.325,7.272,7.272,0,0,0-1.156-5.567,7.057,7.057,0,0,0-6.724-2.741,49.939,49.939,0,0,0,10.492-6.981,53.474,53.474,0,0,0,13.1-17.944,69.724,69.724,0,0,0,6.424-37.9C322.133,683.185,298.022,681.9,285.346,688.452Z" transform="translate(-186.026 -683.098)" fill="#fff"/>
        <path id="Path_217" data-name="Path 217" d="M336.543,697.011a89.354,89.354,0,0,1-13.833,24.025C301,747.8,269.65,753.284,233.206,783.861c-4.24,3.555-8.565,7.452-7.666,9.208,2.1,4.154,32.376-7.066,48.435-13.79a325.636,325.636,0,0,0,48.478-25.224c-1.841-1.2-3.726-2.4-5.567-3.555a43.9,43.9,0,0,0,11.177-7.494c5.439-5.011,8.094-10.021,10.578-14.9,2.912-5.7,6.938-13.661,7.152-24.5a47.549,47.549,0,0,0-1.028-10.706Q340.719,694.891,336.543,697.011Z" transform="translate(-208.103 -688.702)" fill="#9e9e9e" opacity="0.21"/>
        <g id="Group_357" data-name="Group 357" transform="translate(23.051 4.492)">
          <g id="Group_356" data-name="Group 356">
            <path id="Path_218" data-name="Path 218" d="M353.448,694.192c-.171,19.571-6.724,39.485-22.141,52.333-7.966,6.6-17.987,10.064-27.365,14.09-10.15,4.368-20.3,8.693-30.449,13.062-11.434,4.925-22.912,9.807-34.346,14.732-.771.343-.086,1.413.642,1.114L303,762.413c9.593-4.111,19.871-7.58,28.136-14.09a59.223,59.223,0,0,0,16.4-20.77,78.286,78.286,0,0,0,7.195-33.318.643.643,0,0,0-1.285-.043Z" transform="translate(-238.808 -693.587)"/>
          </g>
        </g>
        <g id="Group_359" data-name="Group 359" transform="translate(0 19.775)">
          <g id="Group_358" data-name="Group 358">
            <path id="Path_219" data-name="Path 219" d="M266.4,729.885a16.875,16.875,0,0,0,.857,5.482c.086-.257.214-.471.3-.728-15.246,7.494-30.235,15.631-44.281,25.267a220.582,220.582,0,0,0-19.528,14.989c-5.824,5.053-12.162,10.492-15.931,17.344-3.169,5.739-3.9,12.334-1.071,18.372a19.372,19.372,0,0,0,15.5,11.049c8.051.985,16.7-1.071,24.453-3.041a148.032,148.032,0,0,0,23.126-8.094c17.644-7.666,33.961-17.987,50.148-28.222.685-.428.043-1.542-.642-1.113-26.466,16.788-54.174,34.26-85.822,38.757-8.051,1.156-16.745,1.156-22.612-5.31a18.264,18.264,0,0,1-2.655-20.556c3.255-6.681,9.207-11.906,14.689-16.788a201.394,201.394,0,0,1,19.1-14.989c14.561-10.192,30.192-18.715,46.123-26.552a.634.634,0,0,0,.3-.728,16.317,16.317,0,0,1-.814-5.139c.043-.814-1.242-.814-1.242,0Z" transform="translate(-184.983 -729.275)"/>
          </g>
        </g>
        <g id="Group_361" data-name="Group 361" transform="translate(108.302 62.055)">
          <g id="Group_360" data-name="Group 360">
            <path id="Path_220" data-name="Path 220" d="M438.485,829.285a6.161,6.161,0,0,1,5.953,7.794.644.644,0,0,0,1.242.343A7.437,7.437,0,0,0,438.485,828a.643.643,0,0,0,0,1.285Z" transform="translate(-437.875 -828)"/>
          </g>
        </g>
        <g id="Group_363" data-name="Group 363" transform="translate(115.412 51.482)">
          <g id="Group_362" data-name="Group 362">
            <path id="Path_221" data-name="Path 221" d="M455.387,820.01c2.527-1.841,4.711-3.6,7.709-4.582s6-2.056,8.951-3.255c5.7-2.27,11.306-4.839,16.745-7.666.728-.385.086-1.5-.642-1.113a172.486,172.486,0,0,1-17.9,8.137c-2.955,1.113-5.953,2.056-8.908,3.126-2.484.9-4.5,2.7-6.6,4.24-.642.471,0,1.585.642,1.113Z" transform="translate(-454.479 -803.313)"/>
          </g>
        </g>
        <g id="Group_365" data-name="Group 365" transform="translate(123.307 46.563)">
          <g id="Group_364" data-name="Group 364">
            <path id="Path_222" data-name="Path 222" d="M473.379,795.969c4.625.814,9.079-.171,13.576-1.242a53.69,53.69,0,0,1,7.751-1.456,12.637,12.637,0,0,1,3.811,0c3.126.814.728,3.34-.857,4.411-.685.471-.043,1.585.642,1.113,1.713-1.156,3.94-3.041,2.784-5.4-.985-1.97-4.24-1.585-6.038-1.456-7.195.514-14.047,4.068-21.327,2.784-.814-.128-1.156,1.113-.343,1.242Z" transform="translate(-472.914 -791.826)"/>
          </g>
        </g>
      </g>
      <g id="hand_left_1_" transform="translate(161.403 67.713)">
        <path id="Path_223" data-name="Path 223" d="M538.466,477.1a22.942,22.942,0,0,0-3.769,4.925c-1.841,3.212-2.955,7.152-2.27,20.256A189.136,189.136,0,0,0,535,524.807c.771,4.368,1.542,7.923,2.1,10.407,5.1,22.269,14.689,48.692,18.244,58.285,2.655,7.195,6.338,16.916,11.006,28.436a35.153,35.153,0,0,0-7.237,8.651c-1.285,2.141-3.169,5.353-2.355,6.21.685.685,3.3-.043,12.034-6.252a81.2,81.2,0,0,1,11.477,5.524c3.769,2.184,6.981,4.454,12.034,5.139a21.915,21.915,0,0,0,3.426.214,21.9,21.9,0,0,0-4.539-6.167c-2.869-2.7-6.124-3.726-6.038-3.94.086-.171,2.741,1.028,6.338,2.141,3.169.985,6.638,1.2,13.618,1.627.985.043,2.441.129,3.083-.728.728-1.028-.086-2.784-.385-3.512-2.141-4.625-9.936-7.494-12.762-8.479a13.549,13.549,0,0,0,14.047-1.927c-1.884-.385-3.854-.771-5.867-1.071a119.907,119.907,0,0,0-27.494-1.156,98.516,98.516,0,0,1-4.411-14.732c-1.542-6.938-1.2-8.736-2.912-18.972-1.37-8.223-2.227-13.062-4.325-19.143a76.281,76.281,0,0,0-5.91-12.933c-6.253-27.794-8.694-40.513-9.593-46.68a126.509,126.509,0,0,0-3.041-13.875,39,39,0,0,0-3-8.479A32.784,32.784,0,0,0,538.466,477.1Z" transform="translate(-532.224 -476.496)" fill="#fff"/>
        <path id="Path_224" data-name="Path 224" d="M538.671,477.1c1.456.086,1.8,7.837,2.7,17.644,0,0,1.242,13.576,7.238,46.465,6.3,34.646,19.742,71,24.5,83.424,7.237,5.567,14.518,11.177,21.755,16.745a23.353,23.353,0,0,1-7.923-1.113c-3.041-.985-4.668-2.27-9.293-4.968-1.8-1.071-4.582-2.612-8.094-4.411q-11.113,7.452-12.591,5.91-1.67-1.8,9.807-15.76c-1.285-2.741-3.041-6.638-5.053-11.349-3.512-8.137-12.077-28.864-21.455-63.467-7.709-28.436-7.923-36.744-7.58-43.254C533.361,490.459,536.7,476.927,538.671,477.1Z" transform="translate(-532.429 -476.494)" fill="#686868" opacity="0.11"/>
        <g id="Group_367" data-name="Group 367" transform="translate(5.556)">
          <g id="Group_366" data-name="Group 366">
            <path id="Path_225" data-name="Path 225" d="M545.413,476.722c2.484,2.013,3.726,4.968,4.839,7.88a82.193,82.193,0,0,1,2.741,9.079c1.585,6.509,2.784,13.1,4.154,19.657,2.741,13.362,5.482,26.68,8.222,40.042.171.814,1.413.471,1.242-.343-2.869-13.875-5.739-27.794-8.565-41.669-1.37-6.638-2.57-13.362-4.283-19.914-1.37-5.225-2.955-12.077-7.409-15.588-.642-.557-1.585.343-.942.857Z" transform="translate(-545.198 -475.69)"/>
          </g>
        </g>
        <g id="Group_369" data-name="Group 369" transform="translate(1.986 48.99)">
          <g id="Group_368" data-name="Group 368">
            <path id="Path_226" data-name="Path 226" d="M536.878,590.863a595.92,595.92,0,0,0,31.605,95.158c.343.771,1.413.086,1.113-.642A590.657,590.657,0,0,1,538.12,590.52c-.214-.771-1.413-.428-1.242.343Z" transform="translate(-536.861 -590.085)"/>
          </g>
        </g>
        <g id="Group_371" data-name="Group 371" transform="translate(25.888 76.042)">
          <g id="Group_370" data-name="Group 370">
            <path id="Path_227" data-name="Path 227" d="M592.771,654.215c11.22,19.657,9.379,43.339,16.316,64.409.257.771,1.5.428,1.242-.343-6.981-21.2-5.139-44.924-16.445-64.709a.643.643,0,0,0-1.113.642Z" transform="translate(-592.675 -653.252)"/>
          </g>
        </g>
        <g id="Group_373" data-name="Group 373" transform="translate(23.61 144.748)">
          <g id="Group_372" data-name="Group 372">
            <path id="Path_228" data-name="Path 228" d="M597.438,813.906c-2.441,2.912-5.011,5.781-7.366,8.822-1.2,1.542-3.083,3.854-2.655,6,.428,2.013,2.013,1.456,3.3.685,3.3-1.927,6.6-3.94,9.893-5.91a.643.643,0,0,0-.642-1.114c-2.013,1.2-4.026,2.4-6,3.6-1.071.642-2.141,1.242-3.169,1.884-.214.128-1.2.9-1.413.857-.214-.385-.428-.814-.6-1.2.171-.471.385-.942.6-1.413a32.422,32.422,0,0,1,4.026-5.353c1.67-1.97,3.3-3.94,4.968-5.91.514-.685-.428-1.585-.942-.942Z" transform="translate(-587.355 -813.685)"/>
          </g>
        </g>
        <g id="Group_375" data-name="Group 375" transform="translate(42.676 140.771)">
          <g id="Group_374" data-name="Group 374">
            <path id="Path_229" data-name="Path 229" d="M632.485,805.685c5.7.171,11.392.385,17.044.685l8.308.514c2.741.214,5.482.3,8.094,1.285.771.3,1.113-.942.343-1.242a23.9,23.9,0,0,0-7.152-1.242c-2.912-.214-5.824-.385-8.736-.557-5.953-.343-11.905-.6-17.9-.728a.643.643,0,0,0,0,1.285Z" transform="translate(-631.875 -804.4)"/>
          </g>
        </g>
        <g id="Group_377" data-name="Group 377" transform="translate(36.48 153.164)">
          <g id="Group_376" data-name="Group 376">
            <path id="Path_230" data-name="Path 230" d="M617.875,835.163c9.293,2.57,16.488,10.835,26.595,10.535a.617.617,0,0,0,.6-.814c-1.413-5.524-7.237-7.494-10.792-11.349-.557-.6-1.456.3-.9.9,3.383,3.64,9.122,5.567,10.449,10.792a9.85,9.85,0,0,0,.6-.814c-9.893.3-17.13-7.966-26.252-10.492a.639.639,0,0,0-.3,1.242Z" transform="translate(-617.407 -833.338)"/>
          </g>
        </g>
        <g id="Group_379" data-name="Group 379" transform="translate(52.335 145.019)">
          <g id="Group_378" data-name="Group 378">
            <path id="Path_231" data-name="Path 231" d="M654.845,823.861a65.152,65.152,0,0,0,14.132,4.111,26.909,26.909,0,0,0,6.424.471c1.242-.086,2.826-.214,3.555-1.413,1.627-2.7-2.27-5.31-3.983-6.638a38.4,38.4,0,0,0-11.777-6.038c-.771-.257-1.113.985-.343,1.242a37.339,37.339,0,0,1,9.079,4.24,43.479,43.479,0,0,1,3.983,2.955,8.326,8.326,0,0,1,1.713,1.756c1.071,1.884-.685,2.527-2.184,2.612-6.681.557-14.132-2.056-20.256-4.582-.771-.257-1.071.985-.343,1.285Z" transform="translate(-654.429 -814.319)"/>
          </g>
        </g>
        <g id="Group_381" data-name="Group 381" transform="translate(60.277 144.042)">
          <g id="Group_380" data-name="Group 380">
            <path id="Path_232" data-name="Path 232" d="M673.585,814.463c4.925.6,11.991,2.784,15.931-1.328.557-.6-.343-1.5-.9-.9-1.97,2.056-4.668,2.1-7.323,1.841-2.57-.257-5.139-.6-7.709-.9-.814-.086-.814,1.2,0,1.285Z" transform="translate(-672.975 -812.038)"/>
          </g>
        </g>
        <g id="Group_383" data-name="Group 383" transform="translate(55.214 148.914)">
          <g id="Group_382" data-name="Group 382">
            <path id="Path_233" data-name="Path 233" d="M661.472,824.607a44.458,44.458,0,0,0,9.379,3.041,30.408,30.408,0,0,1,10.407,4.454c.685.471,1.328-.642.642-1.113a28.808,28.808,0,0,0-9.336-4.24c-3.554-.942-7.152-1.584-10.449-3.255-.728-.385-1.37.728-.642,1.113Z" transform="translate(-661.152 -823.413)"/>
          </g>
        </g>
      </g>
      <g id="torso_1_" transform="translate(104.563 61.175)">
        <path id="Path_234" data-name="Path 234" d="M408.964,465.295a76.124,76.124,0,0,1,25.909-4.839c10.278-.128,22.012-.257,28.051,7.28,2.313,2.912,3,7.966,4.325,18.072,1.37,10.321,2.013,15.46.557,21.584-1.756,7.323-4.026,6.21-8.908,17.259-3.6,8.137-3.169,10.621-7.837,23.768-2.056,5.781-3.9,10.364-5.139,13.233a62.458,62.458,0,0,1-8.351,2.141c-15.717,2.955-29.378-.514-38.072-3.769Q404.254,512.681,408.964,465.295Z" transform="translate(-399.5 -460.422)" fill="#1f1f1f"/>
      </g>
      <g id="hand_right_1_" transform="translate(92.283 64.759)">
        <path id="Path_235" data-name="Path 235" d="M396.359,470.4a23.911,23.911,0,0,0-7.109,4.582,26.081,26.081,0,0,0-5.439,7.195,51.213,51.213,0,0,0-5.353,16.7c-2.912,19.057-3.769,26.809-3.769,26.809-1.8,16.616-2.4,23.126-2.227,31.819a59.876,59.876,0,0,0,1.456,13.319c1.242,5.267,3.083,9.336,6.552,15.8,4.968,9.379,9.207,15.974,12.077,20.556,3.426,5.439,8.265,13.362,13.918,23.254,1.028,2.869,2.141,5.867,3.3,9.036,8.094,21.969,4.026,8.822,5.1,12.034a9.013,9.013,0,0,0,3.6,5.268c.6.385,1.542.942,2.1.685,1.113-.557.942-4.711-4.068-19.614a31.494,31.494,0,0,0,7.409,10.364,23.783,23.783,0,0,0,5.011,3.426q1.092,5.075,2.056,10.535c.814,4.668,1.5,9.207,2.056,13.576a14.968,14.968,0,0,0-.642,5.182,10.944,10.944,0,0,0,1.242,5.01c.557.985,1.927,3.469,4.068,3.683,1.156.129,2.141-.557,4.111-1.841,2.612-1.713,3.126-2.784,4.411-2.741.685,0,1.67.343,2.826,1.884-.043-2.955-.857-3.983-1.585-4.454-1.2-.728-2.27.214-5.053-.171a6.689,6.689,0,0,1-3.983-1.542c-1.67-1.67-1.285-4.5-1.242-5.225.343-3.6-.985-13.019-6.3-34.517a3.032,3.032,0,0,0,5.953-1.028c-2.7-2.527-5.4-5.053-8.137-7.58-.343-2.57-.685-5.182-1.071-7.837-1.37-9.207-3.083-17.987-4.968-26.338-1.156.343-2.313.685-3.469.985l2.313,16.573c-2.869-.343-5.739-.728-8.608-1.071-1.156-1.97-2.612-4.625-4.154-7.837a116.9,116.9,0,0,1-5.824-14.132c-2.784-8.437-4.454-13.4-4.582-20.085-.086-2.955.128-7.195-2.013-12.291A26.129,26.129,0,0,0,394,556.093c.942-5.61,1.756-10.407,2.355-14.261,4.068-25.652,1.97-18.372,5.268-42.7.6-4.539,1.2-8.522.343-13.918A38.65,38.65,0,0,0,396.359,470.4Z" transform="translate(-371.744 -469.711)" fill="#fff"/>
        <path id="Path_236" data-name="Path 236" d="M393.39,471.8a99.343,99.343,0,0,0-5.824,14.946,102.783,102.783,0,0,0-4.111,28.136c-.771,28.393-1.2,42.611,1.542,55.2,7.066,32.59,24.453,54.517,31.477,63.21A167.769,167.769,0,0,0,432.062,650a4.931,4.931,0,0,1-3.255,2.441c-1.8.171-3.255-1.456-5.011-3.426-2.1-2.4-4.754-5.61-7.751-9.507a86.494,86.494,0,0,1,3.811,12.591c1.242,5.653.771,6.081.6,6.167-1.113.514-4.882-5.439-6.681-8.608a71.077,71.077,0,0,1-7.366-18.458c-5.739-10.021-10.621-17.987-13.918-23.254-9.55-15.331-12.848-19.314-16.017-28.565a83.416,83.416,0,0,1-4.111-20.642c-.257-3.983-.128-6.3,1.542-23.725,1.67-17.344,2.227-22.312,3.3-29.121,2.1-13.362,3.6-17.387,5.524-21.027A44.777,44.777,0,0,1,393.39,471.8Z" transform="translate(-371.645 -470.512)" fill="#8e8e8e" opacity="0.17"/>
        <g id="Group_385" data-name="Group 385">
          <g id="Group_384" data-name="Group 384">
            <path id="Path_237" data-name="Path 237" d="M395.266,468.838c-9.379,3.726-14.346,12.89-16.83,22.184-3.041,11.306-4.325,23.211-5.439,34.86-1.156,11.991-2.912,24.368-1.841,36.4,1.028,11.606,6.338,21.37,12.162,31.22q10.728,18.115,21.413,36.187a.643.643,0,0,0,1.113-.642c-6-10.15-11.991-20.256-17.987-30.406-5.739-9.679-12.334-19.357-14.6-30.534-2.227-11.135-.685-22.74.257-33.96a337.152,337.152,0,0,1,4.411-35.245c2.184-11.177,6-24.2,17.644-28.821.814-.3.471-1.542-.3-1.242Z" transform="translate(-370.823 -468.792)"/>
          </g>
        </g>
        <g id="Group_387" data-name="Group 387" transform="translate(22.255 0.725)">
          <g id="Group_386" data-name="Group 386">
            <path id="Path_238" data-name="Path 238" d="M425.15,471.6c8.308,10.749,4.968,26.038,3.426,38.414q-2.891,23.318-5.781,46.594c-.086.814,1.2.814,1.285,0q3.019-24.539,6.081-49.121c1.5-12.162,3.983-26.338-4.111-36.787-.514-.642-1.413.257-.9.9Z" transform="translate(-422.79 -470.484)"/>
          </g>
        </g>
        <g id="Group_389" data-name="Group 389" transform="translate(18.754 83.228)">
          <g id="Group_388" data-name="Group 388">
            <path id="Path_239" data-name="Path 239" d="M414.909,664.362c4.411,3.083,5.439,8.736,6.252,13.661.942,5.525,1.884,11.006,3.126,16.445,2.441,10.749,5.91,21.284,11.777,30.706.428.685,1.542.043,1.113-.642-6.338-10.15-9.85-21.67-12.291-33.318-1.156-5.524-1.884-11.092-3.041-16.616-.9-4.368-2.484-8.693-6.3-11.349-.685-.471-1.328.642-.642,1.113Z" transform="translate(-414.616 -663.134)"/>
          </g>
        </g>
        <g id="Group_391" data-name="Group 391" transform="translate(40.749 144.753)">
          <g id="Group_390" data-name="Group 390">
            <path id="Path_240" data-name="Path 240" d="M466.585,808.085a24.649,24.649,0,0,1,7.923.9c.771.257,1.113-.985.343-1.242a25.709,25.709,0,0,0-8.265-.942.643.643,0,0,0,0,1.285Z" transform="translate(-465.975 -806.8)"/>
          </g>
        </g>
        <g id="Group_393" data-name="Group 393" transform="translate(50.13 152.151)">
          <g id="Group_392" data-name="Group 392">
            <path id="Path_241" data-name="Path 241" d="M487.889,824.685c-.171,3.6,2.27,6.252,4.625,8.651,3.169,3.255,6.509,6.381,9.935,9.379.6.557,1.542-.343.9-.9-2.826-2.484-5.567-5.011-8.222-7.666-2.57-2.57-6.167-5.482-5.953-9.464.043-.814-1.242-.814-1.285,0Z" transform="translate(-487.88 -824.075)"/>
          </g>
        </g>
        <g id="Group_395" data-name="Group 395" transform="translate(34.087 160.069)">
          <g id="Group_394" data-name="Group 394">
            <path id="Path_242" data-name="Path 242" d="M450.454,843.349c1.67,4.754,3.34,9.507,5.353,14.132,1.028,2.313,2.1,4.625,3.3,6.852,1.071,1.97,2.184,4.454,3.769,6.038a1.848,1.848,0,0,0,2.527.471c1.071-.857.728-2.527.471-3.683a103.164,103.164,0,0,0-4.5-15.888c-.3-.771-1.542-.428-1.242.343a103.637,103.637,0,0,1,3.469,11.263c.257,1.028.471,2.056.728,3.083.171.728.985,2.912.471,3.512-.9.985-3.512-3.94-3.811-4.5-3.983-6.938-6.638-14.518-9.293-22.012-.257-.728-1.5-.385-1.242.385Z" transform="translate(-450.419 -842.563)"/>
          </g>
        </g>
        <g id="Group_397" data-name="Group 397" transform="translate(44.243 163.004)">
          <g id="Group_396" data-name="Group 396">
            <path id="Path_243" data-name="Path 243" d="M474.248,855.4c2.27,3.426,4.539,7.066,7.452,10.021,1.713,1.756,5.182,4.582,7.837,3.34,2.784-1.242.857-4.625-.214-6.3-2.741-4.24-5.524-8.479-8.265-12.762-.428-.685-1.542-.043-1.113.642l5.524,8.479c.857,1.285,1.67,2.612,2.527,3.9.9,1.37,3.383,4.925-.128,4.839-2.741-.043-5.182-2.912-6.766-4.839a98.463,98.463,0,0,1-5.739-8.094c-.471-.557-1.585.086-1.113.771Z" transform="translate(-474.134 -849.416)"/>
          </g>
        </g>
        <g id="Group_399" data-name="Group 399" transform="translate(50.006 162.732)">
          <g id="Group_398" data-name="Group 398">
            <path id="Path_244" data-name="Path 244" d="M487.723,849.731a37,37,0,0,0,10.064,9.593c1.285.814,3,1.5,4.368.471a2.294,2.294,0,0,0,.685-2.955c-.385-.728-1.5-.086-1.113.642q-1.092,2.12-2.441,1.156a4.877,4.877,0,0,1-.814-.428,17.334,17.334,0,0,1-1.456-.985,29.265,29.265,0,0,1-3.126-2.569,39.116,39.116,0,0,1-5.053-5.61c-.514-.642-1.627,0-1.113.685Z" transform="translate(-487.591 -848.781)"/>
          </g>
        </g>
        <g id="Group_401" data-name="Group 401" transform="translate(46.519 164.861)">
          <g id="Group_400" data-name="Group 400">
            <path id="Path_245" data-name="Path 245" d="M479.514,854.715a45.862,45.862,0,0,0,12.077,15.631c.642.514,1.542-.385.9-.9a45.388,45.388,0,0,1-11.905-15.374c-.3-.728-1.413-.086-1.071.642Z" transform="translate(-479.449 -853.752)"/>
          </g>
        </g>
        <g id="Group_403" data-name="Group 403" transform="translate(46.746 129.996)">
          <g id="Group_402" data-name="Group 402">
            <path id="Path_246" data-name="Path 246" d="M479.988,773.138c1.242,7.751,2.484,15.46,3.726,23.211.128.814,1.37.471,1.242-.343-1.242-7.751-2.484-15.46-3.726-23.211-.128-.814-1.37-.428-1.242.343Z" transform="translate(-479.978 -772.342)"/>
          </g>
        </g>
        <g id="Group_405" data-name="Group 405" transform="translate(46.788 127.836)">
          <g id="Group_404" data-name="Group 404">
            <path id="Path_247" data-name="Path 247" d="M481.285,770.254c.557-.857,2.184-2.313,3.212-.985a5.252,5.252,0,0,1,.257,1.67c.214,1.5.471,3.041.685,4.539.428,2.869.9,5.781,1.328,8.651l2.7,17.344c.128.814,1.37.471,1.242-.343-1.242-8.137-2.527-16.231-3.769-24.368-.3-2.056-.642-4.111-.942-6.21-.128-.856-.086-2.184-.814-2.784-1.627-1.328-4.154.428-5.011,1.8a.655.655,0,0,0,1.113.685Z" transform="translate(-480.075 -767.298)"/>
          </g>
        </g>
        <g id="Group_407" data-name="Group 407" transform="translate(58.902 171.568)">
          <g id="Group_406" data-name="Group 406">
            <path id="Path_248" data-name="Path 248" d="M508.378,870.221q3.469,17.665,5.824,35.5c.128.814,1.413.814,1.285,0q-2.377-17.987-5.91-35.845c-.129-.814-1.37-.471-1.2.343Z" transform="translate(-508.362 -869.414)"/>
          </g>
        </g>
        <g id="Group_409" data-name="Group 409" transform="translate(56.675 181.289)">
          <g id="Group_408" data-name="Group 408">
            <path id="Path_249" data-name="Path 249" d="M503.178,892.921q2.313,12.013,3.983,24.154c.128.814,1.37.471,1.242-.343q-1.67-12.141-3.983-24.154c-.171-.814-1.413-.471-1.242.343Z" transform="translate(-503.162 -892.114)"/>
          </g>
        </g>
        <g id="Group_411" data-name="Group 411" transform="translate(60.799 205.473)">
          <g id="Group_410" data-name="Group 410">
            <path id="Path_250" data-name="Path 250" d="M512.838,949.362a4.331,4.331,0,0,0,4.454,2.784c.814-.086.814-1.37,0-1.285a3,3,0,0,1-3.212-1.841c-.3-.771-1.542-.428-1.242.343Z" transform="translate(-512.792 -948.585)"/>
          </g>
        </g>
        <g id="Group_413" data-name="Group 413" transform="translate(60.013 205.473)">
          <g id="Group_412" data-name="Group 412">
            <path id="Path_251" data-name="Path 251" d="M511.876,949.02c-1.627,4.282-1.242,10.192,2.4,13.4a4.414,4.414,0,0,0,4.839.9c2.1-.856,5.91-6.552,8.18-3.383.471.685,1.585.043,1.113-.642-2.313-3.3-5.739-.428-7.837,1.456-1.585,1.413-3.469,2.4-5.4.771a8.6,8.6,0,0,1-2.27-3.6,12.287,12.287,0,0,1,.214-8.565c.3-.771-.942-1.113-1.242-.343Z" transform="translate(-510.958 -948.585)"/>
          </g>
        </g>
        <g id="Group_415" data-name="Group 415" transform="translate(65.161 207.049)">
          <g id="Group_414" data-name="Group 414">
            <path id="Path_252" data-name="Path 252" d="M522.987,953.05c.343,2.184,1.542,4.454,3.683,5.31,2.741,1.071,9.036-1.413,7.88,3.9-.171.814,1.071,1.156,1.242.343.514-2.27-.343-4.668-2.784-5.225-1.756-.428-3.512.385-5.268,0-2.141-.514-3.169-2.612-3.512-4.625-.171-.856-1.37-.471-1.242.3Z" transform="translate(-522.978 -952.264)"/>
          </g>
        </g>
      </g>
      <g id="head_1_" transform="translate(91.446)">
        <path id="Path_253" data-name="Path 253" d="M459.118,397.356a7.922,7.922,0,0,0,2.57,3.512,8.132,8.132,0,0,0,5.011,1.585l4.24-4.882a10.618,10.618,0,0,0,13.576,1.8c6.6-3.469,10.578-9.079,12.505-12.12a43.759,43.759,0,0,0,5.524-14.261c1.071-4.882,2.784-13.147-.514-22.44-1.2-3.34-1.756-5.011-3.212-6.424-8.265-8.051-37.087-2.056-45.395,16.274C453.508,360.441,448.5,371.532,459.118,397.356Z" transform="translate(-416.579 -330.752)" fill="#fff"/>
        <path id="Path_254" data-name="Path 254" d="M490.9,354.447c.642,2.612-9.85,3.983-18.115,15.76a39.176,39.176,0,0,0-6.895,18.244,37.614,37.614,0,0,0,1.67,14.989c-1.97-1.2-3.94-2.441-5.867-3.64-1.927,1.328-3.811,2.612-5.739,3.94a38.83,38.83,0,0,1-9.336-21.456c-.343-3.683-1.242-12.762,3.94-20.214C461.355,346.568,489.876,350.293,490.9,354.447Z" transform="translate(-413.163 -336.578)" fill="#8e8e8e" opacity="0.18"/>
        <path id="Path_255" data-name="Path 255" d="M416.247,352.4a55.031,55.031,0,0,0,10.706-3.6,66.346,66.346,0,0,0,12.205-7.452c3.126-2.27,5.653-4.368,7.452-5.953,2.1.942,6.124,3.083,7.623,7.323.385,1.156.6,2.355.471,6.338a62.777,62.777,0,0,1-1.113,11.606,55.28,55.28,0,0,1-8.008,18.929,29.5,29.5,0,0,0,11.135-8.822c4.882-6.381,5.653-12.976,6.252-19.014,1.028-10.407,2.013-20.171-4.2-27.023-6.338-7.023-16.7-7.109-25.224-7.152-4.754-.043-10.749-.086-17.387,2.612-11.135,4.582-11.349,11.734-26.937,28.308-11.434,12.12-14.946,12.12-17.858,19.614-2.869,7.323-5.011,21.5,3.854,29.164,8.865,7.623,23.425,4.283,31.519-2.7,1.884-1.627,8.437-7.751,8.865-17.773a25.355,25.355,0,0,0-5.61-16.745c-3.854-4.539-4.111-9.507-2.1-11.306a5.309,5.309,0,0,1,6.253,0A5.863,5.863,0,0,1,416.247,352.4Z" transform="translate(-368.869 -317.575)" fill="#1bff00"/>
        <g id="Group_417" data-name="Group 417" transform="translate(46.133 19.135)">
          <g id="Group_416" data-name="Group 416">
            <path id="Path_256" data-name="Path 256" d="M476.767,402.874a45.769,45.769,0,0,0,7.494,6.895c2.27,1.67,5.31,4.026,8.222,4.368,2.955.343,6.467-1.67,8.865-3.169a29.153,29.153,0,0,0,7.28-6.467c4.325-5.482,6.253-12.377,7.366-19.186,1.242-7.537,1.413-15.246-.771-22.612a.645.645,0,0,0-1.242.343,47.734,47.734,0,0,1,.985,20.727c-.942,6.381-2.484,12.89-6.124,18.286-3.169,4.754-8.951,9.764-14.775,10.664-3.169.471-6.638-2.313-9.079-4.068a44.519,44.519,0,0,1-7.237-6.681.667.667,0,0,0-.985.9Z" transform="translate(-476.593 -362.257)"/>
          </g>
        </g>
        <g id="Group_419" data-name="Group 419" transform="translate(66.253 37.645)">
          <g id="Group_418" data-name="Group 418">
            <path id="Path_257" data-name="Path 257" d="M531.08,405.916c-.771,3.041-1.542,6.124-2.313,9.165-.385,1.456-.728,2.912-1.113,4.368-.257.942-.471,3.811-1.328,4.411.3.128.642.257.942.385a27.944,27.944,0,0,0-2.484-4.925c-.428-.685-1.542-.043-1.113.642a26.1,26.1,0,0,1,2.355,4.625.652.652,0,0,0,.942.385c.985-.685,1.028-1.627,1.328-2.784.428-1.713.856-3.469,1.285-5.182l2.7-10.792c.214-.728-.985-1.071-1.2-.3Z" transform="translate(-523.575 -405.479)"/>
          </g>
        </g>
        <g id="Group_421" data-name="Group 421" transform="translate(58.075 51.69)">
          <g id="Group_420" data-name="Group 420">
            <path id="Path_258" data-name="Path 258" d="M504.488,438.885a7.354,7.354,0,0,0,7.623,6.467c.814-.043.814-1.328,0-1.285a6.077,6.077,0,0,1-6.338-5.182c-.128-.814-1.413-.814-1.285,0Z" transform="translate(-504.479 -438.275)"/>
          </g>
        </g>
        <ellipse id="Ellipse_11" data-name="Ellipse 11" cx="3.597" cy="1.456" rx="3.597" ry="1.456" transform="translate(63.776 42.624) rotate(-69.666)"/>
        <ellipse id="Ellipse_12" data-name="Ellipse 12" cx="3.597" cy="1.456" rx="3.597" ry="1.456" transform="translate(76.142 44.549) rotate(-69.666)"/>
        <g id="Group_423" data-name="Group 423" transform="translate(64.504 28.003)">
          <g id="Group_422" data-name="Group 422">
            <path id="Path_259" data-name="Path 259" d="M520.565,385.206a2.567,2.567,0,0,1,4.368.557c.385.728,1.456.086,1.113-.642a3.851,3.851,0,0,0-6.381-.814c-.557.6.343,1.5.9.9Z" transform="translate(-519.491 -382.964)"/>
          </g>
        </g>
        <g id="Group_425" data-name="Group 425" transform="translate(77.266 29.365)">
          <g id="Group_424" data-name="Group 424">
            <path id="Path_260" data-name="Path 260" d="M550.365,388.61c1.2-1.242,3.811-2.056,4.582.171.257.771,1.5.428,1.242-.343-1.071-3.126-4.754-2.741-6.724-.728-.557.557.343,1.5.9.9Z" transform="translate(-549.291 -386.145)"/>
          </g>
        </g>
        <g id="Group_427" data-name="Group 427" transform="translate(37.468 29.341)">
          <g id="Group_426" data-name="Group 426">
            <path id="Path_261" data-name="Path 261" d="M461.3,398.984c-3.083-1.156-4.283-5.91-3.3-8.779a4.237,4.237,0,0,1,3.683-2.912c2.355,0,3.64,2.484,3.983,4.5.128.814,1.37.471,1.242-.343-.771-4.5-5.867-7.58-9.207-3.34-2.784,3.6-1.028,10.535,3.255,12.12.771.257,1.113-.985.343-1.242Z" transform="translate(-456.359 -386.089)"/>
          </g>
        </g>
        <g id="Group_429" data-name="Group 429" transform="translate(60.697 43.35)">
          <g id="Group_428" data-name="Group 428">
            <path id="Path_262" data-name="Path 262" d="M511.371,418.8h-.128a.642.642,0,0,0,0,1.285h.128a.642.642,0,0,0,0-1.285Z" transform="translate(-510.6 -418.8)"/>
          </g>
        </g>
        <g id="Group_431" data-name="Group 431" transform="translate(63.855 44.549)">
          <g id="Group_430" data-name="Group 430">
            <path id="Path_263" data-name="Path 263" d="M518.585,422.885a.643.643,0,0,0,0-1.285.643.643,0,0,0,0,1.285Z" transform="translate(-517.975 -421.6)"/>
          </g>
        </g>
        <g id="Group_433" data-name="Group 433" transform="translate(61.157 46.647)">
          <g id="Group_432" data-name="Group 432">
            <path id="Path_264" data-name="Path 264" d="M512.285,427.785a.643.643,0,0,0,0-1.285.643.643,0,0,0,0,1.285Z" transform="translate(-511.675 -426.5)"/>
          </g>
        </g>
        <g id="Group_435" data-name="Group 435" transform="translate(75.675 47.076)">
          <g id="Group_434" data-name="Group 434">
            <path id="Path_265" data-name="Path 265" d="M546.185,428.785a.643.643,0,0,0,0-1.285.643.643,0,0,0,0,1.285Z" transform="translate(-545.575 -427.5)"/>
          </g>
        </g>
        <g id="Group_437" data-name="Group 437" transform="translate(79.411 46.776)">
          <g id="Group_436" data-name="Group 436">
            <path id="Path_266" data-name="Path 266" d="M554.942,428.085a.643.643,0,0,0,0-1.285.643.643,0,0,0,0,1.285Z" transform="translate(-554.3 -426.8)"/>
          </g>
        </g>
        <g id="Group_439" data-name="Group 439" transform="translate(76.274 50.373)">
          <g id="Group_438" data-name="Group 438">
            <path id="Path_267" data-name="Path 267" d="M547.585,436.485a.643.643,0,0,0,0-1.285.643.643,0,0,0,0,1.285Z" transform="translate(-546.975 -435.2)"/>
          </g>
        </g>
        <g id="Group_441" data-name="Group 441" transform="translate(49.52 66.192)">
          <g id="Group_440" data-name="Group 440">
            <path id="Path_268" data-name="Path 268" d="M488.912,472.336l-4.24,4.882c-.557.642.385,1.542.9.9l4.24-4.882c.557-.6-.343-1.5-.9-.9Z" transform="translate(-484.502 -472.138)"/>
          </g>
        </g>
        <g id="Group_443" data-name="Group 443" transform="translate(41.931 65.956)">
          <g id="Group_442" data-name="Group 442">
            <path id="Path_269" data-name="Path 269" d="M466.832,472.578a9.945,9.945,0,0,0,7.323,5.867c.814.171,1.156-1.071.343-1.242a8.767,8.767,0,0,1-6.552-5.267c-.3-.771-1.413-.129-1.113.642Z" transform="translate(-466.781 -471.587)"/>
          </g>
        </g>
      </g>
    </g>
    <g id="guy" transform="translate(462.669 98.706)">
      <g id="leg_right" transform="translate(0 250.537)">
        <path id="Path_270" data-name="Path 270" d="M1130.725,870a73.293,73.293,0,0,0,7.366,3.854,68.606,68.606,0,0,0,16.659,5.1c.857,1.542,2.1,3.769,3.555,6.424,3.94,7.195,6.98,12.891,7.794,14.347,6.552,12.291,15.717,31.305,17.087,34.175a8.768,8.768,0,0,1-5.053.985,9.683,9.683,0,0,1-5.653-3.169c-6.724-6.253-8.693-8.865-8.693-8.865-4.54-6-8.951-11.349-17.815-21.969-2.27-2.7-4.111-4.839-5.225-6.124-4.8-.428-9.593-.857-14.347-1.328C1127.856,885.631,1129.312,877.794,1130.725,870Z" transform="translate(-1038.453 -811.729)"/>
        <path id="Path_271" data-name="Path 271" d="M1047.358,737.3c-9.25.343-16.573.343-19.614.3-4.026-.043-9.807-.128-35.2-1.456-12.12-.642-14.218-.771-19.957-.942-9.636-.3-18.5-.3-28.993,1.756-6.852,1.328-10.235,2.7-13.319,5.139a20.491,20.491,0,0,0-7.452,11.306c-.214,1.028-.728,3.554.086,8.565a49.921,49.921,0,0,0,6.766,17.987c3.169,5.225,7.28,10.15,14.09,16.017,3.9,3.34,12.762,10.578,31.091,19.485a243.112,243.112,0,0,0,35.8,14.047,72.887,72.887,0,0,1-.856-8.908c-.3-8.437.942-14.86,2.056-20.727a129.029,129.029,0,0,1,4.411-16.573c-3.041-1.713-6.038-3.469-9.079-5.182a169.831,169.831,0,0,0,22.269,2.484c13.19.642,22.655-.385,33.875-1.627,8.908-.985,13.447-1.5,15.845-2.955,12.505-7.623,16.573-31.348,8.265-39.1C1082.9,732.588,1077.55,736.143,1047.358,737.3Z" transform="translate(-921.853 -734.444)" fill="#fff"/>
        <path id="Path_272" data-name="Path 272" d="M1063.415,828.579a121.241,121.241,0,0,1-20.214-11.691c-17.216-12.334-32.5-30.278-29.892-33.661,1.413-1.8,7.28,1.542,16.4,4.925,23,8.479,42.825,8.222,56.7,8.008a174.931,174.931,0,0,0,56.016-10.15,23.847,23.847,0,0,1-6.852,13.49,21.945,21.945,0,0,1-8.736,4.925c-14.989,4.925-32.761,4.368-38.072,4.154-8.137-.343-18.629-.985-30.791-2.313l10.792,3.6C1067.013,816.074,1065.214,822.327,1063.415,828.579Z" transform="translate(-973.627 -761.829)" fill="#898989" opacity="0.13"/>
        <g id="Group_445" data-name="Group 445">
          <g id="Group_444" data-name="Group 444">
            <path id="Path_273" data-name="Path 273" d="M1041.532,736.018c-18.586.942-37.044-.343-55.587-1.413-9.293-.514-18.586-.9-27.879-.514-8.051.343-16.488,1.028-23.939,4.2-6.167,2.612-11.391,7.195-12.676,14-1.328,7.109.728,14.818,3.64,21.327,6.51,14.475,19.186,24.8,32.462,32.89,16.231,9.85,33.746,18.158,52.161,23.083a.644.644,0,0,0,.343-1.242c-15.8-4.2-30.749-11.006-44.967-18.972-13.576-7.58-27.066-16.573-35.459-29.978a45.055,45.055,0,0,1-7.195-20.9c-.257-4.111.3-8.308,2.655-11.777a20.6,20.6,0,0,1,8.094-6.6c7.237-3.554,15.76-4.325,23.682-4.711,8.565-.428,17.173-.171,25.7.257,19.7,1.028,39.228,2.57,58.97,1.585.814,0,.857-1.285,0-1.242Z" transform="translate(-921.037 -733.934)"/>
          </g>
        </g>
        <g id="Group_447" data-name="Group 447" transform="translate(39.106 20.745)">
          <g id="Group_446" data-name="Group 446">
            <path id="Path_274" data-name="Path 274" d="M1012.672,783.585a285.6,285.6,0,0,0,55.544,26.68c.771.257,1.113-.985.343-1.242a286.357,286.357,0,0,1-55.245-26.552.643.643,0,0,0-.642,1.113Z" transform="translate(-1012.352 -782.375)"/>
          </g>
        </g>
        <g id="Group_449" data-name="Group 449" transform="translate(87.847 47.173)">
          <g id="Group_448" data-name="Group 448">
            <path id="Path_275" data-name="Path 275" d="M1132.99,844.52a109.1,109.1,0,0,0-6.467,46.851c.086.814,1.37.814,1.285,0a106.888,106.888,0,0,1,6.424-46.508c.3-.771-.942-1.114-1.242-.343Z" transform="translate(-1126.165 -844.085)"/>
          </g>
        </g>
        <g id="Group_451" data-name="Group 451" transform="translate(91.647 57.582)">
          <g id="Group_450" data-name="Group 450">
            <path id="Path_276" data-name="Path 276" d="M1135.237,869.509c2.655,2.612,7.195,3.94,10.664,5.139a80.516,80.516,0,0,0,13.447,3.469c.814.129,1.156-1.113.343-1.242a76.6,76.6,0,0,1-11.991-2.955c-2.141-.728-4.283-1.542-6.338-2.441-1.8-.771-3.812-1.5-5.182-2.912-.642-.557-1.542.343-.942.942Z" transform="translate(-1135.04 -868.392)"/>
          </g>
        </g>
        <g id="Group_453" data-name="Group 453" transform="translate(115.704 66.558)">
          <g id="Group_452" data-name="Group 452">
            <path id="Path_277" data-name="Path 277" d="M1191.293,890.315q14.775,26.595,28.522,53.789c.385.728,1.5.086,1.114-.642q-13.747-27.173-28.522-53.789c-.385-.728-1.5-.086-1.113.642Z" transform="translate(-1191.213 -889.352)"/>
          </g>
        </g>
        <g id="Group_455" data-name="Group 455" transform="translate(87.942 80.231)">
          <g id="Group_454" data-name="Group 454">
            <path id="Path_278" data-name="Path 278" d="M1126.992,922.53c3.426.471,6.895.9,10.321,1.37,1.456.214,2.869.3,4.026,1.37a13.533,13.533,0,0,1,1.584,1.927c.9,1.2,1.842,2.4,2.741,3.6,3.9,5.182,7.794,10.321,11.948,15.331a123.769,123.769,0,0,0,13.533,14.09c3.3,2.869,8.222,7.195,12.548,3.512.642-.557-.3-1.456-.9-.9-3.212,2.741-7.066-.428-9.593-2.527a88.128,88.128,0,0,1-6.852-6.424,169.93,169.93,0,0,1-12.077-13.961c-3.769-4.8-7.28-9.893-11.177-14.6-1.584-1.927-3.34-2.355-5.739-2.655-3.426-.471-6.895-.9-10.321-1.37-.856-.129-.856,1.156-.043,1.242Z" transform="translate(-1126.387 -921.279)"/>
          </g>
        </g>
        <g id="Group_457" data-name="Group 457" transform="translate(85.812 41.338)">
          <g id="Group_456" data-name="Group 456">
            <path id="Path_279" data-name="Path 279" d="M1121.879,833.947a202.411,202.411,0,0,0,70.191-2.227c.814-.171.471-1.413-.343-1.242a200.578,200.578,0,0,1-69.505,2.227c-.814-.128-1.156,1.113-.343,1.242Z" transform="translate(-1121.414 -830.462)"/>
          </g>
        </g>
      </g>
      <g id="hand_right" transform="translate(53.995 82.323)">
        <path id="Path_280" data-name="Path 280" d="M1069.721,373.657c.171-2.484.3-5.653.214-9.293-.086-4.325-.343-3.769-.728-10.535-.385-6.724-.3-9.422-1.97-10.235a2.68,2.68,0,0,0-2.484.171c-.471.3-1.113.942-1.713,5.739-.343,2.784-.171,3.126-.642,3.683-1.2,1.456-3.041.3-5.31,1.841-1.328.9-.9,1.413-2.784,3.3-1.97,1.97-2.57,1.542-3.854,3.083a8.147,8.147,0,0,0-1.841,5.953c.086.6.343,2.441,1.5,2.912,1.113.471,2.056-.728,2.826-.3.857.428.514,2.141.385,5.4-.129,3.64-.214,5.567.557,7.452a9.023,9.023,0,0,0,2.955,3.769c.257,1.456.6,3.683.9,6.424.985,9.507.043,14.175,0,20.685a78.955,78.955,0,0,0,4.111,24.068,94.668,94.668,0,0,0,7.109,17.044,29.63,29.63,0,0,0,10.278-1.071c4.625-1.37,7.452-3.469,13.147-7.88,10.449-8.051,15.717-12.162,17.858-14.346,8.522-8.694,9.764-13.447,10.15-15.674.3-1.713,1.328-7.366-1.713-9.679-2.527-1.927-6.509-.557-8.18,0-3.212,1.071-4.882,2.784-7.751,5.182-5.4,4.5-5.653,3.64-10.792,7.751a81.842,81.842,0,0,0-12.291,12.291c-.3-1.585-.814-4.068-1.5-7.109-1.328-5.953-2.4-9.636-3-12.077-1.927-7.452-2.655-13.533-4.111-25.652C1070.62,383.207,1070.149,378.839,1069.721,373.657Z" transform="translate(-1047.931 -342.412)" fill="#fff"/>
        <path id="Path_281" data-name="Path 281" d="M1082.674,342.9a49.411,49.411,0,0,1-.471,12.762,50.387,50.387,0,0,1-5.182,15.289,8.472,8.472,0,0,0-.428,5.182,8.918,8.918,0,0,0,4.539,5.61c1.37,7.195,2.741,14.346,4.111,21.541,2.355,12.548,4.668,25.138,6.895,37.686,3.983-3.512,8.008-7.023,12.077-10.578q14.2-12.269,28.222-23.9c-2.013-.343-4.026-.728-6.038-1.071-1.542.985-3.683,2.355-6.252,4.111a125.631,125.631,0,0,0-15.931,12.291,96.97,96.97,0,0,0-8.608,9.036c-.385-2.484-1.071-6.124-2.141-10.578-1.413-5.7-1.97-6.381-3-10.578-1.627-6.6-.471-6.124-2.355-17.473-2.013-12.205-2.141-12.933-2.141-12.933a42.891,42.891,0,0,1-.642-4.539,35.042,35.042,0,0,1,.642-10.15C1086.528,361.1,1086.443,354.763,1082.674,342.9Z" transform="translate(-1063.839 -342.147)" fill="#a5a4a4" opacity="0.18"/>
        <g id="Group_459" data-name="Group 459" transform="translate(31.036 61.014)">
          <g id="Group_458" data-name="Group 458">
            <path id="Path_282" data-name="Path 282" d="M1153.941,483.693a159.3,159.3,0,0,0-34.175,26.809c-.557.6.343,1.5.9.9a158.194,158.194,0,0,1,33.918-26.595c.728-.385.086-1.5-.642-1.113Z" transform="translate(-1119.591 -483.613)"/>
          </g>
        </g>
        <g id="Group_461" data-name="Group 461" transform="translate(22.131 38.728)">
          <g id="Group_460" data-name="Group 460">
            <path id="Path_283" data-name="Path 283" d="M1108.263,485.16c1.156-3.854.6-7.709-.428-11.52-1.2-4.5-2.57-8.951-3.6-13.49a176.265,176.265,0,0,1-4.154-27.965c-.043-.814-1.328-.814-1.285,0a183.2,183.2,0,0,0,3.683,25.909c.942,4.325,2.056,8.608,3.3,12.848,1.328,4.539,2.741,9.207,1.285,13.918-.257.728.985,1.071,1.2.3Z" transform="translate(-1098.797 -431.575)"/>
          </g>
        </g>
        <g id="Group_463" data-name="Group 463" transform="translate(12.276 28.008)">
          <g id="Group_462" data-name="Group 462">
            <path id="Path_284" data-name="Path 284" d="M1086.926,417.23c-.728-3.512-2.484-11.734-7.794-10.578a4.11,4.11,0,0,0-3.34,3.94c.171,2.655,2.826,1.8,4.24,3.212.6.6,1.5-.343.9-.9-.728-.728-1.456-.728-2.313-1.113-3.3-1.413.3-5.053,2.869-3.512,2.741,1.627,3.6,6.424,4.2,9.293.171.814,1.413.471,1.242-.343Z" transform="translate(-1075.784 -406.542)"/>
          </g>
        </g>
        <g id="Group_465" data-name="Group 465" transform="translate(14.825)">
          <g id="Group_464" data-name="Group 464">
            <path id="Path_285" data-name="Path 285" d="M1089.215,374.442a107.34,107.34,0,0,0-1.67-30.063c-.214-1.113-.428-2.57-1.627-3.083a2.432,2.432,0,0,0-2.869,1.113c-.942,1.456-.942,3.726-1.113,5.4a46.939,46.939,0,0,0-.043,8.137c.043.814,1.328.814,1.285,0a50.585,50.585,0,0,1-.129-5.7c.086-1.756-.086-4.5.685-6.038.043-.171.086-.385.129-.557,1.456-.9,2.184-.814,2.27.257a8.512,8.512,0,0,1,.471,2.4c.385,2.056.685,4.154.942,6.253a109.958,109.958,0,0,1,.385,21.884c-.086.814,1.2.814,1.285,0Z" transform="translate(-1081.737 -341.142)"/>
          </g>
        </g>
        <g id="Group_467" data-name="Group 467" transform="translate(9.336 9.649)">
          <g id="Group_466" data-name="Group 466">
            <path id="Path_286" data-name="Path 286" d="M1074.607,364.455c-.985-2.141-3.64.685-4.283,1.67a9.5,9.5,0,0,0-.685,8.651c.642,1.585,2.141,3.726,4.026,2.484,2.484-1.585,2.184-6.766,1.884-9.207-.086-.814-1.37-.814-1.285,0a16.462,16.462,0,0,1-.129,5.225,5.214,5.214,0,0,1-.557,1.97c-1.028,1.456-2.27.3-2.741-.857a8.389,8.389,0,0,1-.471-5.31,7.262,7.262,0,0,1,1.028-2.27c.214-.3,1.842-2.184,2.056-1.67.385.728,1.5.086,1.156-.685Z" transform="translate(-1068.92 -363.673)"/>
          </g>
        </g>
        <g id="Group_469" data-name="Group 469" transform="translate(5.327 11.415)">
          <g id="Group_468" data-name="Group 468">
            <path id="Path_287" data-name="Path 287" d="M1065.7,367.8c-4.625.214-6.638,4.754-6.038,8.865.257,1.713.857,3.469,2.741,3.9a3.11,3.11,0,0,0,3.683-2.612c.171-.814-1.071-1.156-1.242-.343-.857,3.726-3.6.857-3.9-.942a8.768,8.768,0,0,1,.043-3.34,5.1,5.1,0,0,1,4.711-4.24c.856-.043.856-1.328,0-1.285Z" transform="translate(-1059.559 -367.798)"/>
          </g>
        </g>
        <g id="Group_471" data-name="Group 471" transform="translate(1.199 15.278)">
          <g id="Group_470" data-name="Group 470">
            <path id="Path_288" data-name="Path 288" d="M1054.922,376.854c-2.912.9-5.61,3.9-4.882,7.152a3.332,3.332,0,0,0,6.21.9.643.643,0,0,0-1.114-.642,2.059,2.059,0,0,1-3.6.171,3.628,3.628,0,0,1-.043-2.912,5.591,5.591,0,0,1,3.769-3.426c.771-.257.471-1.5-.343-1.242Z" transform="translate(-1049.919 -376.819)"/>
          </g>
        </g>
        <g id="Group_473" data-name="Group 473" transform="translate(0 20.203)">
          <g id="Group_472" data-name="Group 472">
            <path id="Path_289" data-name="Path 289" d="M1048.567,388.61c-1.413,1.927-2.313,5.739-.171,7.58a2.515,2.515,0,0,0,2.869.214,5.312,5.312,0,0,0,2.141-3.383c.257-.771-.985-1.113-1.242-.343a4.772,4.772,0,0,1-1.113,2.227c-1.071,1.028-2.184.385-2.527-.9a5.644,5.644,0,0,1,1.114-4.711c.514-.728-.6-1.37-1.071-.685Z" transform="translate(-1047.119 -388.319)"/>
          </g>
        </g>
        <g id="Group_475" data-name="Group 475" transform="translate(3.781 26.215)">
          <g id="Group_474" data-name="Group 474">
            <path id="Path_290" data-name="Path 290" d="M1056.014,403.359c2.484,5.4-1.927,14.261,5.182,17.259.771.3,1.113-.942.343-1.242-3.726-1.585-3.554-6.124-3.383-9.507a15.205,15.205,0,0,0-1.028-7.195c-.343-.728-1.456-.086-1.114.685Z" transform="translate(-1055.949 -402.355)"/>
          </g>
        </g>
        <g id="Group_477" data-name="Group 477" transform="translate(8.241 43.541)">
          <g id="Group_476" data-name="Group 476">
            <path id="Path_291" data-name="Path 291" d="M1066.378,443.621c1.456,5.867.685,11.948.642,17.944a122.1,122.1,0,0,0,1.071,17.259,120.6,120.6,0,0,0,9.036,32.033c.343.771,1.456.086,1.113-.642a119.5,119.5,0,0,1-9.165-33.746,118.1,118.1,0,0,1-.771-16.488c.129-5.61.685-11.177-.685-16.7-.171-.814-1.413-.471-1.242.343Z" transform="translate(-1066.362 -442.814)"/>
          </g>
        </g>
        <g id="Group_479" data-name="Group 479" transform="translate(19.397 71.908)">
          <g id="Group_478" data-name="Group 478">
            <path id="Path_292" data-name="Path 292" d="M1092.879,549.971c12.162,2.741,22.869-7.066,31.648-13.961,5.182-4.068,10.235-8.265,15.117-12.676,4.325-3.94,8.394-8.18,11.263-13.319a.643.643,0,0,0-1.113-.642,50.243,50.243,0,0,1-10.535,12.548c-4.411,4.026-9.036,7.88-13.7,11.648a162.363,162.363,0,0,1-14.561,10.835c-5.31,3.383-11.434,5.781-17.772,4.325-.814-.171-1.156,1.071-.343,1.242Z" transform="translate(-1092.414 -509.052)"/>
          </g>
        </g>
      </g>
      <g id="lighting_bolt" transform="translate(49.227)">
        <path id="Path_293" data-name="Path 293" d="M1088.913,228.095a5.177,5.177,0,0,0,.471-2.741c-.257-1.97-1.8-3.169-2.912-4.368-1.756-1.841-2.355-3.683-3.812-7.152-.771-1.841-3.3-7.88-.642-13.833a14.519,14.519,0,0,1,6.552-6.809c1.156-.6,5.7-2.826,10.107-.857,3.64,1.67,5.011,5.225,6.167,8.308a22,22,0,0,1,.814,12.548,17.143,17.143,0,0,1-2.527,6.252c-1.156,1.67-2.056,2.227-2.955,3.94a12.151,12.151,0,0,0-1.37,5.439c.814,0,1.627.043,2.441.043-.086,1.156-.214,2.27-.3,3.426-1.841-.428-2.527-.214-2.784.128-.428.642.557,1.67.129,2.57-.129.257-.514.814-2.827,1.156-2.141.3-5.4.771-6.338-.771-.514-.857.129-1.627-.514-2.484a3.214,3.214,0,0,0-2.655-.942c-.814-2.27-.685-3.041-.343-3.255.3-.214.728.043,1.627-.043A3.337,3.337,0,0,0,1088.913,228.095Z" transform="translate(-1061.627 -173.284)" fill="#fff"/>
        <g id="Group_481" data-name="Group 481" transform="translate(31.269 40.068)">
          <g id="Group_480" data-name="Group 480">
            <path id="Path_294" data-name="Path 294" d="M1110.584,256.918c-.086-4.625-.214-9.207-.3-13.833a.643.643,0,0,0-1.285,0c.086,4.625.214,9.207.3,13.833a.643.643,0,0,0,1.285,0Z" transform="translate(-1109 -242.475)"/>
          </g>
        </g>
        <g id="Group_483" data-name="Group 483" transform="translate(26.132 33.565)">
          <g id="Group_482" data-name="Group 482">
            <path id="Path_295" data-name="Path 295" d="M1097.174,229.178c1.584,1.884,3.3,3.726,5.053,5.482a.621.621,0,0,0,.9,0l3.726-3.983a9.834,9.834,0,0,0,2.227-2.57c.171-.428-.257-.771-.6-.814h-.043a.6.6,0,0,0-.6.471v.043c-.171.814,1.071,1.156,1.242.343v-.043a7.337,7.337,0,0,0-.6.471h.043a9.874,9.874,0,0,1-.6-.814c-.343.9-2.056,2.184-2.741,2.912-.942,1.028-1.884,2.056-2.869,3.041h.9c-1.756-1.756-3.426-3.6-5.053-5.482a.683.683,0,0,0-.985.942Z" transform="translate(-1097.004 -227.289)"/>
          </g>
        </g>
        <g id="Group_485" data-name="Group 485" transform="translate(31.096 29.576)">
          <g id="Group_484" data-name="Group 484">
            <path id="Path_296" data-name="Path 296" d="M1109.883,228.349c.171-3.255.257-6.509.343-9.764a.643.643,0,0,0-1.285,0c-.086,3.255-.171,6.509-.343,9.764-.043.814,1.242.814,1.285,0Z" transform="translate(-1108.598 -217.975)"/>
          </g>
        </g>
        <g id="Group_487" data-name="Group 487" transform="translate(0 21.04)">
          <g id="Group_486" data-name="Group 486">
            <path id="Path_297" data-name="Path 297" d="M1036.42,199.309c3.94,1.028,7.623,3.469,11.22,5.31.728.385,1.37-.728.642-1.113-3.726-1.927-7.452-4.411-11.52-5.439a.646.646,0,0,0-.343,1.242Z" transform="translate(-1035.985 -198.042)"/>
          </g>
        </g>
        <g id="Group_489" data-name="Group 489" transform="translate(14.006 13.226)">
          <g id="Group_488" data-name="Group 488">
            <path id="Path_298" data-name="Path 298" d="M1074.862,186.008c-1.713-2.013-3.383-3.983-5.1-6-.557-.642-1.456.3-.9.9,1.713,2.013,3.383,3.983,5.1,6,.557.642,1.456-.3.9-.9Z" transform="translate(-1068.691 -179.797)"/>
          </g>
        </g>
        <g id="Group_491" data-name="Group 491" transform="translate(33.62)">
          <g id="Group_490" data-name="Group 490">
            <path id="Path_299" data-name="Path 299" d="M1115.779,162.055a91.709,91.709,0,0,1,1.627-12.334c.171-.814-1.071-1.156-1.242-.343a104.75,104.75,0,0,0-1.67,12.676c-.086.814,1.2.814,1.285,0Z" transform="translate(-1114.49 -148.914)"/>
          </g>
        </g>
        <g id="Group_493" data-name="Group 493" transform="translate(48.672 12.431)">
          <g id="Group_492" data-name="Group 492">
            <path id="Path_300" data-name="Path 300" d="M1150.735,186.318c2.826-2.527,5.739-4.968,8.651-7.323.642-.514-.257-1.413-.9-.9-2.912,2.4-5.824,4.839-8.651,7.323-.6.557.3,1.456.9.9Z" transform="translate(-1149.638 -177.942)"/>
          </g>
        </g>
        <g id="Group_495" data-name="Group 495" transform="translate(54.504 28.213)">
          <g id="Group_494" data-name="Group 494">
            <path id="Path_301" data-name="Path 301" d="M1164.046,219.977c3.512-1.242,6.98-2.527,10.449-3.9.771-.3.428-1.542-.343-1.242-3.469,1.37-6.938,2.655-10.449,3.9-.771.257-.471,1.5.343,1.242Z" transform="translate(-1163.257 -214.792)"/>
          </g>
        </g>
        <g id="Group_497" data-name="Group 497" transform="translate(4.166 38.673)">
          <g id="Group_496" data-name="Group 496">
            <path id="Path_302" data-name="Path 302" d="M1046.521,242.68c2.184-.728,4.411-1.456,6.6-2.184.771-.257.428-1.5-.343-1.242-2.184.728-4.411,1.456-6.6,2.184a.644.644,0,0,0,.343,1.242Z" transform="translate(-1045.714 -239.219)"/>
          </g>
        </g>
        <g id="Group_499" data-name="Group 499" transform="translate(23.318 54.874)">
          <g id="Group_498" data-name="Group 498">
            <path id="Path_303" data-name="Path 303" d="M1090.548,277.97c.771,1.071-.3,2.527.642,3.64a3.125,3.125,0,0,0,2.4.9c4.2.214,8.608-.428,12.848-.6.814-.043.814-1.328,0-1.285l-10.278.514c-1.585.086-3.812.728-4.154-1.413-.171-.985.3-1.456-.343-2.355-.471-.728-1.585-.086-1.113.6Z" transform="translate(-1090.434 -277.049)"/>
          </g>
        </g>
        <g id="Group_501" data-name="Group 501" transform="translate(24.406 54.725)">
          <g id="Group_500" data-name="Group 500">
            <path id="Path_304" data-name="Path 304" d="M1093.585,277.985l14.6.257-.642-.642a8.393,8.393,0,0,1-.086,2.527c-.171.814,1.071,1.156,1.242.343a8.1,8.1,0,0,0,.129-2.869.659.659,0,0,0-.642-.642l-14.6-.257a.643.643,0,0,0,0,1.285Z" transform="translate(-1092.975 -276.7)"/>
          </g>
        </g>
        <g id="Group_503" data-name="Group 503" transform="translate(26.343 59.298)">
          <g id="Group_502" data-name="Group 502">
            <path id="Path_305" data-name="Path 305" d="M1097.927,287.645a2.4,2.4,0,0,0,.257,3.041c1.2,1.285,3.3,1.071,4.882,1.028,1.5-.043,3.555.086,4.8-.985a2.32,2.32,0,0,0,.471-3.041c-.471-.685-1.585-.043-1.114.642,1.37,2.056-3.512,2.056-4.154,2.1-.985.043-5.653.171-4.026-2.141.471-.642-.642-1.285-1.113-.642Z" transform="translate(-1097.498 -287.379)"/>
          </g>
        </g>
        <g id="Group_505" data-name="Group 505" transform="translate(18.635 17.953)">
          <g id="Group_504" data-name="Group 504">
            <path id="Path_306" data-name="Path 306" d="M1088.75,227.864c.771-3.512-1.8-6.3-3.469-9.122-2.056-3.469-3.9-7.237-4.368-11.306a14.791,14.791,0,0,1,2.4-10.364c2.527-3.469,6.938-4.839,11.092-4.882,8.522-.128,10.15,10.364,10.107,16.959a17.747,17.747,0,0,1-4.283,11.606c-1.884,2.4-3.426,4.968-2.784,8.094.171.814,1.413.471,1.242-.343-.856-4.111,2.869-6.852,4.8-10.021a17.071,17.071,0,0,0,2.313-8.308c.214-5.182-.557-11.863-3.94-16.017-3.512-4.368-9.978-3.854-14.646-1.756-5.182,2.27-7.709,7.666-7.709,13.147a23.261,23.261,0,0,0,2.355,9.55,45.031,45.031,0,0,0,2.869,5.268c1.328,2.141,3.34,4.5,2.784,7.195-.171.771,1.071,1.113,1.242.3Z" transform="translate(-1079.5 -190.834)"/>
          </g>
        </g>
      </g>
      <g id="torso" transform="translate(115.225 132.053)">
        <path id="Path_307" data-name="Path 307" d="M1191.725,469.357a67.8,67.8,0,0,1,33.489-11.905,68.684,68.684,0,0,1,42.526,11.22,221.984,221.984,0,0,1,1.071,26.38c-.428,20.813-3.6,30.363-4.711,48.735a204.92,204.92,0,0,0,1.456,39.271,89.724,89.724,0,0,1-66.765-3.854c-.343-6.253-.985-15.717-2.355-27.194-1.627-13.533-3.3-22.44-4.154-27.451C1190.311,512.4,1188.813,494.239,1191.725,469.357Z" transform="translate(-1190.095 -457.266)" fill="#1f1f1f"/>
      </g>
      <g id="leg_left" transform="translate(49.821 241.04)">
        <path id="Path_308" data-name="Path 308" d="M1085.237,896.7c-3.255,1.285-5.953,2.184-7.837,2.784-8.137,2.57-11.477,2.655-15.246,5.739a21.72,21.72,0,0,0-4.24,5.053c-3.34,4.968-5.61,9.764-8.95,18.543a185.273,185.273,0,0,0-7.794,23.982c-1.071,4.368-1.8,8.094-2.27,10.878a41.842,41.842,0,0,0,8.137-4.839c9.036-6.852,11.392-14.432,20.728-28.136,1.927-2.826,4.882-7.023,8.908-11.948a30.252,30.252,0,0,1,10.449-4.8,30.746,30.746,0,0,1,8.094-.728c-.343-1.456-.728-2.912-1.071-4.368C1091.19,904.794,1088.235,900.768,1085.237,896.7Z" transform="translate(-1038.246 -817.498)"/>
        <path id="Path_309" data-name="Path 309" d="M1131.3,783.96a23.748,23.748,0,0,1,2.355,1.37c4.068,2.826,5.91,6.509,7.237,9.036,6.038,11.563,7.238,10.621,11.049,19.7,1.584,3.769,2.655,6.981,3.34,9.208,2.655-1.028,6.552-2.612,11.22-4.8,10.878-5.1,18.715-10.064,42.868-27.323,20.214-14.475,3.555-3,34.689-26.509a81.219,81.219,0,0,0,16.1-16.573c4.8-6.51,6.253-10.535,6.681-14.347.3-2.441,1.071-8.693-2.955-13.875a16.4,16.4,0,0,0-7.58-5.31c-3.555-1.328-8.394-1.841-16.745.771-8.522,2.7-14.475,6.724-25.267,14.775-8.351,6.252-13.447,10.321-17.773,13.661-14.132,11.006-26.038,20.3-41.326,28.864A217.634,217.634,0,0,1,1131.3,783.96Z" transform="translate(-1091.075 -712.723)" fill="#fff"/>
        <path id="Path_310" data-name="Path 310" d="M1286.986,728.8a125.37,125.37,0,0,1-9.678,18.158c-17.516,27.323-41.241,40.941-56.187,49.292a198.485,198.485,0,0,1-49.72,19.486c1.156,2.141,2.313,4.5,3.426,7.109a84.617,84.617,0,0,1,3.34,9.208,220.905,220.905,0,0,0,20.128-9.422c11.777-6.3,15.417-9.636,41.883-28.693,0,0,15.888-11.391,34.688-27.708a53.988,53.988,0,0,0,11.648-14.818c2.955-5.567,3.383-8.865,3.469-10.878A21.72,21.72,0,0,0,1286.986,728.8Z" transform="translate(-1114.002 -721.501)" fill="#969696" opacity="0.18"/>
        <g id="Group_507" data-name="Group 507" transform="translate(40.363)">
          <g id="Group_506" data-name="Group 506">
            <path id="Path_311" data-name="Path 311" d="M1132.64,783.337A280.946,280.946,0,0,0,1186,751.56c8.222-6.167,16.188-12.676,24.453-18.758,7.966-5.867,16.231-11.734,25.181-16.059,8.479-4.068,20.727-6.3,27.579,2.013s2.484,19.742-3,27.408c-5.824,8.18-13.447,14.818-21.284,20.942-8.351,6.552-16.916,12.89-25.438,19.271-18.158,13.661-36.787,27.194-58.2,35.288-.771.3-.428,1.542.343,1.242,19.828-7.494,37.344-19.614,54.26-32.2,8.993-6.724,17.987-13.49,26.894-20.342,8.008-6.124,15.931-12.591,22.226-20.513,5.61-7.023,10.621-15.931,8.394-25.267-2.1-8.694-10.278-13.147-18.843-12.8-10.064.385-19.357,6.6-27.494,11.948-8.822,5.824-17.173,12.334-25.524,18.843a366.985,366.985,0,0,1-30.535,21.927,269.976,269.976,0,0,1-33.1,17.73c-.685.343-.043,1.456.728,1.113Z" transform="translate(-1131.621 -711.757)"/>
          </g>
        </g>
        <g id="Group_509" data-name="Group 509" transform="translate(39.579 70.598)">
          <g id="Group_508" data-name="Group 508">
            <path id="Path_312" data-name="Path 312" d="M1130.137,877.8c3.555,1.5,5.867,5.31,8.051,8.351,2.141,2.955,4.111,6,5.953,9.079a120.622,120.622,0,0,1,9.636,20.47c.3.771,1.542.428,1.242-.343a124.353,124.353,0,0,0-10.15-21.456,119.1,119.1,0,0,0-6.681-9.978c-2.056-2.741-4.111-5.91-7.366-7.28-.814-.257-1.456.814-.685,1.156Z" transform="translate(-1129.791 -876.608)"/>
          </g>
        </g>
        <g id="Group_511" data-name="Group 511" transform="translate(0 78.525)">
          <g id="Group_510" data-name="Group 510">
            <path id="Path_313" data-name="Path 313" d="M1084.192,895.154c-3.9,1.37-7.751,2.741-11.648,4.154-3.512,1.242-7.323,2.27-10.664,3.94-2.784,1.37-4.325,3.811-5.781,6.467-1.884,3.383-3.6,6.809-5.268,10.278a171.017,171.017,0,0,0-13.447,42.568c-.086.428.3.985.771.771,5.781-2.013,10.192-6.21,13.918-10.92,4.54-5.739,8.565-11.905,12.548-18.029,3.64-5.567,6.809-12.077,11.948-16.488a19.2,19.2,0,0,1,8.822-4.068c3.041-.642,6.038-1.156,8.608-3.041.685-.471.043-1.585-.642-1.113-2.741,1.97-6.038,2.355-9.25,3.126a19.1,19.1,0,0,0-7.452,3.426c-4.754,3.64-7.751,9.079-10.878,14.047-4.026,6.338-8.222,12.634-12.676,18.715-4.026,5.482-8.651,10.835-15.246,13.1l.771.771a170.6,170.6,0,0,1,12.676-40.855c1.456-3.169,3-6.252,4.625-9.336,1.67-3.169,3.255-6.724,6.6-8.394,3.512-1.713,7.494-2.784,11.135-4.068,3.6-1.285,7.238-2.57,10.835-3.854.814-.214.514-1.456-.3-1.2Z" transform="translate(-1037.372 -895.119)"/>
          </g>
        </g>
      </g>
      <g id="folder" transform="translate(65.892 194.378)">
        <path id="Path_314" data-name="Path 314" d="M1074.9,603.014q8.222,41.433,16.488,82.867l65.094,3.469q-6.488-43.3-12.933-86.55Q1109.246,602.928,1074.9,603.014Z" transform="translate(-1074.9 -602.8)" fill="#fff" stroke="#000" stroke-miterlimit="10" stroke-width="3"/>
        <path id="Path_315" data-name="Path 315" d="M1188.471,602.843a236.97,236.97,0,0,1,2.912,25.31,243.446,243.446,0,0,1-3.683,59.442q16.638.9,33.318,1.756-6.488-43.3-12.933-86.55C1201.533,602.843,1194.98,602.843,1188.471,602.843Z" transform="translate(-1139.393 -602.8)" fill="#898989" opacity="0.22"/>
      </g>
      <g id="hand_left" transform="translate(99.475 142.388)">
        <path id="Path_316" data-name="Path 316" d="M1234.5,485.632c-1.67,1.627-2.013,3.811-2.227,7.409a77.567,77.567,0,0,0,.814,16.188c1.542,8.265,1.97,16.7,3.041,25.01,1.242,9.507,1.8,14.346-.642,18.586a23.566,23.566,0,0,1-6.3,6.724,27.437,27.437,0,0,1-9.678,4.411c-5.139,1.456-12.291,3.34-21.327,5.1a24.35,24.35,0,0,0-6.6-6.081c-2.355-1.456-6.167-3.9-8.479-2.441a3.32,3.32,0,0,0-1.456,3.34c.471,1.413,2.484,1.2,3.683,2.912a5.029,5.029,0,0,1,.685,3.34,55.5,55.5,0,0,1-7.323.985c-5.91.385-7.537-.385-12.5,0s-11.349,1.8-11.392,3.34c0,1.113,3.34,1.97,4.283,2.227,2.612.685,3.983.343,7.58.557,2.869.171,6.21.642,6.21.985,0,.771-16.659-.385-17.516,3.6-.257,1.156.856,2.313,1.627,3.126.857.942,2.741,2.527,11.092,3.34,1.713.171,4.068.343,6.852.343-2.484,1.242-4.925,2.484-7.409,3.726a2.113,2.113,0,0,0,.257,1.156c1.413,2.484,8.522.857,11.82.129a65.067,65.067,0,0,0,17.73-6.981c6.467-.257,11.777-.771,15.46-1.2,15.417-1.841,23.3-4.8,28.136-6.98,5.31-2.4,7.965-4.411,9.935-7.152.6-.857,2.1-3.126,3.726-10.064a80.345,80.345,0,0,0,2.013-14.218c.171-3.34.3-9.036-.685-22.312-1.5-19.871-2.227-12.676-3.383-25.824a21.633,21.633,0,0,0-3.554-10.621,10.526,10.526,0,0,0-4.2-3.983C1241.479,482.805,1236.982,483.148,1234.5,485.632Z" transform="translate(-1154.165 -482.548)" fill="#fff"/>
        <path id="Path_317" data-name="Path 317" d="M1258.96,484c.856,3.041,2.013,7.494,3.041,12.933.642,3.426,2.484,14.132,1.842,41.84-.428,17.473-1.328,19.871-2.741,22.184-3.812,6.167-10.021,8.822-22.4,14.175-10.278,4.411-17.087,7.366-26.98,8.908-4.54.728-11.52,1.413-20.47,5.011-1.328.514-8.265,3.34-7.966,4.668.257,1.028,4.8.814,8.779.6,4.625-.257,7.023-.385,10.107-1.285a29.284,29.284,0,0,0,11.263-6.381,135.817,135.817,0,0,0,17-.942c6.852-.814,14.6-1.756,23.682-5.525,5.781-2.4,9.85-4.154,13.019-8.479.856-1.156,2.484-3.726,4.111-11.905a98.32,98.32,0,0,0,1.756-19.957c0-3.854-.557-10.407-1.627-23.511-.9-10.664-.043,1.2-3-19.229a16.578,16.578,0,0,0-3.212-8.479A14.737,14.737,0,0,0,1258.96,484Z" transform="translate(-1170.447 -482.887)" fill="#898989" opacity="0.24"/>
        <g id="Group_513" data-name="Group 513" transform="translate(42.379)">
          <g id="Group_512" data-name="Group 512">
            <path id="Path_318" data-name="Path 318" d="M1289.458,487.139c1.627-5.053,7.923-5.482,11.691-2.7,4.24,3.083,5.567,8.437,6.381,13.319,1.756,10.621,3.212,21.37,3.94,32.076.728,10.878.471,21.969-2.4,32.547-1.413,5.225-3.554,9.379-8.308,12.205a61.734,61.734,0,0,1-13.79,5.739c-11.049,3.255-22.612,4.068-34.089,4.2a.643.643,0,0,0,0,1.285c11.434-.171,23.04-.985,34.089-4.154a57.012,57.012,0,0,0,15.331-6.509c4.325-2.784,6.424-6.809,7.794-11.648,3.3-11.691,3.469-24.025,2.484-36.059-.471-6-1.242-11.948-2.056-17.9-.814-5.91-1.2-12.162-3.041-17.858-1.5-4.539-4.711-9.122-9.678-10.107a8.306,8.306,0,0,0-9.593,5.268c-.257.728.985,1.071,1.242.3Z" transform="translate(-1252.275 -481.4)"/>
          </g>
        </g>
        <g id="Group_515" data-name="Group 515" transform="translate(43.835 3.591)">
          <g id="Group_514" data-name="Group 514">
            <path id="Path_319" data-name="Path 319" d="M1290.545,490.22c-2.1,6.552-1.328,13.7-.642,20.428.728,7.066,1.842,14.047,2.655,21.113.428,3.512.771,7.023.942,10.578a51.333,51.333,0,0,1-.128,11.177c-1.2,6.852-7.666,10.021-13.49,12.419a91.574,91.574,0,0,1-23.6,6.081c-.814.086-.814,1.37,0,1.285a93,93,0,0,0,20.984-4.968c5.353-1.97,11.563-4.283,15.074-9.079,3.854-5.268,2.741-13.276,2.27-19.357-.557-7.751-1.8-15.417-2.741-23.126-1.071-8.394-2.784-17.944-.129-26.209.257-.771-.985-1.113-1.2-.343Z" transform="translate(-1255.675 -489.785)"/>
          </g>
        </g>
        <g id="Group_517" data-name="Group 517" transform="translate(26.135 77.349)">
          <g id="Group_516" data-name="Group 516">
            <path id="Path_320" data-name="Path 320" d="M1232.7,670.788c-3.94-4.24-8.822-9.25-15.16-8.736-1.713.128-3.683,1.028-3.083,3.083a4.257,4.257,0,0,0,2.013,2.227,7.336,7.336,0,0,1,3.64,4.5.644.644,0,0,0,1.242-.343,7.886,7.886,0,0,0-2.484-4.111c-.557-.471-2.441-1.242-2.655-1.8.171-.728.385-1.456.557-2.184.385-.043.728-.086,1.114-.128a10.155,10.155,0,0,1,1.97.128c5.011.814,8.651,4.711,11.948,8.265.557.6,1.456-.3.9-.9Z" transform="translate(-1214.343 -662.015)"/>
          </g>
        </g>
        <g id="Group_519" data-name="Group 519" transform="translate(0 86.943)">
          <g id="Group_518" data-name="Group 518">
            <path id="Path_321" data-name="Path 321" d="M1185.043,684.454c-5.31,1.884-11.22.557-16.745.771a64.849,64.849,0,0,0-7.58.728c-1.97.3-4.839.343-6.467,1.713-2.527,2.1.642,4.24,2.741,4.5,5.61.771,11.434.642,17.087.942.814.043.814-1.242,0-1.285l-12.505-.642c-1.113-.043-2.227-.086-3.34-.171-.557-.043-5.139-.428-2.955-2.484.6-.557,2.141-.642,2.912-.814l2.826-.514a69.235,69.235,0,0,1,12.976-.685c3.812.171,7.623.471,11.306-.814.856-.257.514-1.5-.257-1.242Z" transform="translate(-1153.317 -684.419)"/>
          </g>
        </g>
        <g id="Group_521" data-name="Group 521" transform="translate(0.053 94.943)">
          <g id="Group_520" data-name="Group 520">
            <path id="Path_322" data-name="Path 322" d="M1173.894,703.1c-4.283.257-8.865.086-13.062,1.071a23.884,23.884,0,0,0-5.567,2.184c-.814.428-2.013.942-1.8,2.056.428,2.569,6.51,2.527,8.351,2.569,4.625.043,9.165-.814,13.79-.471.814.043.814-1.242,0-1.285a71.816,71.816,0,0,0-9.593.3c-2.955.214-7.238.771-9.978-.642-1.841-.942-.856-1.071.171-1.585a18.345,18.345,0,0,1,2.484-1.113,19.3,19.3,0,0,1,4.882-1.156c3.383-.343,6.852-.428,10.235-.642.9-.043.9-1.328.086-1.285Z" transform="translate(-1153.441 -703.098)"/>
          </g>
        </g>
        <g id="Group_523" data-name="Group 523" transform="translate(2.199 101.772)">
          <g id="Group_522" data-name="Group 522">
            <path id="Path_323" data-name="Path 323" d="M1158.772,720.224a31.448,31.448,0,0,0,17.944,3.383c.814-.086.814-1.37,0-1.285a30.266,30.266,0,0,1-17.3-3.212c-.728-.343-1.37.728-.642,1.113Z" transform="translate(-1158.452 -719.044)"/>
          </g>
        </g>
        <g id="Group_525" data-name="Group 525" transform="translate(12.215 103.573)">
          <g id="Group_524" data-name="Group 524">
            <path id="Path_324" data-name="Path 324" d="M1190.26,725.2c-3.212.728-6.766,1.8-8.351,4.968a.722.722,0,0,0,.214.9c2.27,1.028,4.582.9,7.023.814a89.859,89.859,0,0,0,9.55-.856c5.4-.857,10.578-2.826,14.561-6.681.6-.557-.3-1.5-.9-.9-3.6,3.512-8.308,5.31-13.19,6.21a61.327,61.327,0,0,1-8.351.857c-2.612.128-5.524.557-8.008-.557a6.86,6.86,0,0,1,.214.9c1.413-2.869,4.668-3.726,7.58-4.368.771-.257.428-1.5-.343-1.285Z" transform="translate(-1181.841 -723.25)"/>
          </g>
        </g>
      </g>
      <g id="head" transform="translate(114.682 48.43)">
        <path id="Path_325" data-name="Path 325" d="M1194.6,336.723c-1.285,3.041-1.456,6.038-1.713,9.679a46.721,46.721,0,0,0,1.542,14.9c1.2,4.539,2.484,9.464,6.467,14.389a29.769,29.769,0,0,0,9.978,7.923,59.125,59.125,0,0,0,5.653-1.927c1.97-.771,3.769-1.627,5.4-2.441a17.62,17.62,0,0,0,6.252,12.719,22.235,22.235,0,0,0,4.283-2.4,22.548,22.548,0,0,0,6.724-7.837,66.857,66.857,0,0,1-1.5-8.437,68.107,68.107,0,0,1,0-14.518,8.913,8.913,0,0,0,3.983-.9c3.469-1.756,4.625-5.4,5.139-7.109a18.193,18.193,0,0,0,.086-9.636,24.889,24.889,0,0,0-7.666-13.661c-7.237-6.21-16.274-5.439-20.171-5.139C1210.741,323.062,1198.621,327.173,1194.6,336.723Z" transform="translate(-1191.095 -296.382)" fill="#fff"/>
        <path id="Path_326" data-name="Path 326" d="M1260.288,337.465a55.088,55.088,0,0,1,1.156,10.235,61.092,61.092,0,0,1-2.1,16.1c-3.64,13.1-11.734,22.226-15.546,26.166a38.627,38.627,0,0,0,18.843-14.9c.6,6.509,1.2,12.976,1.8,19.486l3.854-4.368a78.97,78.97,0,0,1-1.585-13.661,76.193,76.193,0,0,1,.428-10.706,5.572,5.572,0,0,0,3.126-.086,6.645,6.645,0,0,0,3.126-2.227,13.792,13.792,0,0,0,3.126-7.195,19.28,19.28,0,0,0-.214-6.724c-.942-5.182-2.184-11.948-6.981-13.747C1265.769,334.6,1262.086,336.395,1260.288,337.465Z" transform="translate(-1220.257 -303.976)" fill="#898989" opacity="0.29"/>
        <path id="Path_327" data-name="Path 327" d="M1190.7,308.465a18.117,18.117,0,0,1-1.542-11.135c1.413-6.381,6.638-9.721,11.948-14.175a101.433,101.433,0,0,0,18.286-20c-.642,3.64-1.328,7.237-1.97,10.878,2.741-2.441,5.781-4.968,9.079-7.494,2.141-1.627,4.283-3.126,6.338-4.539a11.292,11.292,0,0,0-2.184,6.338,11.648,11.648,0,0,0,2.1,6.895c.6-.814,1.584-2.013,2.826-3.512a49.186,49.186,0,0,0,3.169-3.769c1.842-2.612,2.1-4.325,2.441-4.283.557.086.771,3.94-.257,19.314,2.013-2.27,4.026-4.582,6-6.852.343,5.011.728,10.021,1.071,15.032a33.037,33.037,0,0,1-2.912,20.513,6.435,6.435,0,0,0-3.94-1.841c-2.056-.086-2.741,1.071-4.068.985-2.869-.214-3.3-5.91-6.852-10.407-3.469-4.411-8.479-5.824-11.649-6.724-2.955-.814-11.991-3.34-19.785,2.1C1192.884,299.9,1191.17,306.367,1190.7,308.465Z" transform="translate(-1188.826 -262)" fill="#1bff00"/>
        <g id="Group_527" data-name="Group 527" transform="translate(1.12 39.677)">
          <g id="Group_526" data-name="Group 526">
            <path id="Path_328" data-name="Path 328" d="M1193.266,354.971c-2.141,4.154-1.884,8.951-1.713,13.49a58.381,58.381,0,0,0,2.441,15.117c2.569,8.094,7.751,15.5,15.589,19.143.728.343,1.413-.771.642-1.113-7.537-3.512-12.548-10.578-14.989-18.372a54.651,54.651,0,0,1-2.313-13.618c-.257-4.625-.728-9.807,1.456-14.047a.633.633,0,0,0-1.113-.6Z" transform="translate(-1191.443 -354.649)"/>
          </g>
        </g>
        <g id="Group_529" data-name="Group 529" transform="translate(19.137 61.834)">
          <g id="Group_528" data-name="Group 528">
            <path id="Path_329" data-name="Path 329" d="M1234.321,432.387a39.649,39.649,0,0,0,27.237-25.224c.257-.771-.985-1.113-1.242-.343a38.2,38.2,0,0,1-26.338,24.325.644.644,0,0,0,.343,1.242Z" transform="translate(-1233.514 -406.385)"/>
          </g>
        </g>
        <g id="Group_531" data-name="Group 531" transform="translate(45.641 46.676)">
          <g id="Group_530" data-name="Group 530">
            <path id="Path_330" data-name="Path 330" d="M1296.042,387.011c3-.043,5.781-.428,7.494-3.126,1.584-2.484,3.683-6.253,3.34-9.293-.257-2.313-2.612-3.512-4.711-3.6a6.721,6.721,0,0,0-6,3.34.643.643,0,0,0,1.114.642,5.442,5.442,0,0,1,4.882-2.7,4.615,4.615,0,0,1,2.355.728c1.756,1.328.985,3.426.471,5.011a22.764,22.764,0,0,1-2.57,5.225c-1.542,2.27-3.9,2.441-6.381,2.484a.642.642,0,1,0,0,1.285Z" transform="translate(-1295.4 -370.991)"/>
          </g>
        </g>
        <g id="Group_533" data-name="Group 533" transform="translate(45.755 61.23)">
          <g id="Group_532" data-name="Group 532">
            <path id="Path_331" data-name="Path 331" d="M1296.067,405.585c-.514,7.923-.9,15.931,1.285,23.682a.644.644,0,0,0,1.242-.343c-2.141-7.623-1.713-15.5-1.242-23.34.043-.814-1.242-.814-1.285,0Z" transform="translate(-1295.668 -404.975)"/>
          </g>
        </g>
        <g id="Group_535" data-name="Group 535" transform="translate(30.171 82.23)">
          <g id="Group_534" data-name="Group 534">
            <path id="Path_332" data-name="Path 332" d="M1259.288,454.821a28.263,28.263,0,0,0,2.484,8.522c.685,1.5,1.842,4.8,3.854,4.8,2.184,0,4.625-2.1,6.167-3.469a87.7,87.7,0,0,0,6.3-6.895c.557-.6-.343-1.542-.9-.9-1.5,1.713-3,3.469-4.582,5.182-1.585,1.67-3.64,3.9-5.953,4.5-1.456.385-1.884-.428-2.569-1.585a26.732,26.732,0,0,1-1.5-2.912,27.247,27.247,0,0,1-2.056-7.58c-.128-.814-1.37-.471-1.242.343Z" transform="translate(-1259.278 -454.014)"/>
          </g>
        </g>
        <g id="Group_537" data-name="Group 537" transform="translate(14.544 37.51)">
          <g id="Group_536" data-name="Group 536">
            <path id="Path_333" data-name="Path 333" d="M1223.479,350.192a234.718,234.718,0,0,0-.557,25.738c0,.6.9.942,1.2.343l3.6-7.58c.343-.728-.771-1.413-1.113-.642l-3.6,7.58c.385.128.814.214,1.2.343a224.313,224.313,0,0,1,.557-25.738c.086-.856-1.2-.856-1.285-.043Z" transform="translate(-1222.789 -349.587)"/>
          </g>
        </g>
        <g id="Group_539" data-name="Group 539" transform="translate(16.643 57.474)">
          <g id="Group_538" data-name="Group 538">
            <path id="Path_334" data-name="Path 334" d="M1230.221,409.908a2.488,2.488,0,0,1-1.028-3.169,5.59,5.59,0,0,1,2.013-1.713,10,10,0,0,0,2.1-1.67,13.926,13.926,0,0,0,1.627-2.784c.985-1.884,3-4.325,5.182-2.27,2.612,2.484.3,8.094-1.842,10.235a7.241,7.241,0,0,1-8.222,1.285c-.728-.343-1.413.728-.642,1.113a8.509,8.509,0,0,0,10.235-1.97c2.484-2.955,4.754-9.336.814-12.077a3.74,3.74,0,0,0-4.625.257c-1.884,1.542-2.184,4.2-3.9,5.824-1.5,1.413-3.854,1.97-4.2,4.283a3.823,3.823,0,0,0,1.841,3.811c.685.385,1.328-.728.642-1.156Z" transform="translate(-1227.689 -396.206)"/>
          </g>
        </g>
        <ellipse id="Ellipse_13" data-name="Ellipse 13" cx="0.942" cy="3.041" rx="0.942" ry="3.041" transform="translate(8.811 43.254)"/>
        <ellipse id="Ellipse_14" data-name="Ellipse 14" cx="0.942" cy="3.041" rx="0.942" ry="3.041" transform="translate(24.099 41.284)"/>
      </g>
    </g>
  </g>
</svg>
