<svg id="Livello_1" data-name="Livello 1" xmlns="http://www.w3.org/2000/svg" xmlns:xlink="http://www.w3.org/1999/xlink" viewBox="0 0 1920 756"><defs><pattern id="New_Pattern" data-name="New Pattern" width="304" height="304" patternTransform="matrix(1, 0, 0, -1, -31, 67)" patternUnits="userSpaceOnUse" viewBox="0 0 304 304"><rect width="304" height="304" style="fill:none"/><rect width="304" height="304" style="fill:none"/><path d="M0,80V78H44.1A4.9,4.9,0,0,1,48,74.1,5,5,0,0,1,53.9,78,5.1,5.1,0,0,1,50,83.9,5,5,0,0,1,44.1,80ZM82,32V30H204.1a4.9,4.9,0,0,1,3.9-3.9,5,5,0,1,1-3.9,5.9ZM304,78v2H261.9a4.9,4.9,0,0,1-3.9,3.9,5,5,0,0,1-5.9-3.9,5.1,5.1,0,0,1,3.9-5.9,5,5,0,0,1,5.9,3.9Zm0-16v2H261.9a4.9,4.9,0,0,1-3.9,3.9,5,5,0,0,1-5.9-3.9,5.1,5.1,0,0,1,3.9-5.9,5,5,0,0,1,5.9,3.9ZM181.9,176a4.9,4.9,0,0,1-3.9,3.9,5,5,0,1,1,3.9-5.9h86.2a4.9,4.9,0,0,1,3.9-3.9,5,5,0,0,1,5.9,3.9,5.1,5.1,0,0,1-3.9,5.9,5,5,0,0,1-5.9-3.9ZM0,224v-2H12.1a4.9,4.9,0,0,1,3.9-3.9,5,5,0,1,1-3.9,5.9Zm284.1-34a4.9,4.9,0,0,1,3.9-3.9,5,5,0,0,1,5.9,3.9,5.1,5.1,0,0,1-3.9,5.9,5,5,0,0,1-5.9-3.9H197.9a4.9,4.9,0,0,1-3.9,3.9,5,5,0,0,1-5.9-3.9,5.1,5.1,0,0,1,3.9-5.9,5,5,0,0,1,5.9,3.9ZM258,304h-2V291.9a4.9,4.9,0,0,1-3.9-3.9,5,5,0,0,1,3.9-5.9,5.1,5.1,0,0,1,5.9,3.9,5,5,0,0,1-3.9,5.9ZM194,138.1a4.9,4.9,0,0,1,3.9,3.9,5,5,0,1,1-5.9-3.9V83.9a4.9,4.9,0,0,1-3.9-3.9,5,5,0,0,1,3.9-5.9,5.1,5.1,0,0,1,5.9,3.9,5,5,0,0,1-3.9,5.9ZM245.9,286a5,5,0,0,1-3.9,5.9,5.1,5.1,0,0,1-5.9-3.9,5,5,0,0,1,3.9-5.9V222h64v2H242v58.1A4.9,4.9,0,0,1,245.9,286Zm16-16a5,5,0,0,1-3.9,5.9,5.1,5.1,0,0,1-5.9-3.9,5,5,0,0,1,3.9-5.9V238h48v2H258v26.1A4.9,4.9,0,0,1,261.9,270ZM130,170.1a4.9,4.9,0,0,1,3.9,3.9,5,5,0,1,1-5.9-3.9V94h16V83.9a4.9,4.9,0,0,1-3.9-3.9,5,5,0,1,1,5.9,3.9V96H130v74.1ZM112,192V144H85.9a4.9,4.9,0,0,1-3.9,3.9,5,5,0,1,1,3.9-5.9H114v48h10.1a4.9,4.9,0,0,1,3.9-3.9,5,5,0,0,1,5.9,3.9,5.1,5.1,0,0,1-3.9,5.9,5,5,0,0,1-5.9-3.9ZM178,62v76.1a4.9,4.9,0,0,1,3.9,3.9,5,5,0,1,1-5.9-3.9V64H117.9a4.9,4.9,0,0,1-3.9,3.9,5,5,0,1,1,3.9-5.9Zm-66,64V78h12.1a4.9,4.9,0,0,1,3.9-3.9,5,5,0,0,1,5.9,3.9,5.1,5.1,0,0,1-3.9,5.9,5,5,0,0,1-5.9-3.9H114v48H101.9a4.9,4.9,0,0,1-3.9,3.9,5,5,0,1,1,3.9-5.9ZM66,32H48V0h2V30H64V19.9A4.9,4.9,0,0,1,60.1,16,5,5,0,1,1,66,19.9Zm158,96V30h48V0h2V32H226v94h10.1a4.9,4.9,0,0,1,3.9-3.9,5,5,0,1,1-3.9,5.9Zm48,30V115.9a4.9,4.9,0,0,1-3.9-3.9,5,5,0,1,1,5.9,3.9V160H261.9a4.9,4.9,0,0,1-3.9,3.9,5,5,0,0,1-5.9-3.9,5.1,5.1,0,0,1,3.9-5.9,5,5,0,0,1,5.9,3.9ZM210,62v80h16v18H181.9a4.9,4.9,0,0,1-3.9,3.9,5,5,0,1,1,3.9-5.9H224V144H208V64H197.9a4.9,4.9,0,0,1-3.9,3.9,5,5,0,1,1,3.9-5.9Zm74.1,210H274v32h-2V270h12.1a4.9,4.9,0,0,1,3.9-3.9,5,5,0,0,1,5.9,3.9,5.1,5.1,0,0,1-3.9,5.9,5,5,0,0,1-5.9-3.9ZM101.9,206a5,5,0,0,1-3.9,5.9,5.1,5.1,0,0,1-5.9-3.9,5,5,0,0,1,3.9-5.9V160H53.9a4.9,4.9,0,0,1-3.9,3.9,5,5,0,0,1-5.9-3.9,5.1,5.1,0,0,1,3.9-5.9,5,5,0,0,1,5.9,3.9H98v44.1A4.9,4.9,0,0,1,101.9,206ZM82,270v34H80V272H53.9a4.9,4.9,0,0,1-3.9,3.9,5,5,0,0,1-5.9-3.9,5.1,5.1,0,0,1,3.9-5.9,5,5,0,0,1,5.9,3.9Zm35.9,0a5,5,0,0,1-3.9,5.9,5.1,5.1,0,0,1-5.9-3.9,5,5,0,0,1,3.9-5.9V240H80V176H69.9a4.9,4.9,0,0,1-3.9,3.9,5,5,0,1,1,3.9-5.9H82v64h32v28.1A4.9,4.9,0,0,1,117.9,270ZM130,222v44.1a4.9,4.9,0,0,1,3.9,3.9,5,5,0,0,1-3.9,5.9,5.1,5.1,0,0,1-5.9-3.9,5,5,0,0,1,3.9-5.9V224H101.9a4.9,4.9,0,0,1-3.9,3.9,5,5,0,1,1,3.9-5.9Zm14,64V243.9a4.9,4.9,0,0,1-3.9-3.9,5,5,0,1,1,5.9,3.9V288H117.9a4.9,4.9,0,0,1-3.9,3.9,5,5,0,1,1,3.9-5.9ZM96,16V0h2V14H220.1a4.9,4.9,0,0,1,3.9-3.9,5,5,0,1,1-3.9,5.9ZM245.9,158a5,5,0,0,1-3.9,5.9,5.1,5.1,0,0,1-5.9-3.9,5,5,0,0,1,3.9-5.9V142h16V112H240V46h48V0h2V48H242v62h16v34H242v10.1A4.9,4.9,0,0,1,245.9,158ZM66,286v18H48v-2H64V288H53.9a4.9,4.9,0,0,1-3.9,3.9,5,5,0,0,1-5.9-3.9,5.1,5.1,0,0,1,3.9-5.9,5,5,0,0,1,5.9,3.9Zm128-32v48h48v2H192V256H165.9a4.9,4.9,0,0,1-3.9,3.9,5,5,0,1,1,3.9-5.9Zm-18,48V272H162v10.1a4.9,4.9,0,0,1,3.9,3.9,5,5,0,0,1-3.9,5.9,5.1,5.1,0,0,1-5.9-3.9,5,5,0,0,1,3.9-5.9V270h18v34H115.8a2.3,2.3,0,0,0,0-2,3,3,0,1,0-5.6,2h-2.1a5,5,0,0,1,9.8-2Zm-38.2-96,32,32H210v44.1a4.9,4.9,0,0,1,3.9,3.9,5,5,0,0,1-3.9,5.9,5.1,5.1,0,0,1-5.9-3.9,5,5,0,0,1,3.9-5.9V240H169l-32-32H117.9a4.9,4.9,0,0,1-3.9,3.9,5,5,0,1,1,3.9-5.9Zm8.2-14.4L176.4,222H226v60.1a4.9,4.9,0,0,1,3.9,3.9,5,5,0,0,1-3.9,5.9,5.1,5.1,0,0,1-5.9-3.9,5,5,0,0,1,3.9-5.9V224H175.6L144,192.4V115.9a4.9,4.9,0,0,1-3.9-3.9,5,5,0,1,1,5.9,3.9Zm16-9L185.4,206H300.1a4.9,4.9,0,0,1,3.9-3.9v2.1a2.7,2.7,0,0,0-1.8,1.8,2.9,2.9,0,0,0,1.8,3.8v2.1a4.9,4.9,0,0,1-3.9-3.9H184.6L160,183.4V83.9a4.9,4.9,0,0,1-3.9-3.9,5,5,0,1,1,5.9,3.9Zm-144-32,48,48V254H98v50H96V256H64V199.4l-48-48v-3.5a4.9,4.9,0,0,1-3.9-3.9,5,5,0,0,1,3.9-5.9,5.1,5.1,0,0,1,5.9,3.9,5,5,0,0,1-3.9,5.9ZM53.9,254a5,5,0,0,1-3.9,5.9,5.1,5.1,0,0,1-5.9-3.9,5,5,0,0,1,3.9-5.9V207.4l-48-48V94H28.1A4.9,4.9,0,0,1,32,90.1,5,5,0,0,1,37.9,94,5.1,5.1,0,0,1,34,99.9,5,5,0,0,1,28.1,96H2v62.6l48,48v43.5A4.9,4.9,0,0,1,53.9,254Zm-16-16a5,5,0,0,1-3.9,5.9,5.1,5.1,0,0,1-5.9-3.9,5,5,0,0,1,3.9-5.9V215.4l-32-32v-2.8l34,34v19.5A4.9,4.9,0,0,1,37.9,238ZM8.6,272,0,263.4v-2.8L9.4,270h2.7a4.9,4.9,0,0,1,3.9-3.9,5,5,0,1,1-3.9,5.9Zm288.8-18,6.6,6.6v2.8l-7.4-7.4H277.9a4.9,4.9,0,0,1-3.9,3.9,5,5,0,0,1-5.9-3.9,5.1,5.1,0,0,1,3.9-5.9,5,5,0,0,1,5.9,3.9ZM290,94v72.6l14,14v2.8l-16-16V96H261.9a4.9,4.9,0,0,1-3.9,3.9,5,5,0,0,1-5.9-3.9,5.1,5.1,0,0,1,3.9-5.9,5,5,0,0,1,5.9,3.9ZM66,62V87.4L41.4,112H21.9a4.9,4.9,0,0,1-3.9,3.9,5,5,0,1,1,3.9-5.9H40.6L64,86.6V64H53.9A4.9,4.9,0,0,1,50,67.9,5,5,0,0,1,44.1,64,5.1,5.1,0,0,1,48,58.1,5,5,0,0,1,53.9,62ZM204.1,48H98v55.4L57.4,144H37.9a4.9,4.9,0,0,1-3.9,3.9,5,5,0,0,1-5.9-3.9,5.1,5.1,0,0,1,3.9-5.9,5,5,0,0,1,5.9,3.9H56.6L96,102.6V46H204.1a4.9,4.9,0,0,1,3.9-3.9,5,5,0,1,1-3.9,5.9ZM82,46V95.4L49.4,128H21.9a4.9,4.9,0,0,1-3.9,3.9,5,5,0,1,1,3.9-5.9H48.6L80,94.6V48H53.9A4.9,4.9,0,0,1,50,51.9,5,5,0,0,1,44.1,48,5.1,5.1,0,0,1,48,42.1,5,5,0,0,1,53.9,46ZM34,304H32V263.4L8.6,240H0v-2H9.4L34,262.6V304ZM2,46H16V0h2V48H0V1.8H0A2.9,2.9,0,0,0,3.8,0H5.9A4.9,4.9,0,0,1,2,3.9ZM34,64H0V62H32V0h2V64ZM18,286v18H16V288H0v-2H18Zm272,18h-2V286h16v2H290ZM258,16H240V0h2V14h14V0h2V16ZM0,209.8a2.3,2.3,0,0,0,2,0A2.9,2.9,0,0,0,3.8,206,2.9,2.9,0,0,0,0,204.2v-2.1H1a5,5,0,0,1,5,5,3.8,3.8,0,0,1-.1,1A5,5,0,0,1,0,211.9ZM80,0h2V32H80Zm34,3.9A5,5,0,0,1,108.1,0h2.1A2.7,2.7,0,0,0,112,1.8,2.9,2.9,0,0,0,115.8,0h2.1A4.9,4.9,0,0,1,114,3.9ZM3.8,304a2.3,2.3,0,0,0,0-2A2.9,2.9,0,0,0,0,300.2v-2.1a6.7,6.7,0,0,1,2,0A5,5,0,0,1,5.9,304Zm296.3,0a5,5,0,0,1,3.9-5.9v2.1h0a2.9,2.9,0,0,0-1.8,3.8Zm0-304h2.1A2.7,2.7,0,0,0,304,1.8V3.9A4.9,4.9,0,0,1,300.1,0ZM94,207a3,3,0,1,0,3-3A2.9,2.9,0,0,0,94,207Zm0,16a3,3,0,1,0,3-3A2.9,2.9,0,0,0,94,223Zm16-16a3,3,0,1,0,3-3A2.9,2.9,0,0,0,110,207Zm16-16a3,3,0,1,0,3-3A2.9,2.9,0,0,0,126,191Zm0-16a3,3,0,1,0,3-3A2.9,2.9,0,0,0,126,175ZM78,143a3,3,0,1,0,3-3A2.9,2.9,0,0,0,78,143Zm16-16a3,3,0,1,0,3-3A2.9,2.9,0,0,0,94,127Zm32-48a3,3,0,1,0,3-3A2.9,2.9,0,0,0,126,79ZM110,63a3,3,0,1,0,3-3A2.9,2.9,0,0,0,110,63Zm32,16a3,3,0,1,0,3-3A2.9,2.9,0,0,0,142,79Zm0,32a3,3,0,1,0,3-3A2.9,2.9,0,0,0,142,111Zm16-32a3,3,0,1,0,3-3A2.9,2.9,0,0,0,158,79Zm32-16a3,3,0,1,0,3-3A2.9,2.9,0,0,0,190,63Zm0,16a3,3,0,1,0,3-3A2.9,2.9,0,0,0,190,79Zm-16,64a3,3,0,1,0,3-3A2.9,2.9,0,0,0,174,143Zm16,0a3,3,0,1,0,3-3A2.9,2.9,0,0,0,190,143Zm16-96a3,3,0,1,0,3-3A2.9,2.9,0,0,0,206,47Zm0-16a3,3,0,1,0,3-3A2.9,2.9,0,0,0,206,31Zm16-16a2.9,2.9,0,0,0,3,3h0a3,3,0,1,0-3-3Zm16,144a3,3,0,1,0,3-3A2.9,2.9,0,0,0,238,159Zm0-32a3,3,0,1,0,3-3A2.9,2.9,0,0,0,238,127Zm16,32a3,3,0,1,0,3-3A2.9,2.9,0,0,0,254,159Zm16,16a3,3,0,1,0,3-3A2.9,2.9,0,0,0,270,175Zm-96,0a3,3,0,1,0,3-3A2.9,2.9,0,0,0,174,175Zm0-16a3,3,0,1,0,3-3A2.9,2.9,0,0,0,174,159Zm16,32a3,3,0,1,0,3-3A2.9,2.9,0,0,0,190,191Zm96,0a3,3,0,1,0,3-3A2.9,2.9,0,0,0,286,191Zm-16,64a3,3,0,1,0,3-3A2.9,2.9,0,0,0,270,255Zm16,16a3,3,0,1,0,3-3A2.9,2.9,0,0,0,286,271Zm-32,0a3,3,0,1,0,3-3A2.9,2.9,0,0,0,254,271Zm0,16a3,3,0,1,0,3-3A2.9,2.9,0,0,0,254,287Zm-16,0a3,3,0,1,0,3-3A2.9,2.9,0,0,0,238,287Zm-16,0a2.9,2.9,0,0,0,3,3h0a3,3,0,1,0-3-3Zm-16,0a3,3,0,1,0,3-3A2.9,2.9,0,0,0,206,287ZM46,271a3,3,0,1,0,3-3A2.9,2.9,0,0,0,46,271Zm-32,0a3,3,0,1,0,3-3A2.9,2.9,0,0,0,14,271Zm32-16a3,3,0,1,0,3-3A2.9,2.9,0,0,0,46,255ZM30,239a3,3,0,1,0,3-3A2.9,2.9,0,0,0,30,239Zm16,48a3,3,0,1,0,3-3A2.9,2.9,0,0,0,46,287ZM46,47a3,3,0,1,0,3-3A2.9,2.9,0,0,0,46,47ZM62,15a3,3,0,1,0,3-3A2.9,2.9,0,0,0,62,15ZM46,79a3,3,0,1,0,3-3A2.9,2.9,0,0,0,46,79Zm0-16a3,3,0,1,0,3-3A2.9,2.9,0,0,0,46,63ZM30,95a3,3,0,1,0,3-3A2.9,2.9,0,0,0,30,95Zm80,176a3,3,0,1,0,3-3A2.9,2.9,0,0,0,110,271Zm16,0a3,3,0,1,0,3-3A2.9,2.9,0,0,0,126,271Zm-16,16a3,3,0,1,0,3-3A2.9,2.9,0,0,0,110,287Zm32-48a3,3,0,1,0,3-3A2.9,2.9,0,0,0,142,239Zm16,16a3,3,0,1,0,3-3A2.9,2.9,0,0,0,158,255Zm0,32a3,3,0,1,0,3-3A2.9,2.9,0,0,0,158,287ZM270,111a3,3,0,1,0,3-3A2.9,2.9,0,0,0,270,111ZM254,95a3,3,0,1,0,3-3A2.9,2.9,0,0,0,254,95Zm0-16a3,3,0,1,0,3-3A2.9,2.9,0,0,0,254,79Zm0-16a3,3,0,1,0,3-3A2.9,2.9,0,0,0,254,63ZM14,127a3,3,0,1,0,3-3A2.9,2.9,0,0,0,14,127Zm0-16a3,3,0,1,0,3-3A2.9,2.9,0,0,0,14,111Zm0,32a3,3,0,1,0,3-3A2.9,2.9,0,0,0,14,143Zm16,0a3,3,0,1,0,3-3A2.9,2.9,0,0,0,30,143ZM14,223a3,3,0,1,0,3-3A2.9,2.9,0,0,0,14,223Zm32-64a3,3,0,1,0,3-3A2.9,2.9,0,0,0,46,159Zm16,16a3,3,0,1,0,3-3A2.9,2.9,0,0,0,62,175Z" style="fill:#010101"/></pattern></defs><title>circuitbg</title><path d="M0,0V640.1S91.3,756,960,756s960-115.9,960-115.9V0Z" style="fill:#2d7481"/><path d="M960,756c868.7,0,960-115.9,960-115.9V0H0V640.1S91.3,756,960,756Z" style="opacity:0.4;fill:url(#New_Pattern)"/></svg>