<svg id="giveaway" xmlns="http://www.w3.org/2000/svg" width="508.472" height="400.494" viewBox="0 0 508.472 400.494">
  <g id="background" transform="translate(55.801)">
    <g id="Group_541" data-name="Group 541" transform="translate(74.324 147.245)">
      <g id="Group_540" data-name="Group 540">
        <path id="Path_335" data-name="Path 335" d="M557.079,502.452a12.627,12.627,0,0,1,.111,12.012c-.332.626.626,1.179.958.553a13.8,13.8,0,0,0-.111-13.118c-.368-.663-1.29-.074-.958.553Z" transform="translate(-557.008 -501.608)" fill="#161616"/>
      </g>
    </g>
    <g id="Group_543" data-name="Group 543" transform="translate(74.942 146.102)">
      <g id="Group_542" data-name="Group 542">
        <path id="Path_336" data-name="Path 336" d="M559.5,500.677c1.253-.626,2.727-1.4,4.164-1.069,2.137.442,2.211,2.174,2.358,3.943.147,2.358.037,4.864-1.511,6.78-.442.553.332,1.326.774.774,2.137-2.616,2.4-6.706,1.584-9.912-1.032-3.869-5.232-2.8-7.885-1.474-.663.295-.111,1.253.516.958Z" transform="translate(-558.684 -498.504)" fill="#161616"/>
      </g>
    </g>
    <g id="Group_545" data-name="Group 545" transform="translate(75.233 157.775)">
      <g id="Group_544" data-name="Group 544">
        <path id="Path_337" data-name="Path 337" d="M560,533.285a6.24,6.24,0,0,0,5.49-2.137c.442-.553-.332-1.327-.774-.774A5.208,5.208,0,0,1,560,532.216c-.7-.111-.7.995,0,1.069Z" transform="translate(-559.475 -530.184)" fill="#161616"/>
      </g>
    </g>
    <g id="Group_547" data-name="Group 547" transform="translate(74.4 96.409)">
      <g id="Group_546" data-name="Group 546">
        <path id="Path_338" data-name="Path 338" d="M558.24,366.8c.479-.921,1.806-3.427,3.279-1.105a6,6,0,0,1,.332,1.769,4.309,4.309,0,0,0,.958,2.174c1.842,1.916,3.132-1.216,5.048-.184,2.432,1.29-.737,4.016,1.253,5.527a1.533,1.533,0,0,0,1.584.147c.369-.147.663-.479,1.032-.663,1.363-.59,1.842.626,1.953,1.695a.567.567,0,0,0,.553.553c.405.037.774.074,1.179.111.7.074.7-1.032,0-1.105-.405-.037-.774-.074-1.179-.111l.553.553c-.111-.995-.295-2.285-1.216-2.874-.995-.663-1.658-.074-2.579.368-.442.221-.811.958-1.437.074-.221-.332.258-1.363.332-1.732a2.952,2.952,0,0,0,.037-1.695,3.2,3.2,0,0,0-2.027-1.99c-1.142-.405-1.695.074-2.727.368-.921.258-1.842.184-2.174-.811a6.536,6.536,0,0,1-.184-1.179,6,6,0,0,0-.479-1.769c-1.511-2.764-4.127-.442-5.048,1.437-.332.516.626,1.069.958.442Z" transform="translate(-557.213 -363.644)" fill="#161616"/>
      </g>
    </g>
    <g id="Group_549" data-name="Group 549" transform="translate(81.599 94.109)">
      <g id="Group_548" data-name="Group 548">
        <path id="Path_339" data-name="Path 339" d="M577.727,359.428c.884-.848,1.7-1.216,2.653-.405.774.663.626.884.847,1.769a2.492,2.492,0,0,0,.737,1.363,2.263,2.263,0,0,0,1.879.405c.663-.074,1.437-.516,1.99.184a2.832,2.832,0,0,1,.221,1.474c.037,1.105.037,2.432,1.29,2.837.369.111.774-.074,1.105.037.442-.184.626-.074.663.405a1.663,1.663,0,0,1,.184.958,3.564,3.564,0,0,0,1.179,2.063c.516.479,1.29-.295.774-.774-1.105-1.032-.332-2.469-1.253-3.39-.958-.958-2.469.442-2.8-1.327-.258-1.363.258-3.206-1.548-3.685-1.29-.332-2.653.958-3.353-.811-.295-.737-.184-1.548-.7-2.248-1.216-1.584-3.464-.774-4.68.368-.516.479.295,1.29.811.774Z" transform="translate(-576.752 -357.402)" fill="#161616"/>
      </g>
    </g>
    <g id="Group_551" data-name="Group 551" transform="translate(217.011 160.787)">
      <g id="Group_550" data-name="Group 550">
        <path id="Path_340" data-name="Path 340" d="M945.556,542.207c-1.105-.111.553-2.285.884-2.469a2.137,2.137,0,0,1,2.579.479,2.462,2.462,0,0,1-1.732,4.053c-.7.074-.7,1.179,0,1.105a3.855,3.855,0,0,0,3.427-2.874,3.522,3.522,0,0,0-2.063-3.906,3.168,3.168,0,0,0-3.869,1.253c-.737,1.105-.921,3.316.811,3.464.663.074.663-1.032-.037-1.105Z" transform="translate(-944.246 -538.36)" fill="#161616"/>
      </g>
    </g>
    <g id="Group_553" data-name="Group 553" transform="translate(209.49 159.692)">
      <g id="Group_552" data-name="Group 552">
        <path id="Path_341" data-name="Path 341" d="M925.221,538.081c-.774-.7.147-2.1,1.032-1.326.921.774-.332,1.842-1.179,1.216-.553-.442-1.105.516-.553.958a2.083,2.083,0,0,0,2.653-.295,1.935,1.935,0,1,0-2.948-2.506,2.074,2.074,0,0,0,.221,2.69c.516.516,1.326-.258.774-.737Z" transform="translate(-923.833 -535.386)" fill="#161616"/>
      </g>
    </g>
    <g id="Group_555" data-name="Group 555" transform="translate(329.606 114.513)">
      <g id="Group_554" data-name="Group 554">
        <path id="Path_342" data-name="Path 342" d="M1258.911,413.3a19.2,19.2,0,0,1-8.843,17.134c-.59.368-.037,1.326.553.958a20.3,20.3,0,0,0,9.4-18.092c-.037-.7-1.142-.7-1.105,0Z" transform="translate(-1249.816 -412.775)" fill="#161616"/>
      </g>
    </g>
    <g id="Group_557" data-name="Group 557" transform="translate(330.231 114.792)">
      <g id="Group_556" data-name="Group 556">
        <path id="Path_343" data-name="Path 343" d="M1260.72,414.59c3.537,2.579,2.1,7.259.147,10.317-1.842,2.911-4.827,6.375-8.659,5.785-.7-.111-.995.958-.295,1.069,4.606.663,8.106-3.206,10.244-6.817,2.137-3.574,2.948-8.512-.884-11.312-.589-.405-1.142.553-.553.958Z" transform="translate(-1251.514 -413.534)" fill="#161616"/>
      </g>
    </g>
    <g id="Group_559" data-name="Group 559" transform="translate(29.159 82.226)">
      <g id="Group_558" data-name="Group 558">
        <path id="Path_344" data-name="Path 344" d="M434.532,325.98a28.1,28.1,0,0,1,4.053,12.528c.074.7,1.179.7,1.105,0a29.435,29.435,0,0,0-4.2-13.081c-.405-.626-1.363-.074-.958.553Z" transform="translate(-434.434 -325.152)" fill="#e8e8e8"/>
      </g>
    </g>
    <g id="Group_561" data-name="Group 561" transform="translate(33.683 81.01)">
      <g id="Group_560" data-name="Group 560">
        <path id="Path_345" data-name="Path 345" d="M446.782,322.68a26.428,26.428,0,0,1,3.243,11.165c.037.7,1.142.7,1.105,0a27.941,27.941,0,0,0-3.39-11.717c-.332-.626-1.29-.074-.958.553Z" transform="translate(-446.713 -321.852)" fill="#e8e8e8"/>
      </g>
    </g>
    <g id="Group_563" data-name="Group 563" transform="translate(28.157 85.744)">
      <g id="Group_562" data-name="Group 562">
        <path id="Path_346" data-name="Path 346" d="M432.521,339.085a19.934,19.934,0,0,1,10.686-3.279.553.553,0,0,0,0-1.105,21.119,21.119,0,0,0-11.238,3.464c-.59.368-.037,1.327.553.921Z" transform="translate(-431.716 -334.7)" fill="#e8e8e8"/>
      </g>
    </g>
    <g id="Group_565" data-name="Group 565" transform="translate(28.047 88.868)">
      <g id="Group_564" data-name="Group 564">
        <path id="Path_347" data-name="Path 347" d="M432.221,348.934a35.106,35.106,0,0,1,13.044-4.68c.7-.111.405-1.179-.295-1.069a35.629,35.629,0,0,0-13.3,4.79c-.59.368-.037,1.326.553.958Z" transform="translate(-431.416 -343.178)" fill="#e8e8e8"/>
      </g>
    </g>
    <g id="Group_567" data-name="Group 567" transform="translate(243.511 112.734)">
      <g id="Group_566" data-name="Group 566">
        <path id="Path_348" data-name="Path 348" d="M1017.872,408a2.8,2.8,0,0,0-.921,4.5c.774.774,1.437.553,2.358.847.59.184,1.253.553,1.142,1.142-.074.405-.479.737-.7,1.069a4.84,4.84,0,0,0-.958,1.621,1.9,1.9,0,0,0,.59,1.879c.811.7,1.879.258,2.764.7,1.842.884-1.511,4.753,1.326,5.49a.554.554,0,0,0,.295-1.069c-1.179-.295.295-2.542.405-3.243a1.906,1.906,0,0,0-.516-1.7c-1.253-1.216-4.938.074-3.058-3.021.59-.958,1.658-2.137.958-3.39a1.524,1.524,0,0,0-1.032-.737c-.442-.074-1.142,0-1.584-.037-1.953-.111-2.174-2.285-.516-3.132.626-.258.074-1.216-.553-.921Z" transform="translate(-1016.164 -407.949)" fill="#e8e8e8"/>
      </g>
    </g>
    <g id="Group_569" data-name="Group 569" transform="translate(252.394 118.94)">
      <g id="Group_568" data-name="Group 568">
        <path id="Path_349" data-name="Path 349" d="M1041.277,424.832c-1.216.479-1.253,1.805-.516,2.8.479.7,1.253.848,1.879,1.327,1.548,1.142.184,2.1-.074,3.427-.442,2.285,1.99,1.511,2.69,2.985.59,1.216.369,2.579,1.879,3.132.663.258.958-.811.295-1.069-1.069-.368-.921-2.4-1.511-3.206a3.154,3.154,0,0,0-.7-.7c-.147-.111-.368-.074-.479-.147-.258-.037-.442-.221-.516-.59-.516-.332-.589-.663-.147-1.032.332-1.032.995-1.658.295-2.727a3.606,3.606,0,0,0-1.142-.958c-.332-.221-2.727-1.695-1.621-2.137.626-.295.332-1.363-.332-1.105Z" transform="translate(-1040.272 -424.792)" fill="#e8e8e8"/>
      </g>
    </g>
    <g id="Group_571" data-name="Group 571" transform="translate(321.738 184.452)">
      <g id="Group_570" data-name="Group 570">
        <path id="Path_350" data-name="Path 350" d="M1231.314,611.507a4.334,4.334,0,0,1,.663-7.406,5,5,0,0,1,6.375,2.1,4.946,4.946,0,0,1-2.027,6.375,5.012,5.012,0,0,1-6.411-1.953c-.369-.59-1.327-.037-.958.553a5.871,5.871,0,1,0,9.875-6.3,6.007,6.007,0,0,0-8.328-1.069,5.425,5.425,0,0,0,.295,8.7c.553.368,1.105-.59.516-.995Z" transform="translate(-1228.463 -602.585)" fill="#e8e8e8"/>
      </g>
    </g>
    <g id="Group_573" data-name="Group 573" transform="translate(68.537 189.128)">
      <g id="Group_572" data-name="Group 572">
        <path id="Path_351" data-name="Path 351" d="M543.034,630.132c.405-1.326.995-1.695,1.695-1.069.184.074.369.184.516.258a2.242,2.242,0,0,0,.848.111,1.709,1.709,0,0,0,1.253-.847c.921-1.474-.111-2.911-1.032-4.053-.479-.553-1.363-1.29-1.253-2.137.147-1.621,1.105-.958,1.916-1.069a1.693,1.693,0,0,0,1.4-.847,2.455,2.455,0,0,0,.147-1.621,7.989,7.989,0,0,1-.147-.921q-.387-1.161,1.105-1.437a4.384,4.384,0,0,1,1.216,1.253c.405.59,1.363.037.958-.553-.995-1.4-3.943-3.316-4.422-.405-.221,1.474,1.142,3.021-1.032,3.39-1.069.184-1.806.184-2.137,1.437a3.2,3.2,0,0,0,.737,2.837c.295.368.626.7.921,1.032a3.5,3.5,0,0,1,.811,1.253c-.442.442-.847.884-1.29,1.326-.332.074-1.179-.626-1.658-.663-2.137-.147-3.279,2.727-1.142,3.648.7.295,1.253-.663.59-.921Z" transform="translate(-541.303 -615.273)" fill="#e8e8e8"/>
      </g>
    </g>
    <g id="Group_575" data-name="Group 575" transform="translate(77.023 189.932)">
      <g id="Group_574" data-name="Group 574">
        <path id="Path_352" data-name="Path 352" d="M566.568,629.927c-.59-.958-1.511-2.432-1.105-3.648.295-.921,1.548-1.326,2.1-2.063a3.266,3.266,0,0,0-.037-3.8c-.147.295-.332.553-.479.847a4.3,4.3,0,0,0,4.5-3.132c.221-.7-.848-.958-1.069-.295a3.214,3.214,0,0,1-3.427,2.321.564.564,0,0,0-.479.847,2.306,2.306,0,0,1,.184,2.469c-.442.663-1.032.7-1.511,1.179a2.688,2.688,0,0,0-.848,1.548c-.295,1.511.516,3.021,1.253,4.274.332.626,1.29.074.921-.553Z" transform="translate(-564.332 -617.457)" fill="#e8e8e8"/>
      </g>
    </g>
    <g id="Group_577" data-name="Group 577" transform="translate(191.64 11.032)">
      <g id="Group_576" data-name="Group 576">
        <path id="Path_353" data-name="Path 353" d="M875.542,132.92a15.888,15.888,0,0,1,3.685,7.775c.111.7,1.179.405,1.069-.295a17.244,17.244,0,0,0-3.98-8.291c-.479-.516-1.253.258-.774.811Z" transform="translate(-875.391 -131.94)" fill="#e8e8e8"/>
      </g>
    </g>
    <g id="Group_579" data-name="Group 579" transform="translate(191.805 6.302)">
      <g id="Group_578" data-name="Group 578">
        <path id="Path_354" data-name="Path 354" d="M876.782,124.923c1.253-1.142,6.264-5.638,8.106-4.348a11.184,11.184,0,0,1,2.321,3.169,22.4,22.4,0,0,1,1.805,3.943c.221.663,1.29.368,1.069-.295a24.743,24.743,0,0,0-2.4-4.974c-.626-.995-1.584-2.69-2.727-3.169-1.29-.553-2.874.59-3.943,1.216a28.765,28.765,0,0,0-5.011,3.685c-.516.479.258,1.253.774.774Z" transform="translate(-875.838 -119.102)" fill="#e8e8e8"/>
      </g>
    </g>
    <g id="Group_581" data-name="Group 581" transform="translate(195.691 13.541)">
      <g id="Group_580" data-name="Group 580">
        <path id="Path_355" data-name="Path 355" d="M887.348,145.7a38.265,38.265,0,0,1,9.47-5.932c.663-.295.074-1.253-.553-.958a39.129,39.129,0,0,0-9.691,6.117c-.553.442.221,1.216.774.774Z" transform="translate(-886.384 -138.749)" fill="#e8e8e8"/>
      </g>
    </g>
    <g id="Group_583" data-name="Group 583" transform="translate(202.107 5.763)">
      <g id="Group_582" data-name="Group 582">
        <path id="Path_356" data-name="Path 356" d="M904.756,121.973c1.4-1.179,4.532-4.164,6.264-2.211,1.253,1.4,2.063,3.685,2.8,5.38.295.663,1.253.074.958-.553a40.905,40.905,0,0,0-2.321-4.569c-.442-.774-.995-1.953-1.916-2.285-1.069-.368-2.211.405-3.058.921a26.259,26.259,0,0,0-3.5,2.506c-.553.516.258,1.29.774.811Z" transform="translate(-903.797 -117.639)" fill="#e8e8e8"/>
      </g>
    </g>
    <g id="Group_585" data-name="Group 585" transform="translate(200.041 13.541)">
      <g id="Group_584" data-name="Group 584">
        <path id="Path_357" data-name="Path 357" d="M898.489,142.047a15.525,15.525,0,0,1,4.569,3.132.582.582,0,0,0,.884-.111,15.846,15.846,0,0,1,6.338-5.306c.663-.295.074-1.253-.553-.958a16.821,16.821,0,0,0-6.743,5.674l.884-.111a15.835,15.835,0,0,0-4.79-3.279c-.7-.258-1.253.663-.59.958Z" transform="translate(-898.191 -138.749)" fill="#e8e8e8"/>
      </g>
    </g>
    <g id="Group_587" data-name="Group 587" transform="translate(206.879 47.828)">
      <g id="Group_586" data-name="Group 586">
        <path id="Path_358" data-name="Path 358" d="M918.241,241.786c-.074-.405-.184-.811-.258-1.216a4.708,4.708,0,0,1,1.069-.847,7.9,7.9,0,0,0,.7-.479,3.176,3.176,0,0,0,.958-1.253,4.035,4.035,0,0,0,.11-1.99c-.037-.221-.074-.479-.11-.7-.037-.258.11-3.243,1.29-2.285.553.442,1.326-.332.774-.774a1.662,1.662,0,0,0-2.4.147c-1.253,1.216-.663,2.653-.59,4.127.111,2.211-2.764,2.321-3.021,4.348a1.6,1.6,0,0,0,1.216,1.953c.663.147.958-.921.258-1.032Z" transform="translate(-916.749 -231.8)" fill="#ec615b"/>
      </g>
    </g>
    <g id="Group_589" data-name="Group 589" transform="translate(212.236 46.756)">
      <g id="Group_588" data-name="Group 588">
        <path id="Path_359" data-name="Path 359" d="M931.475,236.891a1.436,1.436,0,0,0,2.321-.958c.184-.995-.479-1.916-.405-2.911A3.582,3.582,0,0,1,935.676,230c.663-.258.368-1.327-.295-1.069a4.454,4.454,0,0,0-2.69,2.469,4.312,4.312,0,0,0-.405,1.806,6.045,6.045,0,0,0,.074.848s.553,2.542-.074,2.027c-.59-.405-1.363.368-.811.811Z" transform="translate(-931.285 -228.892)" fill="#ec615b"/>
      </g>
    </g>
    <g id="Group_591" data-name="Group 591" transform="translate(115.695 172.793)">
      <g id="Group_590" data-name="Group 590">
        <path id="Path_360" data-name="Path 360" d="M670.948,574.5a1.137,1.137,0,0,1-.258-1.769,2.371,2.371,0,0,1,2.063-.663,1.982,1.982,0,0,1,1.511.995c.295.663-.147,1.806-1.032,1.695-.7-.111-.995.958-.295,1.069a2.224,2.224,0,0,0,2.542-1.953,2.638,2.638,0,0,0-2.137-2.8,3.382,3.382,0,0,0-3.685,1.216,2.193,2.193,0,0,0,.774,3.169.545.545,0,0,0,.516-.958Z" transform="translate(-669.284 -570.943)" fill="#ec615b"/>
      </g>
    </g>
    <g id="Group_593" data-name="Group 593" transform="translate(56.815 37.645)">
      <g id="Group_592" data-name="Group 592">
        <path id="Path_361" data-name="Path 361" d="M511.815,212.468c.221-.737.442-1.511.626-2.248l.663.221a8.291,8.291,0,0,1,.884.295,2.552,2.552,0,0,0,1.29.037,2.077,2.077,0,0,0,1.253-2.174c0-.921-.332-1.916.405-2.653a2.645,2.645,0,0,1,2.358-.626c2.542.59,2.285,3.8,1.179,5.527-.368.59.59,1.142.958.553,1.216-1.953,1.511-4.9-.479-6.485a3.741,3.741,0,0,0-5.122.59c-.774,1.032-.258,1.953-.479,3.132-.368,1.953-3.132.147-4.385.59-2.358.848-1.658,3.832.442,4.385.774.111,1.069-.958.405-1.142Z" transform="translate(-509.489 -204.164)" fill="#ec615b"/>
      </g>
    </g>
    <g id="Group_595" data-name="Group 595" transform="translate(297.991 200.392)">
      <g id="Group_594" data-name="Group 594">
        <path id="Path_362" data-name="Path 362" d="M1164.821,653.013a2.211,2.211,0,0,1,2.542-.147.559.559,0,0,0,.811-.626,1.363,1.363,0,0,1,.295-1.769c.258-1.142.848-1.216,1.732-.258.258.516.995.221,1.032-.295a9.918,9.918,0,0,1,.111-1.474c.111-1.179.884-1.474,2.248-.921.295.663,1.216.074.958-.553a2,2,0,0,0-2.653-.958c-1.548.626-1.732,2.469-1.769,3.906.332-.111.7-.184,1.032-.295a2.15,2.15,0,0,0-2.948-.958c-1.4.737-1.474,2.469-1.105,3.832.258-.221.553-.405.811-.626a3.514,3.514,0,0,0-3.648.147c-.59.405-.037,1.363.553.995Z" transform="translate(-1164.016 -645.844)" fill="#ec615b"/>
      </g>
    </g>
    <g id="Group_597" data-name="Group 597" transform="translate(266.482 54.881)">
      <g id="Group_596" data-name="Group 596">
        <path id="Path_363" data-name="Path 363" d="M1082.188,250.964a5.151,5.151,0,0,0-3.648,4.385c-.258,1.99.921,4.459,3.132,4.68,1.621.147,3.243-1.695,2.248-3.206-1.068-1.658-3.132-.442-3.979.737-2.4,3.427-.258,10.133,4.68,8.549,1.363-.442,3.058-2.1,2.284-3.685-.958-1.953-3.1.147-3.648,1.253-1.142,2.285-1.437,5.564.921,7.185a3.219,3.219,0,0,0,4.974-1.732c.147-.479-.553-.995-.921-.553a4.69,4.69,0,0,0,3.537,7.775c.7.037.7-1.069,0-1.105a3.559,3.559,0,0,1-2.764-5.859c-.295-.184-.626-.368-.921-.553-.553,2.1-3.132,1.769-4.127.221a4.913,4.913,0,0,1,.221-4.827c.184-.368,1.179-2.1,1.769-.995.295.59-.811,1.437-1.179,1.658a2.955,2.955,0,0,1-3.537-.516,4.84,4.84,0,0,1-1.105-3.722,5.713,5.713,0,0,1,.553-2.1c.147-.221.332-.442.479-.663.921-.884.884-.626-.147.811-.737.074-1.363-1.953-1.4-2.432a4.418,4.418,0,0,1,.147-1.4,3.946,3.946,0,0,1,2.727-2.8.573.573,0,0,0-.295-1.105Z" transform="translate(-1078.505 -250.942)" fill="#ec615b"/>
      </g>
    </g>
    <g id="Group_599" data-name="Group 599" transform="translate(70.68 66.294)">
      <g id="Group_598" data-name="Group 598">
        <path id="Path_364" data-name="Path 364" d="M548.365,293.037a2.3,2.3,0,0,1,.516-2.432,2.564,2.564,0,0,1,2.542-.516,2.376,2.376,0,0,0,1.806-.184,3.032,3.032,0,0,0,1.032-1.327,6.3,6.3,0,0,0,.332-1.105c.037-.258.111-.516.147-.737.074-.884.7-1.253,1.842-1.105-.037.663.884.7,1.069.147a4.184,4.184,0,0,1,1.437-2.248c1.142-.774,2.764-.626,2.985.958.111.7,1.142.405,1.069-.295a2.735,2.735,0,0,0-3.169-2.248c-1.842.258-2.837,1.99-3.353,3.574.369.037.737.111,1.069.147a1.667,1.667,0,0,0-2.027-1.658c-1.732.221-1.806,2.174-2.174,3.464-.258.921-.479,1.621-1.769,1.584-.369,0-.811-.258-1.216-.258a3.369,3.369,0,0,0-1.953.663,3.5,3.5,0,0,0-1.253,3.906c.221.626,1.29.368,1.069-.332Z" transform="translate(-547.119 -281.914)" fill="#5222d0"/>
      </g>
    </g>
    <ellipse id="Ellipse_15" data-name="Ellipse 15" cx="4.79" cy="5.122" rx="4.79" ry="5.122" transform="translate(273.408 102.915)" fill="#5222d0"/>
    <ellipse id="Ellipse_16" data-name="Ellipse 16" cx="3.169" cy="3.132" rx="3.169" ry="3.132" transform="translate(15.918 108.037)" fill="#5222d0"/>
    <ellipse id="Ellipse_17" data-name="Ellipse 17" cx="2.653" cy="2.874" rx="2.653" ry="2.874" transform="translate(63.341 241.94)" fill="#5222d0"/>
    <ellipse id="Ellipse_18" data-name="Ellipse 18" cx="5.564" cy="5.269" rx="5.564" ry="5.269" transform="translate(267.07 108.995)" fill="#ec615b"/>
    <ellipse id="Ellipse_19" data-name="Ellipse 19" cx="2.837" cy="3.169" rx="2.837" ry="3.169" transform="translate(159.66 0)" fill="#ec615b"/>
    <ellipse id="Ellipse_20" data-name="Ellipse 20" cx="3.98" cy="4.422" rx="3.98" ry="4.422" transform="translate(314.235 166.403)" fill="#ec615b"/>
    <ellipse id="Ellipse_21" data-name="Ellipse 21" cx="7.959" cy="8.143" rx="7.959" ry="8.143" transform="translate(0 136.114)" fill="#ec615b"/>
  </g>
  <g id="background_grey" transform="translate(0 174.274)">
    <g id="Group_601" data-name="Group 601" transform="translate(101.17 90.089)">
      <g id="Group_600" data-name="Group 600">
        <path id="Path_365" data-name="Path 365" d="M496.473,916.232c-7.148-10.759-16.729-22.477-15.476-36.184l-.553.553a6.923,6.923,0,0,1,3.1.59c.405.184.995-.111.811-.626a6.656,6.656,0,0,0-1.769-2.4c-1.363-1.437-1.474-2.911-1.4-4.79a18.026,18.026,0,0,0-1.658-8.438c-.111.258-.221.553-.332.811l2.874-.995a.543.543,0,0,0,.368-.663c-2.358-6.854-1.179-14.555-.663-21.593q.829-11.275,2.174-22.477c-.295.147-.553.332-.848.479,4.938,3.169,7.591,8.585,9.654,13.855a178.284,178.284,0,0,1,6.08,18.35,186.87,186.87,0,0,1,6.3,61.609c-.037.7,1.069.7,1.105,0A187.116,187.116,0,0,0,493.71,833.8c-2.174-5.49-4.974-10.98-10.059-14.26-.405-.258-.774.074-.847.479q-1.382,11.607-2.211,23.214c-.516,6.964-1.548,14.407.737,21.15.111-.221.258-.442.368-.663l-2.874.995a.561.561,0,0,0-.332.811,16.374,16.374,0,0,1,1.474,5.122c.147,1.511-.074,2.985.037,4.5a5.38,5.38,0,0,0,.884,2.874c.737,1.032,1.916,1.7,2.358,2.911.258-.221.553-.405.811-.626a8.3,8.3,0,0,0-3.648-.737.567.567,0,0,0-.553.553c-1.253,13.928,8.4,25.83,15.66,36.737.405.516,1.363-.037.958-.626Z" transform="translate(-478.429 -819.453)" fill="#e8e8e8"/>
      </g>
    </g>
    <g id="Group_603" data-name="Group 603" transform="translate(106.694 92.57)">
      <g id="Group_602" data-name="Group 602">
        <path id="Path_366" data-name="Path 366" d="M493.449,826.854A243.409,243.409,0,0,1,508.335,897.2c.405,6.78.516,13.6.368,20.413a.553.553,0,0,0,1.105,0,245.342,245.342,0,0,0-8.88-71.3c-1.842-6.669-4.016-13.265-6.411-19.75-.221-.663-1.29-.369-1.069.295Z" transform="translate(-493.419 -826.185)" fill="#e8e8e8"/>
      </g>
    </g>
    <g id="Group_605" data-name="Group 605" transform="translate(103.487 115.485)">
      <g id="Group_604" data-name="Group 604">
        <path id="Path_367" data-name="Path 367" d="M484.968,889.416a37.542,37.542,0,0,1,13.044,13.707c.332.626,1.29.074.958-.553a38.593,38.593,0,0,0-13.449-14.113c-.59-.368-1.142.59-.553.958Z" transform="translate(-484.716 -888.375)" fill="#e8e8e8"/>
      </g>
    </g>
    <g id="Group_607" data-name="Group 607" transform="translate(104.616 101.873)">
      <g id="Group_606" data-name="Group 606">
        <path id="Path_368" data-name="Path 368" d="M488.008,852.49A28.783,28.783,0,0,1,495.561,861a.553.553,0,0,0,.958-.553,30.227,30.227,0,0,0-7.959-8.917c-.553-.405-1.105.553-.553.958Z" transform="translate(-487.779 -851.434)" fill="#e8e8e8"/>
      </g>
    </g>
    <g id="Group_609" data-name="Group 609" transform="translate(119.981 132.742)">
      <g id="Group_608" data-name="Group 608">
        <path id="Path_369" data-name="Path 369" d="M530.555,949.281a48.73,48.73,0,0,1,3.869-13.228c.295-.626-.663-1.216-.958-.553a50.568,50.568,0,0,0-3.98,13.523c-.111.663.958.958,1.069.258Z" transform="translate(-529.478 -935.208)" fill="#e8e8e8"/>
      </g>
    </g>
    <g id="Group_611" data-name="Group 611" transform="translate(122.591 93.654)">
      <g id="Group_610" data-name="Group 610">
        <path id="Path_370" data-name="Path 370" d="M537.682,861.359c3.39-11.238,9.249-21.408,15.107-31.5a9.265,9.265,0,0,1-.995-.147q4.532,22.108,7.443,44.475l.553-.553-3.869-.221c-.442-.037-.774.663-.405.958,2.211,1.7,1.99,4.643,1.732,7.148-.332,3.316-.7,6.6-1.069,9.912a8.5,8.5,0,0,1,.7-.516,13.45,13.45,0,0,0-2.985-.295.571.571,0,0,0-.479.848c2.837,4.864-1.584,9.949-3.648,14.149a45.3,45.3,0,0,0-4.053,13.486c-.111.7.958.995,1.069.295a44.261,44.261,0,0,1,5.453-16.029c2.137-3.758,4.606-8.217,2.137-12.454-.147.295-.332.553-.479.847a9.4,9.4,0,0,1,2.69.258.56.56,0,0,0,.7-.516c.405-3.8.995-7.591,1.179-11.386.111-2.358-.221-4.9-2.174-6.448-.147.332-.258.626-.405.958l3.869.221c.258,0,.59-.258.553-.553-1.953-15-4.458-29.957-7.517-44.77a.555.555,0,0,0-.995-.147c-5.9,10.17-11.791,20.45-15.218,31.763-.147.59.921.884,1.105.221Z" transform="translate(-536.562 -829.127)" fill="#e8e8e8"/>
      </g>
    </g>
    <g id="Group_613" data-name="Group 613" transform="translate(130.158 95.196)">
      <g id="Group_612" data-name="Group 612">
        <path id="Path_371" data-name="Path 371" d="M564.726,833.714a627.011,627.011,0,0,0-7.627,66.4c-.037.7,1.069.7,1.105,0a622.49,622.49,0,0,1,7.554-66.1c.147-.7-.921-.995-1.032-.295Z" transform="translate(-557.098 -833.314)" fill="#e8e8e8"/>
      </g>
    </g>
    <g id="Group_615" data-name="Group 615" transform="translate(126.592 117.194)">
      <g id="Group_614" data-name="Group 614">
        <path id="Path_372" data-name="Path 372" d="M547.449,893.709c1.511,5.122,3.279,10.133,5.269,15.071.258.663,1.326.369,1.069-.295-1.99-4.938-3.722-9.986-5.269-15.071a.554.554,0,0,0-1.069.295Z" transform="translate(-547.419 -893.014)" fill="#e8e8e8"/>
      </g>
    </g>
    <g id="Group_617" data-name="Group 617" transform="translate(0 132.228)">
      <g id="Group_616" data-name="Group 616">
        <path id="Path_373" data-name="Path 373" d="M204.54,941.216c12.639-4.164,26.493-6.891,39.832-6.19,6.927.369,13.523,2.506,20.082,4.5,6.375,1.916,12.749,3.906,19.161,5.748a106.956,106.956,0,0,0,22,4.237c.7.037.7-1.069,0-1.105-13.781-.884-27.083-5.748-40.2-9.728-6.227-1.879-12.418-3.98-18.94-4.606a87.877,87.877,0,0,0-20.156.921,129.3,129.3,0,0,0-22.108,5.159c-.626.221-.332,1.29.332,1.069Z" transform="translate(-203.863 -933.815)" fill="#e8e8e8"/>
      </g>
    </g>
    <g id="Group_619" data-name="Group 619" transform="translate(39.306 115.011)">
      <g id="Group_618" data-name="Group 618">
        <path id="Path_374" data-name="Path 374" d="M311.222,905.076c10.759-2.358,21.556-4.716,32.168-7.775,10.428-3.022,20.6-7.775,31.468-9.1.7-.074.7-1.179,0-1.105-10.723,1.326-20.745,5.932-31.062,8.954-10.8,3.169-21.814,5.564-32.831,8-.737.11-.442,1.179.258,1.032Z" transform="translate(-310.535 -887.09)" fill="#e8e8e8"/>
      </g>
    </g>
    <g id="Group_621" data-name="Group 621" transform="translate(119.059 112.337)">
      <g id="Group_620" data-name="Group 620">
        <path id="Path_375" data-name="Path 375" d="M527.5,881.109c2.948-.184,5.932-.221,8.88-.11.7.037.7-1.069,0-1.105-2.985-.111-5.932-.074-8.88.111-.7.074-.7,1.179,0,1.105Z" transform="translate(-526.975 -879.831)" fill="#e8e8e8"/>
      </g>
    </g>
    <g id="Group_623" data-name="Group 623" transform="translate(14.131 181.65)">
      <g id="Group_622" data-name="Group 622">
        <path id="Path_376" data-name="Path 376" d="M242.909,1069.51c12.381-1.769,24.651,1.363,36.811,3.279a95.68,95.68,0,0,0,17.466,1.326c6.559-.184,13.118-.847,19.6.295.7.11.995-.958.295-1.069-6.375-1.105-12.749-.553-19.2-.332a98.872,98.872,0,0,1-19.234-1.474c-11.939-1.953-23.914-4.79-36.037-3.058-.7.074-.405,1.142.295,1.032Z" transform="translate(-242.214 -1067.941)" fill="#e8e8e8"/>
      </g>
    </g>
    <g id="Group_625" data-name="Group 625" transform="translate(87.302 195.807)">
      <g id="Group_624" data-name="Group 624">
        <path id="Path_377" data-name="Path 377" d="M441.936,1108.218c.147-1.142,4.532-.626,5.306-.626.958,0,4.5-.553,4.974.479a5.886,5.886,0,0,0,.184-.774,9.268,9.268,0,0,1-5.969,1.584c-.7-.037-.7,1.069,0,1.105a10.509,10.509,0,0,0,6.522-1.732.581.581,0,0,0,.184-.774,1.822,1.822,0,0,0-1.621-.995,37.434,37.434,0,0,0-5.38-.037c-1.658,0-5.085-.626-5.343,1.732-.074.737,1.069.737,1.142.037Z" transform="translate(-440.791 -1106.361)" fill="#e8e8e8"/>
      </g>
    </g>
    <g id="Group_627" data-name="Group 627" transform="translate(86.111 177.823)">
      <g id="Group_626" data-name="Group 626">
        <path id="Path_378" data-name="Path 378" d="M440.706,1059.156a1.883,1.883,0,0,1-2.174-.332l-.111.884a4.955,4.955,0,0,1,3.169-1.105c.958.037,1.806.553,2.764.59a15.759,15.759,0,0,0,2.579-.442,5.946,5.946,0,0,1,3.943.774.553.553,0,0,0,.553-.958,6.8,6.8,0,0,0-2.911-.958c-1.511-.147-2.911.663-4.348.479a14.772,14.772,0,0,0-3.39-.516,5.8,5.8,0,0,0-2.948,1.216.579.579,0,0,0-.111.884,3.1,3.1,0,0,0,3.243.626c.7-.295.405-1.363-.258-1.142Z" transform="translate(-437.558 -1057.556)" fill="#e8e8e8"/>
      </g>
    </g>
    <g id="Group_629" data-name="Group 629" transform="translate(33.25 193.532)">
      <g id="Group_628" data-name="Group 628">
        <path id="Path_379" data-name="Path 379" d="M294.247,1101.7c1.879,2.322,4.385.147,6.485-.295,1.732-.369,3.1.663,4.79.663,1.806,0,3.758-.848,5.343.295.59.405,1.142-.553.553-.958a4.54,4.54,0,0,0-3.169-.737,11.763,11.763,0,0,1-4.938-.184,4.877,4.877,0,0,0-3.464.037c-1.474.553-3.574,2.027-4.9.405-.368-.553-1.179.258-.7.774Z" transform="translate(-294.1 -1100.187)" fill="#e8e8e8"/>
      </g>
    </g>
    <g id="Group_631" data-name="Group 631" transform="translate(151.746 184.694)">
      <g id="Group_630" data-name="Group 630">
        <path id="Path_380" data-name="Path 380" d="M616.354,1079.185c2.432-.958,4.385-.663,6.927-.369a7.261,7.261,0,0,0,4.09-.995c1.474-.663,2.469-.332,3.8.405a5.6,5.6,0,0,0,1.7.663c1.879.369,4.422-.884,6.006.479.553.479,1.326-.332.774-.774-1.4-1.179-2.911-.921-4.643-.774a6.051,6.051,0,0,1-3.758-.848,4.7,4.7,0,0,0-2.285-.774,5.676,5.676,0,0,0-2.174.626,6.767,6.767,0,0,1-4.5.663,11.58,11.58,0,0,0-6.227.589c-.663.295-.368,1.363.295,1.105Z" transform="translate(-615.685 -1076.2)" fill="#e8e8e8"/>
      </g>
    </g>
    <g id="Group_633" data-name="Group 633" transform="translate(394.067 105.192)">
      <g id="Group_632" data-name="Group 632">
        <path id="Path_381" data-name="Path 381" d="M1274.159,883.751c13.081-6.006,26.235-12.049,40.016-16.25a136.048,136.048,0,0,1,67.468-3.132c.7.147.995-.921.295-1.069a137.383,137.383,0,0,0-43.922-1.916c-14.518,1.7-28.409,5.969-41.932,11.46-7.59,3.1-15.071,6.522-22.514,9.949-.59.295-.037,1.253.589.958Z" transform="translate(-1273.319 -860.442)" fill="#e8e8e8"/>
      </g>
    </g>
    <g id="Group_635" data-name="Group 635" transform="translate(454.116 119.149)">
      <g id="Group_634" data-name="Group 634">
        <path id="Path_382" data-name="Path 382" d="M1436.954,908.887a160.87,160.87,0,0,1,26.493-7.185c4.643-.848,9.286-1.437,14-1.879,3.39-.295,9.691-1.732,12.123,1.511.405.553,1.4,0,.958-.553-2.1-2.8-5.748-2.542-8.917-2.358-5.011.295-10.059.847-15.034,1.621a158.091,158.091,0,0,0-29.92,7.775c-.663.258-.368,1.327.295,1.069Z" transform="translate(-1436.285 -898.319)" fill="#e8e8e8"/>
      </g>
    </g>
    <g id="Group_637" data-name="Group 637" transform="translate(394.249 103.878)">
      <g id="Group_636" data-name="Group 636">
        <path id="Path_383" data-name="Path 383" d="M1274.509,859.059a46.505,46.505,0,0,1,29.994,3.427c.626.295,1.216-.663.553-.958a47.868,47.868,0,0,0-30.841-3.537c-.7.147-.405,1.216.295,1.069Z" transform="translate(-1273.814 -856.876)" fill="#e8e8e8"/>
      </g>
    </g>
    <g id="Group_639" data-name="Group 639" transform="translate(416.497 154.907)">
      <g id="Group_638" data-name="Group 638">
        <path id="Path_384" data-name="Path 384" d="M1335.153,997.22c1.584-1.879,4.09.258,5.748.921a4.345,4.345,0,0,0,3.758-.184c2.137-.958,3.869-.111,6.006-.184,2.211-.074,4.016-2.174,6.043-.332.516.479,1.326-.295.774-.774a4.081,4.081,0,0,0-4.422-.811,7.885,7.885,0,0,1-2.432.811,14.983,14.983,0,0,1-2.211-.221,8.968,8.968,0,0,0-2.616-.111c-1.4.258-2.506,1.363-4.053.958a26.621,26.621,0,0,1-3.1-1.511c-1.511-.59-3.243-.7-4.348.626-.405.59.369,1.363.848.811Z" transform="translate(-1334.192 -995.364)" fill="#e8e8e8"/>
      </g>
    </g>
    <g id="Group_641" data-name="Group 641" transform="translate(455.658 131.033)">
      <g id="Group_640" data-name="Group 640">
        <path id="Path_385" data-name="Path 385" d="M1444.755,984.6a68.782,68.782,0,0,1-3.132-23.214c-.295.147-.553.332-.848.479.811.405,1.658.811,2.469,1.216a.571.571,0,0,0,.848-.479,74.915,74.915,0,0,1,4.974-22.108c-.258.11-.553.221-.811.332.442.221.884.442,1.363.7a.556.556,0,0,0,.663-.074,69.611,69.611,0,0,1,9.58-9.912l-.884-.11c2.616,3.648,2.432,8.438,2.248,12.712a77.985,77.985,0,0,1-12.712,39.353c-.405.59.553,1.142.958.553a79.3,79.3,0,0,0,12.933-40.864c.111-4.2.147-8.77-2.432-12.344a.579.579,0,0,0-.884-.111,67.712,67.712,0,0,0-9.58,9.912,4.064,4.064,0,0,1,.663-.074c-.442-.221-.884-.442-1.363-.7a.57.57,0,0,0-.811.332,76.614,76.614,0,0,0-5.011,22.4c.295-.147.553-.332.848-.479-.811-.405-1.658-.811-2.469-1.216a.579.579,0,0,0-.848.479,69.381,69.381,0,0,0,3.169,23.472c.221.7,1.29.405,1.068-.258Z" transform="translate(-1440.47 -930.572)" fill="#e8e8e8"/>
      </g>
    </g>
    <g id="Group_643" data-name="Group 643" transform="translate(468.695 131.523)">
      <g id="Group_642" data-name="Group 642">
        <path id="Path_386" data-name="Path 386" d="M1483.5,957.51a111.8,111.8,0,0,1,8.77-15.439c-.221.074-.405.184-.626.258,2.137.553,3.316-1.4,4.422-2.874a23.516,23.516,0,0,1,7.554-6.559c-.258-.111-.553-.221-.811-.332,3.353,10.465,1.216,21.3-5.048,30.215a122.266,122.266,0,0,1-9.8,12.012,42.974,42.974,0,0,1-11.828,9.4c-.626.332-.074,1.29.553.958a43.372,43.372,0,0,0,12.049-9.58,114.208,114.208,0,0,0,10.354-12.749,34.871,34.871,0,0,0,4.79-30.51.561.561,0,0,0-.811-.332,25.48,25.48,0,0,0-5.49,4.053,26.383,26.383,0,0,0-2.1,2.4c-.811,1.032-1.879,3.279-3.537,2.874a.545.545,0,0,0-.626.258,111.813,111.813,0,0,0-8.77,15.439c-.295.59.663,1.179.958.516Z" transform="translate(-1475.852 -931.902)" fill="#e8e8e8"/>
      </g>
    </g>
    <g id="Group_645" data-name="Group 645" transform="translate(459.861 138.076)">
      <g id="Group_644" data-name="Group 644">
        <path id="Path_387" data-name="Path 387" d="M1463.162,950.059c-2.542,6.927-5.638,13.891-7.3,21.114-1.695,7.37-2.727,14.923-3.979,22.366-.111.7.958.995,1.069.295,1.29-7.443,2.284-15.034,3.979-22.366,1.658-7.222,4.753-14.149,7.3-21.114.258-.663-.811-.958-1.069-.295Z" transform="translate(-1451.878 -949.685)" fill="#e8e8e8"/>
      </g>
    </g>
    <g id="Group_647" data-name="Group 647" transform="translate(467.936 143.664)">
      <g id="Group_646" data-name="Group 646">
        <path id="Path_388" data-name="Path 388" d="M1496.419,965.126q-6.135,9.838-12.27,19.64c-3.722,5.969-7.738,11.828-10.317,18.387-.258.663.811.958,1.068.295,2.653-6.669,6.817-12.675,10.612-18.755,3.943-6.338,7.922-12.676,11.865-19.05.368-.589-.59-1.142-.958-.516Z" transform="translate(-1473.792 -964.849)" fill="#e8e8e8"/>
      </g>
    </g>
    <g id="Group_649" data-name="Group 649" transform="translate(461.413 144.765)">
      <g id="Group_648" data-name="Group 648">
        <path id="Path_389" data-name="Path 389" d="M1456.094,968.376a39.959,39.959,0,0,0,2.616,10.759c.258.663,1.326.368,1.069-.295a39.214,39.214,0,0,1-2.579-10.465c-.074-.7-1.179-.737-1.105,0Z" transform="translate(-1456.09 -967.837)" fill="#e8e8e8"/>
      </g>
    </g>
    <g id="Group_651" data-name="Group 651" transform="translate(463.479 150.162)">
      <g id="Group_650" data-name="Group 650">
        <path id="Path_390" data-name="Path 390" d="M1462.656,995.35a105.452,105.452,0,0,0,11.754-11.9c.442-.553-.332-1.327-.774-.774a105.471,105.471,0,0,1-11.754,11.9c-.553.479.258,1.253.774.774Z" transform="translate(-1461.697 -982.484)" fill="#e8e8e8"/>
      </g>
    </g>
    <g id="Group_653" data-name="Group 653" transform="translate(481.074 144.972)">
      <g id="Group_652" data-name="Group 652">
        <path id="Path_391" data-name="Path 391" d="M1509.651,968.953a50.717,50.717,0,0,0,.221,11.091c.074.7,1.179.7,1.105,0a50.77,50.77,0,0,1-.221-11.091c.074-.737-1.032-.737-1.105,0Z" transform="translate(-1509.448 -968.4)" fill="#e8e8e8"/>
      </g>
    </g>
    <g id="Group_655" data-name="Group 655" transform="translate(37.032)">
      <g id="Group_654" data-name="Group 654">
        <path id="Path_392" data-name="Path 392" d="M314.584,600.953a12.723,12.723,0,0,1-9.138-12.233c.074-6.227,5.674-12.86,12.2-12.712,6.854.184,10.538,8.512,9.875,14.518a11.6,11.6,0,0,1-14.7,9.765.554.554,0,0,0-.295,1.069,12.72,12.72,0,0,0,14.37-5.564c2.948-4.974,1.953-11.57-1.179-16.25a10.333,10.333,0,0,0-14.039-3.058c-4.68,2.764-7.885,8.475-7.222,13.928a13.872,13.872,0,0,0,9.838,11.57.537.537,0,1,0,.295-1.032Z" transform="translate(-304.364 -574.961)" fill="#e8e8e8"/>
      </g>
    </g>
    <g id="Group_657" data-name="Group 657" transform="translate(35.978 52.995)">
      <g id="Group_656" data-name="Group 656">
        <path id="Path_393" data-name="Path 393" d="M301.649,719.748a6.715,6.715,0,0,0,4.422,2.4,5.755,5.755,0,0,0,2.727-.332c1.4-.479,2.542-1.511,4.164-1.216,2.027.332,3.537,1.732,5.674,1.474,2.321-.258,4.348-1.916,6.78-1.732,2.211.184,4.09,1.7,6.264,2.137,1.916.405,3.132-.295,4.753-1.142,4.164-2.211,8.917.59,13.265-.884.663-.221.368-1.29-.295-1.069-3.906,1.29-8-.847-11.939.295-2.174.626-3.537,2.248-6.006,1.621-1.879-.479-3.5-1.621-5.417-1.953-1.806-.332-3.39.295-5.048.921a8.7,8.7,0,0,1-3.058.774c-1.327,0-2.432-.737-3.611-1.179a5.38,5.38,0,0,0-4.569.332c-2.653,1.216-5.343,1.179-7.333-1.216-.442-.553-1.253.221-.774.774Z" transform="translate(-301.502 -718.784)" fill="#e8e8e8"/>
      </g>
    </g>
    <g id="Group_659" data-name="Group 659" transform="translate(64.331 42.391)">
      <g id="Group_658" data-name="Group 658">
        <path id="Path_394" data-name="Path 394" d="M378.726,691.957c2.911,1.621,6.264-.774,9.138.737,1.142.59,1.879,1.548,3.279,1.363a6.679,6.679,0,0,0,2.911-1.695c1.99-1.548,3.611-1.179,5.785-.295a11.943,11.943,0,0,0,4.9,1.032c3.906-.074,7.775-1.769,11.644-.479.663.221.958-.848.295-1.069-3.316-1.105-6.633-.147-9.986.258a11.282,11.282,0,0,1-5.748-.516c-1.548-.59-3.1-1.474-4.827-1.253a5.882,5.882,0,0,0-2.874,1.511,4.11,4.11,0,0,1-2.432,1.326c-.995.037-1.584-.737-2.432-1.179-2.874-1.584-6.3.848-9.138-.737-.59-.332-1.142.626-.516.995Z" transform="translate(-378.449 -690.006)" fill="#e8e8e8"/>
      </g>
    </g>
    <g id="Group_661" data-name="Group 661" transform="translate(390.875 16.847)">
      <g id="Group_660" data-name="Group 660">
        <path id="Path_395" data-name="Path 395" d="M1265.336,625.185c2.211-.59,3.8-.59,5.748.7a8.575,8.575,0,0,0,3.1,1.326,14.2,14.2,0,0,0,6.08-.626c2.4-.663,4.827-1.548,7.333-1.548,2.653,0,4.827,1.842,7.517,1.621,5.011-.442,8.143-5.417,13.523-4.827,4.68.516,9.323,3.464,13.928,1.216.626-.295.074-1.253-.553-.958-4.79,2.321-9.986-1.584-14.923-1.4a12.983,12.983,0,0,0-6.08,2.137c-2.321,1.4-4.864,3.316-7.775,2.616-1.327-.295-2.469-1.032-3.8-1.326a9.71,9.71,0,0,0-3.1-.111,40.429,40.429,0,0,0-6.633,1.584c-2.542.663-5.2,1.142-7.591-.295a8.975,8.975,0,0,0-3.058-1.584,9.272,9.272,0,0,0-4.016.442c-.663.147-.405,1.216.295,1.032Z" transform="translate(-1264.657 -620.683)" fill="#e8e8e8"/>
      </g>
    </g>
    <g id="Group_663" data-name="Group 663" transform="translate(430.828 27.549)">
      <g id="Group_662" data-name="Group 662">
        <path id="Path_396" data-name="Path 396" d="M1373.937,653.254a7.182,7.182,0,0,1,6.743-.405c1.326.59,2.358,1.363,3.869,1.253,3.427-.258,5.785-3.279,9.359-1.658a5.846,5.846,0,0,0,3.316.811c1.511-.258,2.579-1.474,3.943-1.99,3.353-1.29,7.148.59,10.649-.184.7-.147.405-1.216-.295-1.069-3.464.737-7.038-1.032-10.465.111-1.584.516-2.8,2.027-4.532,2.027s-3.1-1.4-4.9-1.363c-3.316.074-5.969,3.39-9.359,1.769-3.021-1.474-5.9-1.916-8.954-.147-.553.221,0,1.179.626.848Z" transform="translate(-1373.083 -649.726)" fill="#e8e8e8"/>
      </g>
    </g>
    <g id="Group_665" data-name="Group 665" transform="translate(402.282 84.352)">
      <g id="Group_664" data-name="Group 664">
        <path id="Path_397" data-name="Path 397" d="M1296.309,805.658c2.358-.737,4.016-.147,6.154.774a6.121,6.121,0,0,0,3.537.368c1.547-.332,2.948-1.069,4.458-1.474,2.285-.59,3.574.663,5.564,1.437,2.948,1.142,5.343-.958,8.07-1.621,3.464-.848,6.633,1.621,10.133,1.105.7-.11.405-1.179-.295-1.069-3.39.516-6.448-1.916-9.875-1.142-1.621.369-3.021,1.253-4.606,1.732-2.321.7-3.648-.553-5.675-1.363-2.764-1.069-5.2.7-7.849,1.29-1.916.442-3.206-.516-4.937-1.105a7.918,7.918,0,0,0-4.974.037.537.537,0,1,0,.295,1.032Z" transform="translate(-1295.614 -803.884)" fill="#e8e8e8"/>
      </g>
    </g>
    <path id="Path_398" data-name="Path 398" d="M932.215,1065.909q-74.008,14.149-148.053,28.262Q695.563,1066.535,607,1038.9q118.114.442,236.192.848Q887.74,1052.847,932.215,1065.909Z" transform="translate(-458.454 -867.951)" fill="#666" opacity="0.22"/>
    <path id="Path_399" data-name="Path 399" d="M878.607,1024.51q-62.4,14.978-124.839,29.957-70.415-21.5-140.868-43.038,95.508-8.014,191.054-16.029Q841.262,1009.992,878.607,1024.51Z" transform="translate(-462.18 -840.479)" fill="#666" opacity="0.19"/>
  </g>
  <g id="gift" transform="translate(148.361 159.573)">
    <path id="Path_400" data-name="Path 400" d="M606.5,736.5q.829,55.105,1.695,110.247,69.973,15.807,139.91,31.578-.111-63.783-.258-127.566Q677.155,743.575,606.5,736.5Z" transform="translate(-606.5 -662.276)" fill="#fff" stroke="#161616" stroke-miterlimit="10" stroke-width="2"/>
    <path id="Path_401" data-name="Path 401" d="M1093.431,710.2q-.276,60.8-.553,121.6-50.9,14.978-101.846,29.92-.166-64.5-.332-128.966Q1042.047,721.531,1093.431,710.2Z" transform="translate(-849.132 -645.667)" fill="#fff" stroke="#161616" stroke-miterlimit="10" stroke-width="2"/>
    <path id="Path_402" data-name="Path 402" d="M747.962,709.216q-69.918-7.241-139.762-14.481L700.282,671.3q75.279,7.241,150.6,14.518Q799.42,697.48,747.962,709.216Z" transform="translate(-607.574 -621.1)" fill="#fff" stroke="#161616" stroke-miterlimit="10" stroke-width="2"/>
    <path id="Path_403" data-name="Path 403" d="M896.2,688.632,860.31,686.2q-35.373,12.933-70.71,25.867-.332,58.643-.7,117.285c10.575,2.542,21.15,5.048,31.726,7.591q-.663-60.743-1.363-121.449Q857.731,702.118,896.2,688.632Z" transform="translate(-721.69 -630.51)" fill="#1bff00" stroke="#161616" stroke-miterlimit="10" stroke-width="2"/>
    <path id="Path_404" data-name="Path 404" d="M868.057,833.516c9.765-2.985,19.566-5.969,29.331-8.954q-.5-60.743-1.032-121.449-71.742-8.456-143.521-16.913c-8.291,2.063-16.544,4.127-24.835,6.227q70.194,10.888,140.425,21.74Q868.26,773.86,868.057,833.516Z" transform="translate(-683.23 -630.51)" fill="#1bff00" stroke="#161616" stroke-miterlimit="10" stroke-width="2"/>
    <path id="Path_405" data-name="Path 405" d="M1023.926,543.5c3.39,1.4,3.943,10.17,2.1,17.023-7.075,26.272-52.876,36.921-55.05,32.9-.921-1.732,6.964-5.011,23.545-21.445C1012.8,553.85,1019.467,541.691,1023.926,543.5Z" transform="translate(-836.631 -540.277)" fill="#fff" stroke="#161616" stroke-miterlimit="10" stroke-width="2"/>
    <path id="Path_406" data-name="Path 406" d="M857.935,567.3c.884,4.164,3.058,8.991,17.023,22.4,9.359,8.991,14.076,13.486,15.4,12.6,2.69-1.842-6.227-19.566-14.7-32.2-4.348-6.485-11.975-17.8-15.844-16.323C857.051,554.807,856.83,562.1,857.935,567.3Z" transform="translate(-764.895 -546.798)" fill="#fff" stroke="#161616" stroke-miterlimit="10" stroke-width="2"/>
    <ellipse id="Ellipse_22" data-name="Ellipse 22" cx="9.801" cy="10.354" rx="9.801" ry="10.354" transform="translate(118.391 50.2)" fill="#1bff00" stroke="#161616" stroke-miterlimit="10" stroke-width="2"/>
    <path id="Path_407" data-name="Path 407" d="M954.9,591.417c5.564-5.417,11.2-11.165,16.839-17.171,12.454-13.265,23.545-26.346,33.384-39.021,2.137-.258,6.338-.516,8.106,1.879,2.579,3.427-1.511,10.207-3.427,13.412C1000.038,566.766,968.976,584.047,954.9,591.417Z" transform="translate(-826.524 -535.064)" fill="#1bff00" stroke="#161616" stroke-miterlimit="10" stroke-width="2"/>
    <path id="Path_408" data-name="Path 408" d="M864.385,551.924c1.363-1.253,5.6,1.29,8.106,2.8,20.782,12.491,23.324,42.043,23.73,47.423C879.271,580.259,860.958,555.129,864.385,551.924Z" transform="translate(-769.098 -545.499)" fill="#1bff00" stroke="#161616" stroke-miterlimit="10" stroke-width="2"/>
    <g id="Group_667" data-name="Group 667" transform="translate(7.176 93.016)">
      <g id="Group_666" data-name="Group 666">
        <path id="Path_409" data-name="Path 409" d="M626.5,788.605c16.8.295,33.679.221,50.444.995a401.453,401.453,0,0,1,50.481,6.043c9.433,1.658,18.866,3.464,28.3,5.306.7.147.995-.921.295-1.069-16.508-3.206-33.052-6.375-49.744-8.622-16.876-2.248-33.752-2.985-50.776-3.279-9.654-.147-19.345-.332-29-.479a.553.553,0,0,0,0,1.105Z" transform="translate(-625.975 -787.5)" fill="#161616"/>
      </g>
    </g>
    <g id="Group_669" data-name="Group 669" transform="translate(150.185 85.123)">
      <g id="Group_668" data-name="Group 668">
        <path id="Path_410" data-name="Path 410" d="M1014.754,786.868a661.336,661.336,0,0,1,86.149-19.713c.7-.111.405-1.179-.295-1.069a664.081,664.081,0,0,0-86.149,19.713.556.556,0,0,0,.295,1.069Z" transform="translate(-1014.085 -766.078)" fill="#161616"/>
      </g>
    </g>
    <g id="Group_671" data-name="Group 671" transform="translate(100.151 156.127)">
      <g id="Group_670" data-name="Group 670">
        <path id="Path_411" data-name="Path 411" d="M878.3,959.3v33.457a.553.553,0,0,0,1.105,0V959.3a.553.553,0,0,0-1.105,0Z" transform="translate(-878.3 -958.775)" fill="#161616"/>
      </g>
    </g>
    <g id="Group_673" data-name="Group 673" transform="translate(103.799 182.887)">
      <g id="Group_672" data-name="Group 672">
        <path id="Path_412" data-name="Path 412" d="M888.2,1031.953v16.729a.553.553,0,0,0,1.105,0v-16.729a.553.553,0,1,0-1.105,0Z" transform="translate(-888.2 -1031.4)" fill="#161616"/>
      </g>
    </g>
    <g id="Group_675" data-name="Group 675" transform="translate(180.073 127.717)">
      <g id="Group_674" data-name="Group 674">
        <path id="Path_413" data-name="Path 413" d="M1095.2,882.2v26.751a.553.553,0,0,0,1.105,0V882.2a.553.553,0,0,0-1.105,0Z" transform="translate(-1095.2 -881.675)" fill="#161616"/>
      </g>
    </g>
    <g id="Group_677" data-name="Group 677" transform="translate(182.063 164.823)">
      <g id="Group_676" data-name="Group 676">
        <path id="Path_414" data-name="Path 414" d="M1100.6,982.9v18.055a.553.553,0,0,0,1.105,0V982.9a.553.553,0,0,0-1.105,0Z" transform="translate(-1100.6 -982.375)" fill="#161616"/>
      </g>
    </g>
    <g id="Group_679" data-name="Group 679" transform="translate(47.386 126.28)">
      <g id="Group_678" data-name="Group 678">
        <path id="Path_415" data-name="Path 415" d="M735.1,878.3v14.481a.553.553,0,0,0,1.105,0V878.3a.553.553,0,0,0-1.105,0Z" transform="translate(-735.1 -877.775)" fill="#161616"/>
      </g>
    </g>
    <g id="Group_681" data-name="Group 681" transform="translate(44.254 144.667)">
      <g id="Group_680" data-name="Group 680">
        <path id="Path_416" data-name="Path 416" d="M726.6,928.2v11.717a.553.553,0,0,0,1.105,0V928.2a.553.553,0,0,0-1.105,0Z" transform="translate(-726.6 -927.675)" fill="#161616"/>
      </g>
    </g>
    <path id="Path_417" data-name="Path 417" d="M1091.83,835.122q-49.965,15.2-99.93,30.436v-126.9q50.241-11.5,100.483-22.956Q1092.162,775.393,1091.83,835.122Z" transform="translate(-849.89 -649.14)" fill="#666" opacity="0.21"/>
    <path id="Path_418" data-name="Path 418" d="M1093.473,898.5q-50.9,13.928-101.773,27.857-.332-55.548-.7-111.058,22.5,20.616,45.027,41.269,28.52-9.451,57.077-18.9Q1093.325,868.065,1093.473,898.5Z" transform="translate(-849.322 -712.04)" fill="#666" opacity="0.21"/>
    <path id="Path_419" data-name="Path 419" d="M1029.813,548.986c-1.806-.368-3.722,12.049-10.023,22.256-5.711,9.249-17.1,20.082-42.19,26.346a73.34,73.34,0,0,0,13.965-2.653c6.006-1.732,31.357-9.1,38.027-28.888C1032.318,557.866,1031.287,549.281,1029.813,548.986Z" transform="translate(-840.859 -543.851)" fill="#666" opacity="0.14"/>
    <path id="Path_420" data-name="Path 420" d="M872.4,763.2q15.973,10.833,31.984,21.666c-9.8-1.7-19.566-3.353-29.367-5.048a488.216,488.216,0,0,0,5.785,65.7c2.469,15.734,5.527,30.362,8.917,43.775-5.2-1.437-10.428-2.874-15.623-4.348Q873.266,824.09,872.4,763.2Z" transform="translate(-774.423 -679.138)" fill="#666" opacity="0.2"/>
    <path id="Path_421" data-name="Path 421" d="M879.4,747.87q23.49-3.372,47.017-6.743-10.336-1.382-20.671-2.727c-4.753,1.769-8.659,2.985-11.386,3.8a82.541,82.541,0,0,0-8.033,2.542A65.177,65.177,0,0,0,879.4,747.87Z" transform="translate(-778.843 -663.476)" fill="#666" opacity="0.13"/>
  </g>
  <g id="robot_toy" transform="translate(373.425 316.151)">
    <path id="Path_422" data-name="Path 422" d="M1220.358,1017.7c-1.032.958-2.027,1.953-3.058,2.911l5.306,20.45c1.4-.7,2.837-1.363,4.238-2.063Q1223.638,1028.33,1220.358,1017.7Z" transform="translate(-1217.3 -996.439)" fill="#161616" stroke="#161616" stroke-miterlimit="10" stroke-width="3"/>
    <path id="Path_423" data-name="Path 423" d="M1224.848,978.055c-1.032-.295-2.027-.59-3.058-.884-.184-3.537-.405-7.075-.59-10.612,6.006-2.174,12.049-4.348,18.055-6.559.516.147,1.069.295,1.584.442C1235.534,966.3,1230.191,972.2,1224.848,978.055Z" transform="translate(-1219.763 -960)" fill="#161616" stroke="#161616" stroke-miterlimit="10" stroke-width="3"/>
    <path id="Path_424" data-name="Path 424" d="M1230.6,967.822c.147,3.906.332,7.775.479,11.681,5.122-1.474,10.207-2.911,15.328-4.385.074-4.385.147-8.733.258-13.118C1241.286,963.953,1235.943,965.869,1230.6,967.822Z" transform="translate(-1225.699 -961.263)" fill="#fff" stroke="#161616" stroke-miterlimit="10" stroke-width="3"/>
    <path id="Path_425" data-name="Path 425" d="M1226,1009.064c6.338-1.621,12.639-3.243,18.976-4.864a42.858,42.858,0,0,0-.258,6.338,40.891,40.891,0,0,0,3.39,14.592c-5.269,1.769-10.538,3.574-15.807,5.343C1230.2,1023.324,1228.1,1016.212,1226,1009.064Z" transform="translate(-1222.794 -987.914)" fill="#fff" stroke="#161616" stroke-miterlimit="10" stroke-width="3"/>
    <g id="Group_683" data-name="Group 683" transform="translate(9.721 16.388)">
      <g id="Group_682" data-name="Group 682">
        <path id="Path_426" data-name="Path 426" d="M1243.688,1005a4.46,4.46,0,0,0,.332,1.953c.258.663,1.326.368,1.068-.295a4.383,4.383,0,0,1-.295-1.658c.037-.7-1.068-.7-1.105,0Z" transform="translate(-1243.681 -1004.475)" fill="#161616"/>
      </g>
    </g>
    <g id="Group_685" data-name="Group 685" transform="translate(13.095 15.771)">
      <g id="Group_684" data-name="Group 684">
        <path id="Path_427" data-name="Path 427" d="M1252.861,1003.353a3.3,3.3,0,0,0,.258,1.7.543.543,0,0,0,.663.368c.258-.074.516-.405.369-.663a3.107,3.107,0,0,1-.221-1.4.543.543,0,0,0-.553-.553.535.535,0,0,0-.516.553Z" transform="translate(-1252.838 -1002.8)" fill="#161616"/>
      </g>
    </g>
    <g id="Group_687" data-name="Group 687" transform="translate(8.424 42.748)">
      <g id="Group_686" data-name="Group 686">
        <path id="Path_428" data-name="Path 428" d="M1240.176,1076.709c.774,3.611,4.237,6.89,7.075,9.1a21.254,21.254,0,0,0,10.723,4.311c.7.074.7-1.032,0-1.105a19.955,19.955,0,0,1-10.428-4.385c-2.506-2.063-5.6-5.011-6.3-8.217-.147-.7-1.216-.405-1.068.295Z" transform="translate(-1240.162 -1076.014)" fill="#161616"/>
      </g>
    </g>
    <g id="Group_689" data-name="Group 689" transform="translate(10.919 41.657)">
      <g id="Group_688" data-name="Group 688">
        <path id="Path_429" data-name="Path 429" d="M1247.032,1073.88c3.611,5.49,8.4,10.575,15.181,11.681.7.111.995-.958.295-1.069-6.522-1.069-11.054-5.9-14.555-11.165a.537.537,0,1,0-.921.553Z" transform="translate(-1246.934 -1073.052)" fill="#161616"/>
      </g>
    </g>
    <g id="Group_691" data-name="Group 691" transform="translate(25.698 47.611)">
      <g id="Group_690" data-name="Group 690">
        <path id="Path_430" data-name="Path 430" d="M1288.132,1095.1a13.707,13.707,0,0,1,1.179-3.316,10.313,10.313,0,0,0,.7-1.216c-.332-.663-.442-.626-.258.074a10.687,10.687,0,0,1,.147,1.142,16.994,16.994,0,0,1-.11,3.058c-.037.442,0,1.953-.295,2.285s-.958.295-1.327.332c-.7.037-.7,1.142,0,1.105.737-.037,1.511.295,2.1-.332.589-.663.479-1.953.589-2.764a18.4,18.4,0,0,0,.111-4.274c-.074-.663-.037-1.584-.663-1.916a.587.587,0,0,0-.553,0c-1.511,1.179-2.285,3.832-2.69,5.564a.55.55,0,0,0,1.069.258Z" transform="translate(-1287.042 -1089.211)" fill="#161616"/>
      </g>
    </g>
    <g id="Group_693" data-name="Group 693" transform="translate(19.397 38.573)">
      <g id="Group_692" data-name="Group 692">
        <path id="Path_431" data-name="Path 431" d="M1270.074,1065.648a15.478,15.478,0,0,0,14.039,5.453c.7-.111.405-1.142-.295-1.069a14.315,14.315,0,0,1-12.97-5.159c-.442-.553-1.216.221-.774.774Z" transform="translate(-1269.942 -1064.684)" fill="#161616"/>
      </g>
    </g>
    <g id="Group_695" data-name="Group 695" transform="translate(16.435 39.978)">
      <g id="Group_694" data-name="Group 694">
        <path id="Path_432" data-name="Path 432" d="M1262.049,1069.456a21.035,21.035,0,0,0,16.066,6.743c.7-.037.7-1.142,0-1.105a19.849,19.849,0,0,1-15.292-6.411c-.442-.553-1.253.258-.774.774Z" transform="translate(-1261.902 -1068.497)" fill="#161616"/>
      </g>
    </g>
    <g id="Group_697" data-name="Group 697" transform="translate(33.317 38.8)">
      <g id="Group_696" data-name="Group 696">
        <path id="Path_433" data-name="Path 433" d="M1308.78,1070.79a19.244,19.244,0,0,1,.663-2.063c.074-.221.737-2.321.995-2.321a6.317,6.317,0,0,1-.516-.405,9.917,9.917,0,0,1,0,3.758,25.025,25.025,0,0,1-.811,4.016.554.554,0,0,0,1.069.295,24.124,24.124,0,0,0,.847-4.311,10.706,10.706,0,0,0-.037-4.053.591.591,0,0,0-.516-.405c-1.658.111-2.4,3.943-2.727,5.2a.537.537,0,1,0,1.032.295Z" transform="translate(-1307.719 -1065.3)" fill="#161616"/>
      </g>
    </g>
    <g id="Group_699" data-name="Group 699" transform="translate(31.95 46.593)">
      <g id="Group_698" data-name="Group 698">
        <path id="Path_434" data-name="Path 434" d="M1304.3,1087.463a4.736,4.736,0,0,0,2.764.332c.7-.11.405-1.179-.295-1.068a3.457,3.457,0,0,1-1.916-.221c-.626-.295-1.216.663-.553.958Z" transform="translate(-1304.008 -1086.449)" fill="#161616"/>
      </g>
    </g>
    <g id="Group_701" data-name="Group 701" transform="translate(11.003 45.528)">
      <g id="Group_700" data-name="Group 700">
        <path id="Path_435" data-name="Path 435" d="M1248.245,1086.006a1.583,1.583,0,0,1,1.806-1.327c.7.074.7-1.032,0-1.105a2.666,2.666,0,0,0-2.874,2.137c-.147.7.921.995,1.069.295Z" transform="translate(-1247.162 -1083.559)" fill="#161616"/>
      </g>
    </g>
    <g id="Group_703" data-name="Group 703" transform="translate(14.246 48.772)">
      <g id="Group_702" data-name="Group 702">
        <path id="Path_436" data-name="Path 436" d="M1257.044,1094.845a1.769,1.769,0,0,1,1.4-1.4c.7-.147.405-1.216-.295-1.069a2.809,2.809,0,0,0-2.174,2.137c-.147.737.884,1.032,1.069.332Z" transform="translate(-1255.961 -1092.362)" fill="#161616"/>
      </g>
    </g>
    <g id="Group_705" data-name="Group 705" transform="translate(17.657 51.315)">
      <g id="Group_704" data-name="Group 704">
        <path id="Path_437" data-name="Path 437" d="M1266.317,1101.819a2.17,2.17,0,0,1,1.7-1.474c.7-.147.405-1.216-.295-1.069a3.259,3.259,0,0,0-2.469,2.248c-.221.663.848.958,1.069.295Z" transform="translate(-1265.219 -1099.262)" fill="#161616"/>
      </g>
    </g>
    <g id="Group_707" data-name="Group 707" transform="translate(21.254 52.483)">
      <g id="Group_706" data-name="Group 706">
        <path id="Path_438" data-name="Path 438" d="M1276.094,1102.532a2.526,2.526,0,0,0-1.069,2.579c.111.7,1.179.405,1.069-.295a1.4,1.4,0,0,1,.553-1.327c.59-.405.037-1.363-.553-.958Z" transform="translate(-1274.981 -1102.434)" fill="#161616"/>
      </g>
    </g>
    <g id="Group_709" data-name="Group 709" transform="translate(27.649 49.038)">
      <g id="Group_708" data-name="Group 708">
        <path id="Path_439" data-name="Path 439" d="M1292.766,1093.459c-.7,1.879-.332,4.311-.332,6.3a.553.553,0,0,0,1.105,0c0-1.879-.368-4.237.295-6.006.221-.663-.848-.958-1.069-.295Z" transform="translate(-1292.337 -1093.085)" fill="#161616"/>
      </g>
    </g>
    <g id="Group_711" data-name="Group 711" transform="translate(21.04 41.543)">
      <g id="Group_710" data-name="Group 710">
        <path id="Path_440" data-name="Path 440" d="M1275.505,1075.085a1.263,1.263,0,0,1,.958-1.253.554.554,0,0,0-.295-1.069,2.41,2.41,0,0,0-1.769,2.321.553.553,0,0,0,1.105,0Z" transform="translate(-1274.4 -1072.742)" fill="#161616"/>
      </g>
    </g>
    <g id="Group_713" data-name="Group 713" transform="translate(18.147 39.81)">
      <g id="Group_712" data-name="Group 712">
        <path id="Path_441" data-name="Path 441" d="M1267.563,1070.163a2,2,0,0,1,1.511-1.069.527.527,0,0,0,.368-.663.5.5,0,0,0-.663-.368,3,3,0,0,0-2.174,1.584c-.295.589.663,1.142.958.516Z" transform="translate(-1266.549 -1068.041)" fill="#161616"/>
      </g>
    </g>
    <g id="Group_715" data-name="Group 715" transform="translate(27.007 44.332)">
      <g id="Group_714" data-name="Group 714">
        <path id="Path_442" data-name="Path 442" d="M1291.664,1082.04a.758.758,0,0,1,.442-.7c.626-.332.074-1.29-.553-.958a1.79,1.79,0,0,0-.958,1.658c-.037.7,1.069.7,1.069,0Z" transform="translate(-1290.593 -1080.313)" fill="#161616"/>
      </g>
    </g>
    <g id="Group_717" data-name="Group 717" transform="translate(7.066 10.354)">
      <g id="Group_716" data-name="Group 716">
        <path id="Path_443" data-name="Path 443" d="M1237,989.205h2.211a.553.553,0,0,0,0-1.105H1237a.553.553,0,0,0,0,1.105Z" transform="translate(-1236.475 -988.1)" fill="#161616"/>
      </g>
    </g>
    <g id="Group_719" data-name="Group 719" transform="translate(15.473 6.499)">
      <g id="Group_718" data-name="Group 718">
        <path id="Path_444" data-name="Path 444" d="M1260.216,980.24l1.658-1.658c.516-.516-.295-1.29-.774-.774l-1.658,1.658c-.479.479.295,1.253.774.774Z" transform="translate(-1259.291 -977.638)" fill="#161616"/>
      </g>
    </g>
    <g id="Group_721" data-name="Group 721" transform="translate(11.849 11.221)">
      <g id="Group_720" data-name="Group 720">
        <path id="Path_445" data-name="Path 445" d="M1249.841,992.312a2.362,2.362,0,0,0,2.69-1.032.553.553,0,0,0-.958-.553,1.244,1.244,0,0,1-1.437.553.537.537,0,0,0-.295,1.032Z" transform="translate(-1249.457 -990.452)" fill="#161616"/>
      </g>
    </g>
    <path id="Path_446" data-name="Path 446" d="M1259.593,1019.311l-5.748,1.658a7.334,7.334,0,0,1-.737-2.211,7.224,7.224,0,0,1,0-2.542l6.19-1.216a5.708,5.708,0,0,0-.184,2.653A6.451,6.451,0,0,0,1259.593,1019.311Z" transform="translate(-1239.843 -994.734)" fill="#ec615b"/>
    <path id="Path_447" data-name="Path 447" d="M1241,967.68c.111,3.685.258,7.406.369,11.091,3.8-.995,7.591-1.953,11.386-2.948.037-4.053.074-8.07.074-12.123C1248.922,965.063,1244.943,966.353,1241,967.68Z" transform="translate(-1232.267 -962.337)" fill="#666" opacity="0.24"/>
    <path id="Path_448" data-name="Path 448" d="M1241,1009.6c.516,2.506,1.179,5.159,1.916,7.885a117.2,117.2,0,0,0,4.053,12.012c3.316-1.142,6.6-2.248,9.912-3.39a36.939,36.939,0,0,1-2.211-6.154,36.539,36.539,0,0,1-.811-13.855C1249.585,1007.279,1245.311,1008.458,1241,1009.6Z" transform="translate(-1232.267 -989.113)" fill="#666" opacity="0.24"/>
  </g>
  <g id="hand_r" transform="translate(165.612 12.578)">
    <path id="Path_449" data-name="Path 449" d="M676.56,166.963c.147,2.985.405,7.333.884,12.528,1.179,12.933,1.879,24.1,4.864,32.942,2.248,6.669,7.554,19.161,20.819,31.726a40,40,0,0,1-11.865,18.424,89.677,89.677,0,0,1-19.64-28.115c-7.406-16.876-7.591-32.241-7.738-43.627a145.451,145.451,0,0,1,1.474-22.587c-1.326-1.253-3.353-3.206-5.9-5.527-4.643-4.2-6.411-5.564-6.117-6.154.258-.516,2.174-.479,10.133,2.358-6.854-8.807-9.912-13.523-9.175-14.223.663-.626,4.348,2.027,11.091,7.959-5.011-12.454-5.822-16.176-5.159-16.508s3.243,2.653,10.465,14.628c-1.142-9.654-.774-11.828-.184-11.975,1.032-.221,3.316,5.785,3.979,7.591a60.214,60.214,0,0,1,2.837,10.059c6.227-4.9,7.48-4.459,7.775-4.164,1.069.958-1.769,5.822-2.469,7.038A31.775,31.775,0,0,1,676.56,166.963Z" transform="translate(-653.315 -136.134)" fill="#fff" stroke="#161616" stroke-miterlimit="10" stroke-width="2"/>
    <path id="Path_450" data-name="Path 450" d="M672.824,137.8c-.626.332,1.695,6.522,4.716,11.791.848,1.437,1.363,2.137,5.822,8.843,1.806,2.727,3.279,4.938,4.274,6.411a109.591,109.591,0,0,0-3.058,21.371,97.635,97.635,0,0,0,3.611,32.757A92.889,92.889,0,0,0,706.8,253.022l8.512-7.627a80.162,80.162,0,0,1-20.045-30.141c-3.5-9.507-4.459-18.645-5.306-26.6A162.564,162.564,0,0,1,689,168.236a24.511,24.511,0,0,0,6.743-8.07c.442-.884,2.874-5.564,1.658-6.6-1.29-1.105-5.969,2.432-7.922,3.943-4.311-14.26-6.043-17.466-6.743-17.318-.405.074-.516,1.253-.663,3.132a23.577,23.577,0,0,0,.995,8.917C683.031,152.318,683.031,152.318,672.824,137.8Z" transform="translate(-665.571 -137.186)" fill="#666" opacity="0.15"/>
    <path id="Path_451" data-name="Path 451" d="M718.464,189.7a18.231,18.231,0,0,0-10.391,14.37,86.041,86.041,0,0,0,.037,17.429c2.321,22.7,12.97,39.353,19.861,48.233a118.057,118.057,0,0,1-16.95-69.273,41.15,41.15,0,0,0,4.606-5.785A42.561,42.561,0,0,0,718.464,189.7Z" transform="translate(-687.628 -169.962)" fill="#666" opacity="0.2"/>
    <path id="Path_452" data-name="Path 452" d="M703.7,197.1" transform="translate(-685.134 -174.636)" fill="#fff" stroke="#161616" stroke-miterlimit="10" stroke-width="2"/>
  </g>
  <g id="hand_l" transform="translate(244.845 24.057)">
    <path id="Path_453" data-name="Path 453" d="M875.182,261.954c-2.542,1.179-4.68,1.99-5.932,4.311-2.469,4.532.811,10.575,1.621,12.086a20.345,20.345,0,0,0,7.259,7.591,76.579,76.579,0,0,0,27.3-19.861c12.233-14.039,15.771-28.925,17.613-36.921a97.194,97.194,0,0,0,2.248-26.567c1.805-3.132,4.422-7.554,7.775-12.86,2.948-4.716,4.569-7.185,3.943-7.848-.479-.479-2.321-.074-8.843,4.606,2.358-9.175,3.132-13.928,2.284-14.26-.811-.295-3.1,3.427-6.854,11.2q.829-15.918-.774-16.139c-1.105-.184-3.132,5.6-6.08,17.281-1.732-8.07-2.985-12.049-3.8-11.975-.958.111-1.253,5.822-.958,17.1-5.564-3.058-8.733-4.164-9.507-3.243-1.069,1.29,2.506,6.375,10.723,15.329a62.071,62.071,0,0,1-1.179,15.513c-.663,3.279-5.38,26.346-21.445,35.484C885.389,255.763,880.562,259.448,875.182,261.954Z" transform="translate(-868.345 -167.288)" fill="#fff" stroke="#161616" stroke-miterlimit="10" stroke-width="2"/>
    <path id="Path_454" data-name="Path 454" d="M934.4,180.488c-.59-.184-1.584,3.206-5.638,9.028A11.264,11.264,0,0,0,927,192.537c-.995,3.206.774,5.232.7,7.922-.074,1.916-1.069,4.606-5.638,7.848a53.451,53.451,0,0,1,1.879,11.46c.995,18.976-8.954,32.868-12.418,38.653-3.279,5.49-13.081,19.713-36.921,28.446a10.111,10.111,0,0,0,3.132,5.49,9.043,9.043,0,0,0,3.758,2.027,73.985,73.985,0,0,0,18.866-11.312,75.261,75.261,0,0,0,19.161-24.209c10.428-19.824,10.428-39.169,9.728-48.823,2.1-3.316,3.943-6.227,5.38-8.512,5.159-8.18,6.78-10.8,6.153-11.423-.332-.332-1.437-.184-5.011,2.248-1.216.737-2.432,1.511-3.648,2.248C934.735,183.583,934.919,180.635,934.4,180.488Z" transform="translate(-872.295 -175.62)" fill="#666" opacity="0.16"/>
    <path id="Path_455" data-name="Path 455" d="M987.383,231.9c-8.475,5.2-10.465,9.617-10.649,12.786a36.335,36.335,0,0,0,.405,4.569s-.221,5.453-.147,12.27c.111,9.728-3.906,18.534-8.807,29.22a133.492,133.492,0,0,1-12.086,21.04,83.308,83.308,0,0,0,12.418-15.7c12.6-20.819,12.6-42.043,11.865-52.25C982.7,239.822,985.025,235.843,987.383,231.9Z" transform="translate(-923.765 -208.092)" fill="#666" opacity="0.28"/>
    <path id="Path_456" data-name="Path 456" d="M960.7,220.174c8.217,4.2,10.538,4.9,10.8,4.532.221-.368-1.142-1.806-2.4-2.616a17.777,17.777,0,0,0-2.616-1.253c-2.506-1.069-3.169-1.142-3.648-1.142A4.355,4.355,0,0,0,960.7,220.174Z" transform="translate(-926.67 -200.382)" fill="#666" opacity="0.11"/>
  </g>
  <g id="leg_r" transform="translate(146.466 187.407)">
    <path id="Path_457" data-name="Path 457" d="M663.244,840.538c-.295,1.842,1.4,4.016,4.716,8.4a66.507,66.507,0,0,0,4.458,5.232c-1.658,2.985-4.569,9.4-3.132,17.06.442,2.469,1.216,6.559,3.427,7.075,3.832.921,9.543-9.507,11.791-14.444a53.736,53.736,0,0,0,4.2-14.186c-3.832-5.159-7.7-10.317-11.533-15.476C669.545,834.863,663.723,837.3,663.244,840.538Z" transform="translate(-640.418 -751.81)" fill="#161616" stroke="#161616" stroke-miterlimit="10" stroke-width="2"/>
    <path id="Path_458" data-name="Path 458" d="M669.281,620.587c2.432,18.313-1.326,25.535-5.564,28.63-3.832,2.8-7.627,1.879-16.692,4.5a69.622,69.622,0,0,0-18.018,8.217A54.87,54.87,0,0,0,644.188,692.7a19.207,19.207,0,0,1-21.556,10.575c-5.9-5.453-14.96-15.586-19.05-30.51-1.658-6.08-3.685-13.928-.7-22.7,1.879-5.49,4.79-8.585,10.649-14.776,1.916-2.027,10.28-10.686,25.093-18.571,8.659-4.606,13.044-6.927,18.239-5.859C663.459,612.3,667.549,617.823,669.281,620.587Z" transform="translate(-601.355 -610.602)" fill="#2b7481"/>
    <path id="Path_459" data-name="Path 459" d="M673.78,634.7c-5.969,3.611-14.26,8.88-23.84,15.771-16.581,11.939-24.172,18.313-26.9,24.946-2.653,6.448-.774,18.24,23.177,41.638a14.634,14.634,0,0,0,5.343-2.285,15.047,15.047,0,0,0,5.343-6.633,55.957,55.957,0,0,1-15.181-30.768,50.512,50.512,0,0,1,18.9-8.438c7.148-1.511,12.933-.921,17.355-5.49a17.972,17.972,0,0,0,3.943-7.406,29.97,29.97,0,0,0,.737-15.992C679.713,638.311,676.728,636.505,673.78,634.7Z" transform="translate(-614.476 -625.821)" fill="#666" opacity="0.21"/>
    <path id="Path_460" data-name="Path 460" d="M709.567,648.421a54.916,54.916,0,0,1-3.906,11.165c-6.559,13.707-17.355,21.3-23.361,24.835a48.02,48.02,0,0,1,12.123-5.859c1.032-.332,2.1-.626,13.412-3.574,5.159-1.363,6.633-1.732,8.18-3.206.921-.884,2.432-2.69,3.611-9.249A59.282,59.282,0,0,0,720.4,648.2Z" transform="translate(-652.474 -634.346)" fill="#666" opacity="0.16"/>
    <path id="Path_461" data-name="Path 461" d="M673.558,747.7a48.939,48.939,0,0,0,8.291,39.1,16.568,16.568,0,0,0,4.164-3.39,16.985,16.985,0,0,0,2.616-4.016A54.341,54.341,0,0,1,673.558,747.7Z" transform="translate(-646.274 -697.183)" fill="#666" opacity="0.17"/>
  </g>
  <g id="leg_l" transform="translate(172.59 186.191)">
    <path id="Path_462" data-name="Path 462" d="M733,831.3c2.432,3.427,4.9,6.817,7.333,10.244-1.326,3.5-4.68,13.855.258,22.035.848,1.4,2.358,3.906,4.458,3.943,4.459.074,7.738-10.981,8.4-13.118a43.114,43.114,0,0,0,1.584-16.545c-1.658-10.649-9.4-16.4-14.7-15.218C735.469,823.708,733.258,830.562,733,831.3Z" transform="translate(-710.617 -743.198)" fill="#161616" stroke="#161616" stroke-miterlimit="10" stroke-width="2"/>
    <path id="Path_463" data-name="Path 463" d="M740.218,617.287c3.132,19.75-3.243,26.6-5.564,28.63-2.174,1.879-4.274,2.616-16.029,6.522-4.385,1.474-10.833,3.611-18.718,6.19A54.871,54.871,0,0,0,715.088,689.4a19.207,19.207,0,0,1-21.556,10.575c-5.9-5.453-14.96-15.586-19.05-30.51-1.658-6.08-3.685-13.928-.7-22.7,1.879-5.49,4.79-8.585,10.649-14.776,1.916-2.027,10.28-10.686,25.093-18.571,8.659-4.606,13.044-6.927,18.239-5.859C734.433,608.96,738.486,614.523,740.218,617.287Z" transform="translate(-672.255 -607.302)" fill="#2b7481"/>
    <path id="Path_464" data-name="Path 464" d="M729.662,632.2a58.5,58.5,0,0,1-7.922,15.771c-10.98,15.4-23.361,16.323-26.9,24.946-2.653,6.448-.774,18.24,23.177,41.638a23.237,23.237,0,0,0,5.2-2.911,22.536,22.536,0,0,0,5.527-6.006,58.906,58.906,0,0,1-8.77-11.828,59.8,59.8,0,0,1-6.817-19.455c8.364-2.837,15.107-4.938,19.6-6.338,8.991-2.727,13.6-3.906,17.171-8.438a22.741,22.741,0,0,0,3.722-7.775,30.723,30.723,0,0,0,.811-14.26C746.207,635.811,737.953,634.006,729.662,632.2Z" transform="translate(-685.945 -623.026)" fill="#666" opacity="0.21"/>
    <path id="Path_465" data-name="Path 465" d="M774.357,645.884a51.383,51.383,0,0,1-3.906,11.165c-7.591,15.513-21.114,23.1-27.451,26.088,6.411-2.027,12.2-3.869,17.245-5.49,0,0,2.616-.847,9.028-3.132,8.18-2.948,9.58-3.685,10.98-5.085,2.469-2.506,3.132-5.306,4.127-9.4a40.241,40.241,0,0,0,.774-14.334C781.579,645.774,777.968,645.847,774.357,645.884Z" transform="translate(-716.932 -631.551)" fill="#666" opacity="0.16"/>
    <path id="Path_466" data-name="Path 466" d="M745.358,745.2a48.938,48.938,0,0,0,8.291,39.1,16.571,16.571,0,0,0,4.164-3.39,16.986,16.986,0,0,0,2.616-4.016A54.34,54.34,0,0,1,745.358,745.2Z" transform="translate(-717.743 -694.388)" fill="#666" opacity="0.17"/>
  </g>
  <g id="torso" transform="translate(190.736 112.214)">
    <path id="Path_467" data-name="Path 467" d="M745.23,412.991c-7.148,5.306-10.538,13.449-11.312,15.365a38.854,38.854,0,0,0-2.469,9.728,43,43,0,0,0,.442,13.56A49.178,49.178,0,0,1,721.5,484.88a66.1,66.1,0,0,0,26.235,12.2,64.867,64.867,0,0,0,24.172.663,265.064,265.064,0,0,0,8.807-30.51,273.009,273.009,0,0,0,4.974-29.625,17.7,17.7,0,0,1-8.585-8.585c-.147-.332-3.537-8.328.221-13.118,2.248-2.837,5.417-2.506,5.417-3.39C782.74,410.154,760.263,401.863,745.23,412.991Z" transform="translate(-721.5 -407.035)" fill="#fff" stroke="#161616" stroke-miterlimit="10" stroke-width="2"/>
    <path id="Path_468" data-name="Path 468" d="M784.371,408.624c-.737,1.327-.995,4.864-.995,6.854a25.963,25.963,0,0,0,.479,5.122h0c0,3.279,3.537,19.492,1.069,34.895-2.837,17.687-12.381,31.32-17.023,37.253a55.992,55.992,0,0,0,16.323,4.716,57.021,57.021,0,0,0,16.913-.405c2.653-7.591,5.159-15.955,7.369-25.056a273.14,273.14,0,0,0,6.043-34.415c-1.916-1.253-7.959-5.527-9.433-12.933-.405-2.137-1.142-5.748,1.032-8.991a10.289,10.289,0,0,1,6.19-4.127C797.967,406.155,786.361,405.013,784.371,408.624Z" transform="translate(-750.803 -406.537)" fill="#666" opacity="0.13"/>
    <path id="Path_469" data-name="Path 469" d="M824.2,462.4a86.3,86.3,0,0,1-1.4,23.288c-4.606,23.324-17.724,38.911-24.8,46.133a46.931,46.931,0,0,0,22.108.368,224.361,224.361,0,0,0,12.2-47.423c.59-4.127,1.069-8.143,1.4-12.086A24.644,24.644,0,0,1,824.2,462.4Z" transform="translate(-769.812 -441.816)" fill="#666" opacity="0.17"/>
    <path id="Path_470" data-name="Path 470" d="M800.9,422.909a10.69,10.69,0,0,0,9.175,5.711c5.969.147,10.8-4.974,10.1-6.78C819.692,420.588,816.044,419.851,800.9,422.909Z" transform="translate(-771.643 -415.517)" fill="#666" opacity="0.14"/>
  </g>
  <g id="head" transform="translate(200.102 58.87)">
    <path id="Path_471" data-name="Path 471" d="M756.639,296.5c-1.179-.111-2.285,6.227-4.827,16.029-3.979,15.439-6.375,19.419-3.869,24.725.442.921,2.211,4.606,6.08,6.08,4.053,1.548,9.912.516,12.749-2.948,6.448-7.885-6.3-24.319-9.028-41.048C757.6,298.6,757.3,296.571,756.639,296.5Z" transform="translate(-746.918 -283.699)" fill="#1bff00"/>
    <path id="Path_472" data-name="Path 472" d="M800.89,396.806a16.113,16.113,0,0,1,.368,5.969,17.411,17.411,0,0,1-.958,3.869,21.831,21.831,0,0,0,6.927.774,21.065,21.065,0,0,0,7.7-1.916,36.032,36.032,0,0,1-1.548-4.053,38.114,38.114,0,0,1-1.548-7.148,9.4,9.4,0,0,1-5.2,3.1A9.583,9.583,0,0,1,800.89,396.806Z" transform="translate(-780.63 -345.465)" fill="#fff" stroke="#161616" stroke-miterlimit="10" stroke-width="2"/>
    <path id="Path_473" data-name="Path 473" d="M770.254,290.59c-3.648,9.58-3.39,22.587,3.906,31.873a24.5,24.5,0,0,0,2.985,3.206,29.845,29.845,0,0,0,11.349-1.032,17.018,17.018,0,0,0,5.159-2.211,16.468,16.468,0,0,0,6.3-8.733,3.9,3.9,0,0,0,2.727,1.069c3.316-.221,6.743-6.375,4.716-10.5a7.332,7.332,0,0,0-4.422-3.464c-.737-2.911-3.427-11.9-11.9-16.95-2.174-1.29-8.7-5.159-14.26-2.506C773.128,283.073,771.691,286.832,770.254,290.59Z" transform="translate(-760.202 -273.554)" fill="#fff" stroke="#161616" stroke-miterlimit="10" stroke-width="2"/>
    <g id="Group_723" data-name="Group 723" transform="translate(20.498 50.322)">
      <g id="Group_722" data-name="Group 722">
        <path id="Path_474" data-name="Path 474" d="M803.3,401.564a1.541,1.541,0,0,0-.369.147.546.546,0,0,0,.147,1.069c3.058.295,6.854-1.732,9.322-3.39.59-.405.037-1.363-.553-.958-2.321,1.548-5.9,3.5-8.77,3.243.037.368.111.737.147,1.069a1.543,1.543,0,0,0,.369-.147c.663-.221.368-1.29-.295-1.032Z" transform="translate(-802.549 -398.334)" fill="#161616"/>
      </g>
    </g>
    <g id="Group_725" data-name="Group 725" transform="translate(20.67 51.117)">
      <g id="Group_724" data-name="Group 724">
        <path id="Path_475" data-name="Path 475" d="M803.709,403.443a29.751,29.751,0,0,0,6.89-1.842c.663-.258.368-1.327-.295-1.069a30.251,30.251,0,0,1-6.891,1.842c-.7.111-.405,1.179.295,1.069Z" transform="translate(-803.014 -400.492)" fill="#161616"/>
      </g>
    </g>
    <g id="Group_727" data-name="Group 727" transform="translate(20.987 52.204)">
      <g id="Group_726" data-name="Group 726">
        <path id="Path_476" data-name="Path 476" d="M804.4,404.716a7,7,0,0,0,2.469-.184.554.554,0,0,0-.295-1.069,6.14,6.14,0,0,1-2.174.147c-.7-.074-.7,1.032,0,1.105Z" transform="translate(-803.875 -403.442)" fill="#161616"/>
      </g>
    </g>
    <g id="Group_729" data-name="Group 729" transform="translate(27.804 33.507)">
      <g id="Group_728" data-name="Group 728">
        <path id="Path_477" data-name="Path 477" d="M822.9,353.805a.553.553,0,0,0,0-1.105.553.553,0,0,0,0,1.105Z" transform="translate(-822.375 -352.7)" fill="#161616"/>
      </g>
    </g>
    <g id="Group_731" data-name="Group 731" transform="translate(30.65 33.433)">
      <g id="Group_730" data-name="Group 730">
        <path id="Path_478" data-name="Path 478" d="M831.205,353.126v-.074a.553.553,0,1,0-1.105,0v.074a.567.567,0,0,0,.553.553.594.594,0,0,0,.553-.553Z" transform="translate(-830.1 -352.5)" fill="#161616"/>
      </g>
    </g>
    <g id="Group_733" data-name="Group 733" transform="translate(29.499 35.644)">
      <g id="Group_732" data-name="Group 732">
        <path id="Path_479" data-name="Path 479" d="M827.5,359.605a.553.553,0,0,0,0-1.105.553.553,0,0,0,0,1.105Z" transform="translate(-826.975 -358.5)" fill="#161616"/>
      </g>
    </g>
    <g id="Group_735" data-name="Group 735" transform="translate(10.596 31.001)">
      <g id="Group_734" data-name="Group 734">
        <path id="Path_480" data-name="Path 480" d="M776.2,347.005a.553.553,0,0,0,0-1.105.553.553,0,0,0,0,1.105Z" transform="translate(-775.675 -345.9)" fill="#161616"/>
      </g>
    </g>
    <g id="Group_737" data-name="Group 737" transform="translate(13.198 30.19)">
      <g id="Group_736" data-name="Group 736">
        <path id="Path_481" data-name="Path 481" d="M783.276,344.805a.553.553,0,0,0,0-1.105.553.553,0,0,0,0,1.105Z" transform="translate(-782.737 -343.7)" fill="#161616"/>
      </g>
    </g>
    <g id="Group_739" data-name="Group 739" transform="translate(12.558 32.77)">
      <g id="Group_738" data-name="Group 738">
        <path id="Path_482" data-name="Path 482" d="M781.553,351.805a.553.553,0,0,0,0-1.105.553.553,0,1,0,0,1.105Z" transform="translate(-781 -350.7)" fill="#161616"/>
      </g>
    </g>
    <path id="Path_483" data-name="Path 483" d="M764.865,285.767a12.3,12.3,0,0,1-2.469-7.443,12.552,12.552,0,0,1,1.4-5.453,17.2,17.2,0,0,1,6.227-6.669,21.32,21.32,0,0,1,10.575-4.348c6.743-.663,11.865,2.653,15.4,4.974a31.637,31.637,0,0,1,10.575,11.5,42.26,42.26,0,0,1,2.653,7c.995,3.169.995,4.053,2.653,11.349,1.621,7.185,1.842,7.443,1.695,9.028a16.52,16.52,0,0,1-4.5,9.654c-4.938,5.011-11.349,4.753-13.523,4.68a8.2,8.2,0,0,1-4.68-1.253c-2.911-2.1-3.1-6.043-3.1-6.854a16.256,16.256,0,0,0,4.053-3.279,16.5,16.5,0,0,0,3.869-8.07,5.9,5.9,0,0,0,6.854-2.321c1.658-3.021-.663-7.406-3.279-7.775a3.659,3.659,0,0,0-2.948,1.105,36.055,36.055,0,0,0-7-10.575,36.772,36.772,0,0,0-12.418-8.549,21.511,21.511,0,0,0-6.522,4.348A20.383,20.383,0,0,0,764.865,285.767Z" transform="translate(-756.692 -261.767)" fill="#1bff00"/>
    <path id="Path_484" data-name="Path 484" d="M782.6,363.6" transform="translate(-769.452 -326.077)" fill="#5222d0"/>
    <path id="Path_485" data-name="Path 485" d="M809.281,306.2a24.143,24.143,0,0,1,3.758,13.118c-.221,14.223-13.891,22.182-14.739,22.624.884.147,9.507,1.511,15.513-4.606a16.657,16.657,0,0,0,4.422-8.733,6.058,6.058,0,0,0,3.648.074,5.231,5.231,0,0,0,3.537-3.021,4.857,4.857,0,0,0,.184-2.432,5.657,5.657,0,0,0-1.29-3.39,3.925,3.925,0,0,0-2.063-1.4,3.837,3.837,0,0,0-3.132,1.032,36.19,36.19,0,0,0-4.053-7.185A42.689,42.689,0,0,0,809.281,306.2Z" transform="translate(-779.367 -289.827)" fill="#666" opacity="0.14"/>
    <path id="Path_486" data-name="Path 486" d="M819.379,409.338c-1.105-3.132-2.211-6.3-3.279-9.433,1.806-.59,3.648-1.216,5.453-1.806.995,3.243,1.953,6.522,2.948,9.765C822.806,408.38,821.111,408.859,819.379,409.338Z" transform="translate(-790.608 -347.865)" fill="#666" opacity="0.18"/>
    <path id="Path_487" data-name="Path 487" d="M822.366,362.6A25.6,25.6,0,0,1,804.2,377.413c1.069.074,7.517.516,12.307-3.464a17,17,0,0,0,3.979-4.938,22.074,22.074,0,0,0,1.29-3.537A28.626,28.626,0,0,0,822.366,362.6Z" transform="translate(-783.093 -325.445)" fill="#666" opacity="0.21"/>
    <path id="Path_488" data-name="Path 488" d="M826.169,409.086c-1.069-3.243-2.1-6.522-3.169-9.765.921-.295,1.842-.626,2.764-.921.995,3.243,2.027,6.485,3.021,9.728C827.938,408.422,827.053,408.754,826.169,409.086Z" transform="translate(-794.966 -348.054)" fill="#666" opacity="0.18"/>
    <g id="Group_741" data-name="Group 741" transform="translate(17.668 23.739)">
      <g id="Group_740" data-name="Group 740">
        <path id="Path_489" data-name="Path 489" d="M797.459,326.563c-.995,3.943-1.806,7.922-2.469,11.939-.111.663-.332,1.437.368,1.806.811.442,2.764-.184,3.611-.368.7-.147.405-1.216-.295-1.069a8.022,8.022,0,0,1-2.211.405c-.737-.111-.553.037-.332-.811.295-1.253.442-2.616.7-3.869.516-2.579,1.069-5.159,1.7-7.7.184-.7-.884-.995-1.069-.332Z" transform="translate(-794.868 -326.191)" fill="#161616"/>
      </g>
    </g>
    <g id="Group_743" data-name="Group 743" transform="translate(10.323 25.759)">
      <g id="Group_742" data-name="Group 742">
        <path id="Path_490" data-name="Path 490" d="M775.622,333.784a3.625,3.625,0,0,1,5.417-.111c.368.405.958-.184.59-.59a4.446,4.446,0,0,0-6.6.111c-.332.405.258.995.59.59Z" transform="translate(-774.934 -331.674)" fill="#161616"/>
      </g>
    </g>
    <g id="Group_745" data-name="Group 745" transform="translate(25.53 26.787)">
      <g id="Group_744" data-name="Group 744">
        <path id="Path_491" data-name="Path 491" d="M816.828,335.951a4.2,4.2,0,0,1,5.822,1.29c.295.442.995.037.7-.405a5.028,5.028,0,0,0-6.964-1.584c-.442.258,0,.995.442.7Z" transform="translate(-816.203 -334.464)" fill="#161616"/>
      </g>
    </g>
    <g id="Group_747" data-name="Group 747" transform="translate(12.663 20.181)">
      <g id="Group_746" data-name="Group 746">
        <path id="Path_492" data-name="Path 492" d="M781.916,317.849a4.15,4.15,0,0,1,4.09.074.4.4,0,1,0,.405-.7,5.017,5.017,0,0,0-4.938-.074c-.442.221-.037.958.442.7Z" transform="translate(-781.284 -316.536)" fill="#161616"/>
      </g>
    </g>
    <g id="Group_749" data-name="Group 749" transform="translate(26.082 20.817)">
      <g id="Group_748" data-name="Group 748">
        <path id="Path_493" data-name="Path 493" d="M818.218,319.16a6.476,6.476,0,0,1,4.974,1.253c.442.332.847-.405.405-.7a7.453,7.453,0,0,0-5.6-1.363c-.516.111-.295.884.221.811Z" transform="translate(-817.703 -318.261)" fill="#161616"/>
      </g>
    </g>
    <g id="Group_751" data-name="Group 751" transform="translate(14.549 39.046)">
      <g id="Group_750" data-name="Group 750">
        <path id="Path_494" data-name="Path 494" d="M786.7,370.854a12.052,12.052,0,0,0,11.533-2.432c.405-.332-.184-.921-.59-.59a11.132,11.132,0,0,1-10.723,2.211c-.516-.184-.737.626-.221.811Z" transform="translate(-786.403 -367.734)" fill="#161616"/>
      </g>
    </g>
  </g>
</svg>
