<?xml version="1.0" encoding="utf-8"?>
<!-- Generator: Adobe Illustrator 23.0.6, SVG Export Plug-In . SVG Version: 6.00 Build 0)  -->
<svg version="1.1" id="Livello_1" xmlns="http://www.w3.org/2000/svg" xmlns:xlink="http://www.w3.org/1999/xlink" x="0px" y="0px"
	 viewBox="0 0 700.9 277.3" style="enable-background:new 0 0 700.9 277.3;" xml:space="preserve">
<style type="text/css">
	.st0{fill-rule:evenodd;clip-rule:evenodd;fill:#1F1F1F;}
	.st1{fill:#FFFFFF;}
	.st2{fill-rule:evenodd;clip-rule:evenodd;fill:#1BFF00;}
	.st3{fill-rule:evenodd;clip-rule:evenodd;fill:#FFFFFF;}
</style>
<g id="outline">
	<path class="st0" d="M0,0h700.9v74.5v202.7H0V0z"/>
	<g>
		<path class="st1" d="M241.7,74.5l-8-9.3c-7-8.1-17.4-12.5-28.1-11.9l-34.9,2.2c-10.1,0.6-19.4,5.7-25.3,13.9L90,145l-77.5,38.1
			c-3.1,1.5-4.3,5.2-2.8,8.3c0.4,0.9,1,1.6,1.8,2.2l74,56.4c1.9,1.5,4.6,1.7,6.7,0.5l46.6-25.1l14.7-0.5
			c16.6-0.6,32.5-6.7,45.2-17.5c0.3-0.2,0.5-0.4,0.7-0.6c0.1-0.1,0.2-0.1,0.2-0.2c3.2-2.7,6-5.8,8.6-9.1c0.2-0.2,0.3-0.5,0.5-0.7
			c9.4,1.8,18.8-2.8,23.2-11.3l3.5-6.6c5-1.6,9.2-5.1,11.6-9.7l6.6-12.7l0,0l0.4-0.9l-10.8-4.2L242,151c0.1,0.1,0.2,0.2,0.4,0.3
			l-6.3,12.1c-1.4,2.7-4.3,4.2-7.3,4c-2.4-0.2-4.6-1.5-5.9-3.5c-0.8-1.1-1.2-2.4-1.2-3.7l1.2-6.5l11.1-11.4c0.1,0.1,0.2,0.3,0.3,0.4
			l0.1-0.2c-0.3-0.4-0.5-0.6-0.5-0.6s4.2-3.8,9.4-9c0-0.1,0-0.1-0.1-0.2l11.2-11.4c2.4-2.7,4.5-5.3,6.1-7.6c6.3-9.3,0.9-23.7-0.5-27
			c-3.9-5.9-10.3-10.2-17.7-11.3C242.2,75.1,242,74.8,241.7,74.5z M221,179.7c-1.1,2.1-2.9,3.7-5.1,4.5l0,0c1-2.5,1.9-5,2.6-7.6
			c1,0.7,2.2,1.3,3.3,1.7L221,179.7z M224.3,73.2l3.7,4.3c-2.2,1-4.2,2.3-6,3.8l-8.8,7.5l-4-4.7c-2.2-2.6-6.1-2.9-8.7-0.7
			c-2.6,2.2-2.9,6.1-0.7,8.7l4,4.7l-6.9,5.9l-18.3-5.2c-3.3-0.9-6.7,1-7.7,4.3c-0.9,3.3,1,6.7,4.3,7.7l10.4,2.9l-10.1,8.7
			c-2.6,2.2-3,6.1-0.8,8.7c2.2,2.6,6.1,3,8.7,0.8c0,0,0.1-0.1,0.1-0.1l46.6-39.8c5.6-4.8,13.9-4.1,18.7,1.4c4.5,5.2,4.2,13-0.6,17.9
			l-35.4,36.3c-0.8,0.9-1.4,2-1.6,3.2l-1,5.2c0,0,0,0,0,0c-0.4,1.3-0.7,2.7-0.8,4.1l-2.2,11.4c-2,10.3-7.4,19.6-15.3,26.5
			c-0.1,0.1-0.3,0.2-0.4,0.3c-0.3,0.3-0.6,0.5-0.9,0.8c-10.5,9-23.7,14.1-37.5,14.6l0,0l-16.2,0.5c-1,0-1.9,0.3-2.7,0.7l-44.3,23.9
			L27,189.8l69.9-34.4c0.9-0.4,1.7-1.1,2.3-1.9l56.3-76.8c0.1-0.1,0.2-0.2,0.2-0.3c3.8-5,9.6-8.1,15.9-8.5l34.9-2.2
			C213.3,65.3,219.9,68,224.3,73.2z"/>
	</g>
	<path class="st2" d="M367.2,178.5L367.2,178.5c7.3,0,13.2,5.9,13.2,13.2l0,0c0,7.3-5.9,13.2-13.2,13.2l0,0
		c-7.3,0-13.2-5.9-13.2-13.2l0,0C353.9,184.4,359.9,178.5,367.2,178.5z"/>
	<g>
		<path class="st2" d="M254.1,80.3l-5.7-42.6L231.5,40l4.5,35.5C235.9,75.6,243.5,73.2,254.1,80.3z"/>
		<polygon class="st2" points="243.9,132.4 245.3,142.3 238.8,137.1 222.7,153.5 222.5,156.1 252.3,179 267.1,177 258.8,115.8 		"/>
	</g>
	<path class="st3" d="M691.3,178.3l-77.5-38.1l-55.4-75.6c-6-8.2-15.2-13.2-25.3-13.9l-34.9-2.2c-10.7-0.7-21.1,3.7-28.1,11.9
		l-8,9.3c-0.3,0.3-0.5,0.6-0.7,1c-7.4,1.1-13.8,5.3-17.7,11.3c-1.4,3.3-6.8,17.7-0.5,27c1.6,2.3,3.7,4.9,6.1,7.6l11.2,11.4
		c0,0.1,0,0.1-0.1,0.2c5.2,5.2,9.4,9,9.4,9s-0.2,0.2-0.5,0.6l0.1,0.2c0.1-0.1,0.2-0.3,0.3-0.4l11.1,11.4l1.2,6.5
		c0,1.3-0.5,2.6-1.2,3.7c-1.3,2-3.5,3.3-5.9,3.5c-3,0.2-5.9-1.3-7.3-4l-5.8-11l-0.5-1.2c0.1-0.1,0.2-0.2,0.3-0.2l-0.4,0.1l-0.7-1.5
		l-1.5,2.1v0.1l-9.5,3.7l0.4,0.9l6.6,12.7c2.4,4.6,6.6,8.1,11.6,9.7l3.5,6.6c4.4,8.5,13.9,13,23.2,11.3c0.2,0.2,0.3,0.5,0.5,0.7
		c2.5,3.3,5.4,6.4,8.6,9.1c0.1,0.1,0.2,0.1,0.2,0.2c0.2,0.2,0.5,0.4,0.7,0.6c12.6,10.8,28.6,17,45.2,17.5l14.7,0.5l46.6,25.1
		c2.1,1.2,4.8,1,6.7-0.5l74-56.4c0.8-0.6,1.4-1.3,1.8-2.2C695.6,183.5,694.3,179.8,691.3,178.3z M482.8,174.9l-0.7-1.4
		c1.2-0.5,2.3-1.1,3.3-1.7c0.7,2.6,1.5,5.1,2.6,7.6l0,0C485.7,178.6,483.9,177,482.8,174.9z M614,232.9l-44.3-23.9
		c-0.8-0.5-1.8-0.7-2.7-0.7l-16.2-0.5l0,0c-13.8-0.5-27-5.6-37.5-14.6c-0.3-0.2-0.6-0.5-0.9-0.8c-0.1-0.1-0.3-0.2-0.4-0.3
		c-7.9-6.9-13.3-16.2-15.3-26.5l-2.2-11.4c-0.1-1.4-0.4-2.8-0.8-4.1c0,0,0,0,0,0l-1-5.2c-0.2-1.2-0.8-2.3-1.6-3.2l-35.4-36.3
		c-4.8-4.9-5-12.7-0.6-17.9c4.8-5.6,13.1-6.2,18.7-1.4l46.6,39.8c0,0,0.1,0.1,0.1,0.1c2.6,2.2,6.5,1.8,8.7-0.8
		c2.2-2.6,1.8-6.5-0.8-8.7l-10.1-8.7l10.4-2.9c3.3-0.9,5.2-4.4,4.3-7.7c-0.9-3.3-4.4-5.2-7.7-4.3L506.9,98l-6.9-5.9l4-4.7
		c2.2-2.6,1.9-6.5-0.7-8.7c-2.6-2.2-6.5-1.9-8.7,0.7l-4,4.7l-8.8-7.5c-1.8-1.5-3.8-2.8-6-3.8l3.7-4.3c4.4-5.2,11.1-8,17.9-7.6
		l34.9,2.2c6.3,0.4,12.1,3.5,15.9,8.5c0.1,0.1,0.2,0.2,0.2,0.3l56.3,76.8c0.6,0.8,1.4,1.4,2.3,1.9l69.9,34.4L614,232.9z"/>
	<g>
		<polygon class="st2" points="519.2,41.8 506.1,34 481.2,76.1 494.5,87.4 501.6,75.5 506.5,97.5 511,101.1 531,89 		"/>
		<polygon class="st2" points="454.2,121.5 433.1,156.9 448,165.7 452.1,158.7 461.9,142.3 461.9,142.3 466.7,134.3 		"/>
	</g>
</g>
</svg>
